<svg xmlns="http://www.w3.org/2000/svg" viewBox="0 0 800 520"><defs><style>.cls-1,.cls-3,.cls-5{fill:#fff;}.cls-12,.cls-14,.cls-15,.cls-2,.cls-32,.cls-4{fill:none;}.cls-2,.cls-3{stroke:#b3b3b3;}.cls-11,.cls-12,.cls-14,.cls-15,.cls-2,.cls-3,.cls-32,.cls-4,.cls-5{stroke-miterlimit:10;}.cls-2,.cls-3,.cls-32,.cls-4,.cls-5{stroke-width:2px;}.cls-4,.cls-5{stroke:gray;}.cls-6,.cls-8,.cls-9{font-size:13.41px;}.cls-13,.cls-22,.cls-6,.cls-8{fill:#303030;}.cls-17,.cls-22,.cls-25,.cls-27,.cls-28,.cls-29,.cls-6,.cls-9{font-family:ArialMT, Arial;}.cls-7{letter-spacing:-0.06em;}.cls-8{font-family:Arial-BoldMT, Arial;font-weight:700;}.cls-10{letter-spacing:-0.07em;}.cls-11{fill:#ffeebf;}.cls-11,.cls-14,.cls-15{stroke:#305d8f;}.cls-11,.cls-12,.cls-14{stroke-width:0.5px;}.cls-12{stroke:#303030;}.cls-15{stroke-width:0.25px;}.cls-16{fill:gray;}.cls-17,.cls-22,.cls-25,.cls-27,.cls-28{font-size:1.1px;}.cls-17,.cls-27,.cls-30{fill:#305d8f;}.cls-18{letter-spacing:-0.07em;}.cls-19{letter-spacing:-0.05em;}.cls-20{letter-spacing:-0.06em;}.cls-21,.cls-27{letter-spacing:-0.02em;}.cls-23{letter-spacing:0em;}.cls-24{letter-spacing:0em;}.cls-25{fill:#51804c;}.cls-26{letter-spacing:-0.07em;}.cls-28,.cls-29,.cls-33{fill:#be1860;}.cls-29{font-size:0.94px;}.cls-31{fill:#c600ff;}.cls-32{stroke:#be1860;}</style></defs><title>7-vetores-fase6-Smart-City-TDS-2019</title><g id="Layer_12" data-name="Layer 12"><rect class="cls-1" width="800" height="520"/><path class="cls-2" d="M233.45,306c0,11.6-40.54,21-90.54,21s-90.54-9.4-90.54-21v-85.1H233.45Z"/><ellipse class="cls-3" cx="142.91" cy="220.93" rx="90.54" ry="21.01"/><path class="cls-2" d="M504.47,306c0,11.6-40.53,21-90.53,21s-90.54-9.4-90.54-21v-85.1H504.47Z"/><ellipse class="cls-3" cx="413.94" cy="220.93" rx="90.54" ry="21.01"/><path class="cls-2" d="M747.63,306c0,11.6-40.54,21-90.54,21s-90.54-9.4-90.54-21v-85.1H747.63Z"/><ellipse class="cls-3" cx="657.09" cy="220.93" rx="90.54" ry="21.01"/><path class="cls-4" d="M637.09,289.87c0,2.23-9.38,4-21,4s-21-1.81-21-4V268.66h41.91Z"/><ellipse class="cls-5" cx="616.13" cy="268.66" rx="20.96" ry="4.03"/><text class="cls-6" transform="translate(665.91 273.98)">Data Mart<tspan class="cls-7" x="7.07" y="16.1">V</tspan><tspan x="15.27" y="16.1">endas</tspan></text><text class="cls-6" transform="translate(646.53 225.26)">DW</text><text class="cls-6" transform="translate(390.5 224.26)">Staging</text><text class="cls-6" transform="translate(89.35 225.28)">SIV</text><text class="cls-8" transform="translate(370.8 364.7)"><tspan class="cls-7">T</tspan><tspan x="7.45" y="0">ransformação</tspan></text><text class="cls-9" transform="translate(305.68 385.38)">Seleção, Limpeza, <tspan class="cls-10" x="114.08" y="0">V</tspan><tspan x="122.03" y="0">alidação, Junção,</tspan><tspan x="15.54" y="16.1">Aplicação de Regras de Negócio</tspan></text><text class="cls-8" transform="translate(198.58 119.84)">Extração</text><text class="cls-6" transform="translate(131.1 140.52)">Cópia das tabelas que possuem<tspan x="28.71" y="16.1">dados dos indicadores</tspan></text><text class="cls-8" transform="translate(536.52 119.84)">Carga</text><text class="cls-6" transform="translate(502.22 140.52)">Carrega os dados<tspan x="-11.91" y="16.1">transformados no DW</tspan></text><rect class="cls-11" x="93.22" y="280.89" width="27.63" height="22.48"/><rect class="cls-11" x="128.8" y="297.01" width="22.97" height="20.97"/><rect class="cls-11" x="126.97" y="269.83" width="24.8" height="20.79"/><rect class="cls-11" x="129.07" y="247.34" width="23.86" height="17.78"/><rect class="cls-11" x="161.72" y="261.83" width="26.75" height="22.45"/><rect class="cls-11" x="163.34" y="286.37" width="22.6" height="20.8"/><rect class="cls-11" x="98.82" y="258.95" width="12.3" height="18.89"/><line class="cls-12" x1="126.97" y1="275.06" x2="112.55" y2="275.06"/><polygon class="cls-13" points="112.85 274.06 111.12 275.06 112.85 276.06 112.85 274.06"/><line class="cls-12" x1="141.59" y1="266.56" x2="141.59" y2="269.83"/><polygon class="cls-13" points="140.59 266.85 141.59 265.12 142.58 266.85 140.59 266.85"/><line class="cls-12" x1="126.97" y1="287.13" x2="122.29" y2="287.13"/><polygon class="cls-13" points="122.58 286.14 120.85 287.13 122.58 288.13 122.58 286.14"/><line class="cls-12" x1="140.29" y1="290.62" x2="140.29" y2="295.61"/><polygon class="cls-13" points="139.29 295.32 140.29 297.04 141.29 295.32 139.29 295.32"/><line class="cls-12" x1="151.78" y1="288.51" x2="161.9" y2="288.51"/><polygon class="cls-13" points="161.61 289.51 163.34 288.51 161.61 287.51 161.61 289.51"/><line class="cls-12" x1="151.78" y1="277.1" x2="160.28" y2="277.1"/><polygon class="cls-13" points="159.99 278.1 161.72 277.1 159.99 276.1 159.99 278.1"/><line class="cls-14" x1="93.22" y1="301.07" x2="120.85" y2="301.07"/><line class="cls-14" x1="128.8" y1="299.19" x2="151.78" y2="299.19"/><line class="cls-14" x1="128.8" y1="315.74" x2="151.78" y2="315.74"/><line class="cls-14" x1="126.97" y1="271.92" x2="151.78" y2="271.92"/><line class="cls-15" x1="126.97" y1="288.51" x2="151.78" y2="288.51"/><line class="cls-14" x1="129.07" y1="249.37" x2="152.93" y2="249.37"/><line class="cls-14" x1="129.07" y1="262.61" x2="152.93" y2="262.61"/><line class="cls-14" x1="161.72" y1="282.02" x2="188.47" y2="282.02"/><line class="cls-14" x1="161.72" y1="263.97" x2="188.47" y2="263.97"/><line class="cls-14" x1="163.34" y1="288.51" x2="185.94" y2="288.51"/><line class="cls-14" x1="163.34" y1="304.89" x2="185.94" y2="304.89"/><line class="cls-14" x1="98.82" y1="262.56" x2="111.12" y2="262.56"/><line class="cls-14" x1="93.22" y1="283.02" x2="120.85" y2="283.02"/><path class="cls-16" d="M95.06,302.07h-.71a.36.36,0,0,0-.68.18.36.36,0,0,0,.36.36.37.37,0,0,0,.32-.19h.56Z"/><path class="cls-16" d="M130.7,316.7H130a.36.36,0,0,0-.31-.19.37.37,0,0,0-.37.37.36.36,0,0,0,.68.17h.56Z"/><path class="cls-16" d="M128.75,289.39H128a.37.37,0,0,0-.32-.19.37.37,0,0,0,0,.73.37.37,0,0,0,.32-.19h.56Z"/><path class="cls-16" d="M130.93,263.69h-.71a.38.38,0,0,0-.32-.19.36.36,0,0,0-.36.36.37.37,0,0,0,.36.37.38.38,0,0,0,.32-.19h.55Z"/><path class="cls-16" d="M163.57,282.91h-.72a.34.34,0,0,0-.31-.19.36.36,0,1,0,0,.72.35.35,0,0,0,.31-.18h.56Z"/><path class="cls-16" d="M165.17,305.82h-.71a.36.36,0,1,0,0,.36H165Z"/><text class="cls-17" transform="translate(101.03 260.57)">DIM_VENDA_<tspan x="0" y="1.32">D</tspan><tspan class="cls-18" x="0.79" y="1.32">AT</tspan><tspan class="cls-19" x="2.03" y="1.32">A</tspan></text><text class="cls-17" transform="translate(100.5 282.34)">DIM_VENDA_VENDEDOR</text><text class="cls-17" transform="translate(136.08 271.23)"><tspan class="cls-20">F</tspan><tspan class="cls-18" x="0.61" y="0">A</tspan><tspan x="1.26" y="0">T_VENDAS</tspan></text><text class="cls-17" transform="translate(134.28 248.75)">DIM_VENDA_PROMOCAO</text><text class="cls-17" transform="translate(169.03 263.18)">DIM_VENDA_PRODU<tspan class="cls-21" x="10.99" y="0">T</tspan><tspan x="11.64" y="0">O</tspan></text><text class="cls-17" transform="translate(170.07 287.74)">DIM_VENDA_LOJ<tspan class="cls-20" x="9.04" y="0">A</tspan></text><text class="cls-17" transform="translate(134.51 298.43)">DIM_VENDA_CLIENTE</text><text class="cls-22" transform="translate(131.25 264.23)">DIM_PROMOCAO_PK (sk_promocao)</text><text class="cls-22" transform="translate(165.63 306.36)">DIM_LOJA_PK (sk_loja)</text><text class="cls-22" transform="translate(164.06 283.49)">DIM_PRODU<tspan class="cls-21" x="6.59" y="0">T</tspan><tspan class="cls-23" x="7.24" y="0">O_PK (sk_produto)</tspan></text><text class="cls-22" transform="translate(130.99 317.16)">DIM_CLIENTE_PK (sk_cliente)</text><text class="cls-22" transform="translate(129.07 289.88)"><tspan class="cls-20">F</tspan><tspan class="cls-18" x="0.61" y="0">A</tspan><tspan class="cls-21" x="1.26" y="0">T</tspan><tspan x="1.91" y="0">O_VENDAS_PK (sk_vendedo</tspan><tspan class="cls-20" x="16.57" y="0">r</tspan><tspan class="cls-24" x="16.88" y="0">, sk_prod)</tspan></text><text class="cls-22" transform="translate(95.43 302.56)">DIM_VENDEDOR_PK (sk_vendedor)</text><text class="cls-25" transform="translate(142.18 250.97)">NUMBER (9)</text><text class="cls-25" transform="translate(142.18 252.54)">NUMBER (9)</text><text class="cls-25" transform="translate(142.18 254.11)"><tspan class="cls-18">V</tspan><tspan x="0.65" y="0">ARCHAR2 (40)</tspan></text><text class="cls-25" transform="translate(142.18 255.67)"><tspan class="cls-18">V</tspan><tspan x="0.65" y="0">ARCHAR2 (100)</tspan></text><text class="cls-25" transform="translate(142.18 257.25)"><tspan class="cls-18">V</tspan><tspan x="0.65" y="0">ARCHAR2 (100)</tspan></text><text class="cls-25" transform="translate(142.18 258.82)">D<tspan class="cls-18" x="0.79" y="0">A</tspan><tspan x="1.45" y="0">TE</tspan></text><text class="cls-25" transform="translate(142.18 260.39)">D<tspan class="cls-18" x="0.79" y="0">A</tspan><tspan x="1.45" y="0">TE</tspan></text><text class="cls-25" transform="translate(142.18 261.96)">NUMBER (<tspan class="cls-26" x="5.43" y="0">1</tspan><tspan x="5.96" y="0">1)</tspan></text><text class="cls-25" transform="translate(175.41 289.88)">NUMBER (9)</text><text class="cls-25" transform="translate(175.41 291.45)">NUMBER (9)</text><text class="cls-25" transform="translate(175.41 293.02)"><tspan class="cls-18">V</tspan><tspan x="0.65" y="0">ARCHAR2 (25)</tspan></text><text class="cls-25" transform="translate(175.41 294.59)"><tspan class="cls-18">V</tspan><tspan x="0.65" y="0">ARCHAR2 (80)</tspan></text><text class="cls-25" transform="translate(175.41 296.16)"><tspan class="cls-18">V</tspan><tspan x="0.65" y="0">ARCHAR (120)</tspan></text><text class="cls-25" transform="translate(175.41 297.73)"><tspan class="cls-18">V</tspan><tspan x="0.65" y="0">ARCHAR2 (80)</tspan></text><text class="cls-25" transform="translate(175.41 299.3)">CHAR (2)</text><text class="cls-25" transform="translate(175.41 300.87)">D<tspan class="cls-18" x="0.79" y="0">A</tspan><tspan x="1.45" y="0">TE</tspan></text><text class="cls-25" transform="translate(175.41 302.44)">D<tspan class="cls-18" x="0.79" y="0">A</tspan><tspan x="1.45" y="0">TE</tspan></text><text class="cls-25" transform="translate(175.41 304.01)">NUMBER (<tspan class="cls-26" x="5.43" y="0">1</tspan><tspan x="5.96" y="0">1)</tspan></text><text class="cls-25" transform="translate(177.98 265.49)">NUMBER (9)</text><text class="cls-25" transform="translate(177.98 267.06)">NUMBER (9)</text><text class="cls-25" transform="translate(177.98 268.63)"><tspan class="cls-18">V</tspan><tspan x="0.65" y="0">ARCHAR2 (20)</tspan></text><text class="cls-25" transform="translate(177.98 270.2)"><tspan class="cls-18">V</tspan><tspan x="0.65" y="0">ARCHAR2 (128)</tspan></text><text class="cls-25" transform="translate(177.98 271.77)"><tspan class="cls-18">V</tspan><tspan x="0.65" y="0">ARCHAR2 (60)</tspan></text><text class="cls-25" transform="translate(177.98 273.34)">NUMBER (2)</text><text class="cls-25" transform="translate(177.98 274.91)">CHAR (3)</text><text class="cls-25" transform="translate(177.98 276.48)"><tspan class="cls-18">V</tspan><tspan x="0.65" y="0">ARCHAR2 (30)</tspan></text><text class="cls-25" transform="translate(177.98 278.05)">D<tspan class="cls-18" x="0.79" y="0">A</tspan><tspan x="1.45" y="0">TE</tspan></text><text class="cls-25" transform="translate(177.98 279.61)">D<tspan class="cls-18" x="0.79" y="0">A</tspan><tspan x="1.45" y="0">TE</tspan></text><text class="cls-25" transform="translate(177.98 281.13)">NUMBER (<tspan class="cls-26" x="5.43" y="0">1</tspan><tspan x="5.96" y="0">1)</tspan></text><text class="cls-25" transform="translate(141.93 300.58)">NUMBER (9)</text><text class="cls-25" transform="translate(141.93 302.15)">NUMBER (9)</text><text class="cls-25" transform="translate(141.93 303.72)"><tspan class="cls-18">V</tspan><tspan x="0.65" y="0">ARCHAR 2(80)</tspan></text><text class="cls-25" transform="translate(141.93 305.29)">D<tspan class="cls-18" x="0.79" y="0">A</tspan><tspan x="1.45" y="0">TE</tspan></text><text class="cls-25" transform="translate(141.93 306.86)">CHAR (1)</text><text class="cls-25" transform="translate(141.93 308.43)"><tspan class="cls-18">V</tspan><tspan x="0.65" y="0">ARCHAR2 (25)</tspan></text><text class="cls-25" transform="translate(141.93 310)"><tspan class="cls-18">V</tspan><tspan x="0.65" y="0">ARCHAR (60)</tspan></text><text class="cls-25" transform="translate(141.93 311.57)">D<tspan class="cls-18" x="0.79" y="0">A</tspan><tspan x="1.45" y="0">TE</tspan></text><text class="cls-25" transform="translate(141.93 313.14)">D<tspan class="cls-18" x="0.79" y="0">A</tspan><tspan x="1.45" y="0">TE</tspan></text><text class="cls-25" transform="translate(141.93 314.71)">NUMBER (<tspan class="cls-26" x="5.43" y="0">1</tspan><tspan x="5.96" y="0">1)</tspan></text><text class="cls-25" transform="translate(141.59 273.49)">NUMBER (9)</text><text class="cls-25" transform="translate(141.59 275.06)">NUMBER (9)</text><text class="cls-25" transform="translate(141.59 276.63)">NUMBER (9)</text><text class="cls-25" transform="translate(141.59 278.2)">NUMBER (9)</text><text class="cls-25" transform="translate(141.59 279.77)">NUMBER (9)</text><text class="cls-25" transform="translate(141.59 281.34)">NUMBER (9)</text><text class="cls-25" transform="translate(141.59 282.91)">NUMBER (6)</text><text class="cls-25" transform="translate(141.59 284.48)">NUMBER (3)</text><text class="cls-25" transform="translate(141.59 286.05)">NUMBER (6,2)</text><text class="cls-25" transform="translate(141.59 287.62)">NUMBER (9,2)</text><text class="cls-25" transform="translate(110.34 284.54)">NUMBER (9)</text><text class="cls-25" transform="translate(110.34 286.11)">NUMBER (9)</text><text class="cls-25" transform="translate(110.34 287.68)"><tspan class="cls-18">V</tspan><tspan x="0.65" y="0">ARCHAR2 (60)</tspan></text><text class="cls-25" transform="translate(110.34 289.25)">D<tspan class="cls-18" x="0.79" y="0">A</tspan><tspan x="1.45" y="0">TE</tspan></text><text class="cls-25" transform="translate(110.34 290.82)">CHAR (9)</text><text class="cls-25" transform="translate(110.34 292.39)">D<tspan class="cls-18" x="0.79" y="0">A</tspan><tspan x="1.45" y="0">TE</tspan></text><text class="cls-25" transform="translate(110.34 293.96)">NUMBER (2)</text><text class="cls-25" transform="translate(110.34 295.53)"><tspan class="cls-18">V</tspan><tspan x="0.65" y="0">ARCHAR2 (60)</tspan></text><text class="cls-25" transform="translate(110.34 297.1)">D<tspan class="cls-18" x="0.79" y="0">A</tspan><tspan x="1.45" y="0">TE</tspan></text><text class="cls-25" transform="translate(110.34 298.67)">D<tspan class="cls-18" x="0.79" y="0">A</tspan><tspan x="1.45" y="0">TE</tspan></text><text class="cls-25" transform="translate(110.34 300.24)">NUMBER (<tspan class="cls-26" x="5.43" y="0">1</tspan><tspan x="5.96" y="0">1)</tspan></text><text class="cls-27" transform="translate(93.75 284.54)">P</text><text class="cls-17" transform="translate(127.22 273.49)">PF</text><text class="cls-17" transform="translate(127.22 275.06)">PF</text><text class="cls-17" transform="translate(127.22 276.63)">PF</text><text class="cls-17" transform="translate(127.22 278.2)">PF</text><text class="cls-17" transform="translate(127.22 279.77)">PF</text><text class="cls-17" transform="translate(127.22 281.34)">PF</text><text class="cls-27" transform="translate(127.22 282.91)">P</text><text class="cls-27" transform="translate(129.54 250.97)">P</text><text class="cls-27" transform="translate(162.18 265.49)">P</text><text class="cls-27" transform="translate(163.81 289.88)">P</text><text class="cls-27" transform="translate(129.32 300.58)">P</text><text class="cls-27" transform="translate(99.19 264.07)">P</text><text class="cls-28" transform="translate(95.01 284.54)">*</text><text class="cls-29" transform="translate(128.91 273.49)">*</text><text class="cls-29" transform="translate(128.91 275.06)">*</text><text class="cls-29" transform="translate(128.91 276.63)">*</text><text class="cls-29" transform="translate(128.91 278.2)">*</text><text class="cls-29" transform="translate(128.91 279.77)">*</text><text class="cls-29" transform="translate(128.91 281.34)">*</text><text class="cls-29" transform="translate(128.91 282.91)">*</text><text class="cls-28" transform="translate(130.83 250.97)">*</text><text class="cls-28" transform="translate(163.54 265.49)">*</text><text class="cls-28" transform="translate(165.11 289.88)">*</text><text class="cls-28" transform="translate(130.63 300.58)">*</text><text class="cls-28" transform="translate(100.61 264.07)">*</text><text class="cls-22" transform="translate(96.21 284.54)">sk_vendedor</text><text class="cls-22" transform="translate(96.21 286.11)">nk_vendedor</text><text class="cls-22" transform="translate(96.21 287.68)">nm_vendedor</text><text class="cls-22" transform="translate(96.21 289.25)">dt_nascimento</text><text class="cls-22" transform="translate(96.21 290.82)">ds_sexo</text><text class="cls-22" transform="translate(96.21 292.39)">dt_contratacao</text><text class="cls-22" transform="translate(96.21 293.96)">cd_faixa_bonificacao</text><text class="cls-22" transform="translate(96.21 295.53)">ds_faixa_bonificacao</text><text class="cls-22" transform="translate(96.21 297.1)">dtc_ini</text><text class="cls-22" transform="translate(96.21 298.67)">dte_fim</text><text class="cls-22" transform="translate(96.21 300.24)">version</text><text class="cls-22" transform="translate(129.84 273.49)">sk_data</text><text class="cls-22" transform="translate(129.84 275.06)">sk_cliente</text><text class="cls-22" transform="translate(129.84 276.63)">sk_vendedor</text><text class="cls-22" transform="translate(129.84 278.2)">sk_promocao</text><text class="cls-22" transform="translate(129.84 279.77)">sk_produto</text><text class="cls-22" transform="translate(129.84 281.34)">sk_loja</text><text class="cls-22" transform="translate(129.84 282.91)">dd_nota_fiscal</text><text class="cls-22" transform="translate(129.84 284.48)">qtd_vendida</text><text class="cls-22" transform="translate(129.84 286.05)">vl_preco_unitario</text><text class="cls-22" transform="translate(132.04 250.97)">sk_promocao</text><text class="cls-22" transform="translate(132.04 252.54)">nk_promocao</text><text class="cls-22" transform="translate(132.04 254.11)">nm_promocao</text><text class="cls-22" transform="translate(132.04 255.67)">ds_promocao</text><text class="cls-22" transform="translate(132.04 257.25)">obs_promocao</text><text class="cls-22" transform="translate(132.04 258.82)">dtc_ini</text><text class="cls-22" transform="translate(132.04 260.39)">dtc_fim</text><text class="cls-22" transform="translate(132.04 261.96)">version</text><text class="cls-22" transform="translate(129.84 287.62)">vl_total_preco</text><text class="cls-22" transform="translate(164.63 265.49)">sk_produto</text><text class="cls-22" transform="translate(164.63 267.06)">nk_produto</text><text class="cls-22" transform="translate(164.63 268.63)">nm_produto</text><text class="cls-22" transform="translate(164.63 270.2)">ds_produto</text><text class="cls-22" transform="translate(164.63 271.77)">nm_marca</text><text class="cls-22" transform="translate(164.63 273.34)">nk_unidade_medida</text><text class="cls-22" transform="translate(164.63 274.91)">ds_sigla</text><text class="cls-22" transform="translate(164.63 276.48)">ds_unidade_medida</text><text class="cls-22" transform="translate(164.63 278.05)">dtc_ini</text><text class="cls-22" transform="translate(164.63 279.61)">dtc_fim</text><text class="cls-22" transform="translate(164.63 281.13)">version</text><text class="cls-22" transform="translate(166.36 289.88)">sk_loja</text><text class="cls-22" transform="translate(166.36 291.45)">nk_loja</text><text class="cls-22" transform="translate(166.36 293.02)">nm_loja</text><text class="cls-22" transform="translate(166.36 294.59)">ds_loja</text><text class="cls-22" transform="translate(166.36 296.16)">ds_endereco</text><text class="cls-22" transform="translate(166.36 297.73)">nm_cidade</text><text class="cls-22" transform="translate(166.36 299.3)">sg_uf</text><text class="cls-22" transform="translate(166.36 300.87)">dtc_ini</text><text class="cls-22" transform="translate(166.36 302.44)">dtc_fim</text><text class="cls-22" transform="translate(166.36 304.01)">version</text><text class="cls-22" transform="translate(131.88 300.58)">sk_cliente</text><text class="cls-22" transform="translate(131.88 302.15)">nk_cliente</text><text class="cls-22" transform="translate(131.88 303.72)">nm_cliente</text><text class="cls-22" transform="translate(131.88 305.29)">dt_nascimento</text><text class="cls-22" transform="translate(131.88 306.86)">ds_sexo</text><text class="cls-22" transform="translate(131.88 308.43)">nm_tipo</text><text class="cls-22" transform="translate(131.88 310)">ds_tipo</text><text class="cls-22" transform="translate(131.88 311.57)">dtc_ini</text><text class="cls-22" transform="translate(131.88 313.14)">dtc_fim</text><text class="cls-22" transform="translate(131.88 314.71)">version</text><text class="cls-22" transform="translate(101.76 264.07)">sk_data</text><text class="cls-22" transform="translate(101.76 265.65)">data</text><text class="cls-22" transform="translate(101.76 267.21)">data_extenso</text><text class="cls-22" transform="translate(101.76 268.78)">ano</text><text class="cls-22" transform="translate(101.76 270.35)">semestre</text><text class="cls-22" transform="translate(101.76 271.92)">trimestre</text><text class="cls-22" transform="translate(101.76 273.49)">bimestre</text><text class="cls-22" transform="translate(101.76 275.06)">mes</text><text class="cls-22" transform="translate(101.76 276.63)">feriado</text><polygon class="cls-30" points="109.82 276.63 110.74 276.63 110.28 277.41 109.82 276.63"/><polygon class="cls-31" points="150.33 289.49 151.25 289.49 150.79 290.27 150.33 289.49"/><path class="cls-4" d="M202.43,404.91s-10.06-2.24-17.61,3.63-19.19,1.68-19.19,1.68V382.54h36.8Z"/><polyline class="cls-4" points="169.03 382.54 169.03 378.64 206.41 378.64 206.41 402.05 202.43 402.05"/><polyline class="cls-4" points="173.35 378.85 173.35 374.95 209.76 374.95 209.76 398.35 206.76 398.35"/><path class="cls-4" d="M154.21,376.3s-10.06-2.23-17.61,3.63-19.19,1.68-19.19,1.68V353.94h36.8Z"/><polyline class="cls-4" points="120.81 353.94 120.81 350.04 158.19 350.04 158.19 373.44 154.21 373.44"/><polyline class="cls-4" points="125.14 350.24 125.14 346.34 161.54 346.34 161.54 369.75 158.54 369.75"/><text class="cls-6" transform="translate(171.6 396.58)">xlsx</text><text class="cls-6" transform="translate(124.45 366.61)">cvs</text><path class="cls-4" d="M434.92,284.54c0,2.76-9.26,5-20.68,5s-20.68-2.23-20.68-5V262.23h41.36Z"/><ellipse class="cls-5" cx="414.24" cy="262.23" rx="20.68" ry="4.98"/><path class="cls-4" d="M373.15,284.54c0,2.76-9.26,5-20.68,5s-20.68-2.23-20.68-5V262.23h41.36Z"/><ellipse class="cls-5" cx="352.47" cy="262.23" rx="20.68" ry="4.98"/><path class="cls-4" d="M493.71,284.54c0,2.76-9.25,5-20.67,5s-20.68-2.23-20.68-5V262.23h41.35Z"/><ellipse class="cls-5" cx="473.04" cy="262.23" rx="20.68" ry="4.98"/><line class="cls-1" x1="185.94" y1="358.05" x2="308.61" y2="294.26"/><line class="cls-32" x1="185.94" y1="358.05" x2="303.52" y2="296.91"/><polygon class="cls-33" points="304.33 300.99 308.62 294.26 300.65 293.91 304.33 300.99"/><path class="cls-32" d="M136.08,240s2.08-62,106-63.15c85.11-.92,98.29,43.27,100.27,59.32"/><polygon class="cls-33" points="338.25 235.32 342.7 241.94 346.2 234.77 338.25 235.32"/><path class="cls-32" d="M473,251s-.12-61.79,77.57-62.9c63.37-.92,75.79,41.53,78.21,57.19"/><polygon class="cls-33" points="624.67 244.55 629.41 250.97 632.6 243.66 624.67 244.55"/><path class="cls-32" d="M348.85,304s3.25,40.66,28.51,40.09c19.14-.43,25.33-23.44,27.19-34.4"/><polygon class="cls-33" points="408.3 311.4 405.3 304.01 400.4 310.3 408.3 311.4"/><path class="cls-32" d="M426.82,304s3.25,40.66,28.5,40.09c19.14-.43,25.33-23.44,27.2-34.4"/><polygon class="cls-33" points="486.26 311.4 483.26 304.01 478.36 310.3 486.26 311.4"/></g></svg>