<svg xmlns="http://www.w3.org/2000/svg" viewBox="0 0 1000 520"><defs><style>.cls-1{fill:#fff;}.cls-13,.cls-2,.cls-3{fill:none;stroke-miterlimit:10;}.cls-2{stroke:#3d6480;}.cls-2,.cls-3{stroke-width:2px;}.cls-3{stroke:#e90419;}.cls-4{fill:#3d6480;}.cls-5{font-size:16.2px;font-family:ArialMT, Arial;}.cls-14,.cls-5{fill:#303030;}.cls-6{letter-spacing:-0.11em;}.cls-7{letter-spacing:-0.07em;}.cls-8{letter-spacing:-0.04em;}.cls-9{letter-spacing:-0.02em;}.cls-10{letter-spacing:-0.07em;}.cls-11{letter-spacing:0em;}.cls-12{letter-spacing:-0.04em;}.cls-13{stroke:#fff;stroke-width:3px;}.cls-14{font-size:22px;font-family:Arial-BoldMT, Arial;font-weight:700;}</style></defs><title>7-vetores-fase6-Smart-City-TDS-2019</title><g id="Layer_22" data-name="Layer 22"><rect class="cls-1" width="1000" height="520"/><rect class="cls-2" x="199.85" y="120.44" width="44.1" height="44.1" rx="6" ry="6"/><rect class="cls-2" x="456.36" y="120.44" width="44.1" height="44.1" rx="6" ry="6"/><rect class="cls-2" x="729.84" y="120.44" width="44.1" height="44.1" rx="6" ry="6"/><rect class="cls-2" x="461.72" y="128.43" width="16.88" height="5.4"/><rect class="cls-2" x="461.72" y="136.19" width="32.74" height="5.4"/><rect class="cls-2" x="461.72" y="143.96" width="16.88" height="5.4"/><rect class="cls-2" x="461.72" y="151.72" width="32.74" height="5.4"/><line class="cls-3" x1="482.2" y1="128.43" x2="487.6" y2="133.83"/><line class="cls-3" x1="487.6" y1="128.43" x2="482.2" y2="133.83"/><line class="cls-3" x1="482.2" y1="143.96" x2="487.6" y2="149.36"/><line class="cls-3" x1="487.6" y1="143.96" x2="482.2" y2="149.36"/><line class="cls-2" x1="230.01" y1="151.99" x2="235.88" y2="158.26"/><path class="cls-4" d="M229.34,156.89a.39.39,0,0,1,.48-.28l5.93,1.52-1.13-6a.41.41,0,0,1,.32-.47.4.4,0,0,1,.47.32l1.24,6.63a.4.4,0,0,1-.12.37.39.39,0,0,1-.37.09l-6.54-1.68a.45.45,0,0,1-.19-.11A.4.4,0,0,1,229.34,156.89Z"/><line class="cls-2" x1="739.16" y1="128.9" x2="745.48" y2="135.62"/><path class="cls-4" d="M738.94,134.27a.39.39,0,0,1,.48-.29l5.93,1.51-1.13-6a.4.4,0,1,1,.78-.15l1.26,6.63a.4.4,0,0,1-.12.36.39.39,0,0,1-.37.1l-6.54-1.67a.43.43,0,0,1-.2-.11A.39.39,0,0,1,738.94,134.27Z"/><polyline class="cls-2" points="750.11 133 764.06 133 764.06 156.17 740.88 156.17 740.88 142.67"/><line class="cls-2" x1="742.9" y1="140.87" x2="764.06" y2="140.87"/><line class="cls-2" x1="740.88" y1="148.75" x2="764.06" y2="148.75"/><line class="cls-2" x1="748.53" y1="140.87" x2="748.53" y2="156.17"/><line class="cls-2" x1="757.08" y1="140.87" x2="757.08" y2="156.17"/><polyline class="cls-2" points="224.15 154.02 210.19 154.02 210.19 130.84 233.37 130.84 233.37 144.34"/><line class="cls-2" x1="231.35" y1="146.14" x2="210.19" y2="146.14"/><line class="cls-2" x1="233.37" y1="138.27" x2="210.19" y2="138.27"/><line class="cls-2" x1="225.72" y1="146.14" x2="225.72" y2="130.84"/><line class="cls-2" x1="217.17" y1="146.14" x2="217.17" y2="130.84"/><line class="cls-2" x1="243.96" y1="143.62" x2="456.36" y2="143.62"/><line class="cls-2" x1="500.62" y1="143.62" x2="730.32" y2="143.62"/><polygon class="cls-4" points="395.17 143.51 390.22 136.19 409.8 143.62 390.22 150.82 395.17 143.51"/><polygon class="cls-4" points="624.38 143.51 619.43 136.19 639 143.62 619.43 150.82 624.38 143.51"/><text class="cls-5" transform="translate(605.04 191.31)"><tspan class="cls-6">T</tspan><tspan x="8.1" y="0">able output STG_T_SV_NO</tspan><tspan class="cls-7" x="208.93" y="0">T</tspan><tspan x="217.62" y="0">A_FISCA</tspan><tspan class="cls-8" x="285.15" y="0">L</tspan></text><text class="cls-5" transform="translate(431.35 191.31)">Select values</text><text class="cls-5" transform="translate(101.39 191.31)"><tspan class="cls-6">T</tspan><tspan x="8.1" y="0">able input</tspan><tspan class="cls-9" x="78.37" y="0"> </tspan><tspan x="82.58" y="0">T_SV_NO</tspan><tspan class="cls-10" x="156.41" y="0">T</tspan><tspan class="cls-11" x="165.1" y="0">A_FISCA</tspan><tspan class="cls-12" x="232.63" y="0">L</tspan></text><rect class="cls-2" x="199.85" y="252.72" width="44.1" height="44.1" rx="6" ry="6"/><rect class="cls-2" x="456.36" y="252.72" width="44.1" height="44.1" rx="6" ry="6"/><rect class="cls-2" x="729.84" y="252.72" width="44.1" height="44.1" rx="6" ry="6"/><rect class="cls-2" x="461.72" y="260.71" width="16.88" height="5.4"/><rect class="cls-2" x="461.72" y="268.47" width="32.74" height="5.4"/><rect class="cls-2" x="461.72" y="276.24" width="16.88" height="5.4"/><rect class="cls-2" x="461.72" y="284" width="32.74" height="5.4"/><line class="cls-3" x1="482.2" y1="260.71" x2="487.6" y2="266.11"/><line class="cls-3" x1="487.6" y1="260.71" x2="482.2" y2="266.11"/><line class="cls-3" x1="482.2" y1="276.24" x2="487.6" y2="281.64"/><line class="cls-3" x1="487.6" y1="276.24" x2="482.2" y2="281.64"/><line class="cls-2" x1="228.93" y1="283.19" x2="234.8" y2="289.47"/><path class="cls-4" d="M228.26,288.1a.39.39,0,0,1,.49-.29l5.92,1.52-1.12-6a.4.4,0,0,1,.32-.47.4.4,0,0,1,.46.32l1.24,6.63a.4.4,0,0,1-.12.37.39.39,0,0,1-.37.09l-6.53-1.68a.43.43,0,0,1-.2-.11A.39.39,0,0,1,228.26,288.1Z"/><line class="cls-2" x1="739.16" y1="262.25" x2="745.48" y2="268.98"/><path class="cls-4" d="M738.94,267.62a.39.39,0,0,1,.48-.28l5.93,1.51-1.13-6a.4.4,0,0,1,.78-.15l1.26,6.63a.41.41,0,0,1-.12.37.42.42,0,0,1-.37.1l-6.54-1.67a.43.43,0,0,1-.2-.11A.4.4,0,0,1,738.94,267.62Z"/><polyline class="cls-2" points="751.18 266.35 765.13 266.35 765.13 289.53 741.96 289.53 741.96 276.03"/><line class="cls-2" x1="743.98" y1="274.23" x2="765.13" y2="274.23"/><line class="cls-2" x1="741.96" y1="282.1" x2="765.13" y2="282.1"/><line class="cls-2" x1="749.61" y1="274.23" x2="749.61" y2="289.53"/><line class="cls-2" x1="758.16" y1="274.23" x2="758.16" y2="289.53"/><polyline class="cls-2" points="224.15 286.3 210.19 286.3 210.19 263.12 233.37 263.12 233.37 276.62"/><line class="cls-2" x1="231.35" y1="278.42" x2="210.19" y2="278.42"/><line class="cls-2" x1="233.37" y1="270.54" x2="210.19" y2="270.54"/><line class="cls-2" x1="225.72" y1="278.42" x2="225.72" y2="263.12"/><line class="cls-2" x1="217.17" y1="278.42" x2="217.17" y2="263.12"/><polyline class="cls-13" points="236.85 253.75 240.82 257.67 247.34 251.82"/><line class="cls-2" x1="243.96" y1="275.9" x2="456.36" y2="275.9"/><line class="cls-2" x1="500.62" y1="275.9" x2="730.32" y2="275.9"/><polygon class="cls-4" points="395.17 275.79 390.22 268.47 409.8 275.9 390.22 283.1 395.17 275.79"/><polygon class="cls-4" points="624.38 275.79 619.43 268.47 639 275.9 619.43 283.1 624.38 275.79"/><text class="cls-5" transform="translate(586.58 324.67)"><tspan class="cls-6">T</tspan><tspan x="8.1" y="0">able output STG_T_SV_ITEM_NO</tspan><tspan class="cls-10" x="256.64" y="0">T</tspan><tspan class="cls-11" x="265.33" y="0">A_FICA</tspan><tspan class="cls-8" x="322.05" y="0">L</tspan></text><text class="cls-5" transform="translate(423.51 324.67)">Select values 2</text><text class="cls-5" transform="translate(76.46 324.67)"><tspan class="cls-6">T</tspan><tspan x="8.1" y="0">able input</tspan><tspan class="cls-9" x="78.37" y="0"> </tspan><tspan x="82.58" y="0">T_SV_ITEM_NO</tspan><tspan class="cls-10" x="204.12" y="0">T</tspan><tspan x="212.81" y="0">A_FISCA</tspan><tspan class="cls-8" x="280.34" y="0">L</tspan></text><rect class="cls-2" x="199.85" y="386.08" width="44.1" height="44.1" rx="6" ry="6"/><rect class="cls-2" x="456.36" y="386.08" width="44.1" height="44.1" rx="6" ry="6"/><rect class="cls-2" x="729.84" y="386.08" width="44.1" height="44.1" rx="6" ry="6"/><rect class="cls-2" x="461.72" y="394.07" width="16.88" height="5.4"/><rect class="cls-2" x="461.72" y="401.83" width="32.74" height="5.4"/><rect class="cls-2" x="461.72" y="409.59" width="16.88" height="5.4"/><rect class="cls-2" x="461.72" y="417.36" width="32.74" height="5.4"/><line class="cls-3" x1="482.2" y1="394.07" x2="487.6" y2="399.47"/><line class="cls-3" x1="487.6" y1="394.07" x2="482.2" y2="399.47"/><line class="cls-3" x1="482.2" y1="409.59" x2="487.6" y2="414.99"/><line class="cls-3" x1="487.6" y1="409.59" x2="482.2" y2="414.99"/><line class="cls-2" x1="228.93" y1="416.55" x2="234.8" y2="422.82"/><path class="cls-4" d="M228.26,421.45a.39.39,0,0,1,.49-.28l5.92,1.52-1.12-6a.4.4,0,0,1,.78-.14l1.24,6.63a.4.4,0,0,1-.12.37.41.41,0,0,1-.37.09l-6.53-1.68a.43.43,0,0,1-.2-.11A.4.4,0,0,1,228.26,421.45Z"/><line class="cls-2" x1="739.16" y1="395.61" x2="745.48" y2="402.34"/><path class="cls-4" d="M738.94,401a.4.4,0,0,1,.48-.29l5.93,1.51-1.13-6a.4.4,0,0,1,.31-.47.41.41,0,0,1,.47.32l1.26,6.63a.42.42,0,0,1-.12.37.39.39,0,0,1-.37.09l-6.54-1.66a.4.4,0,0,1-.29-.49Z"/><polyline class="cls-2" points="751.18 399.71 765.13 399.71 765.13 422.89 741.96 422.89 741.96 409.38"/><line class="cls-2" x1="743.98" y1="407.59" x2="765.13" y2="407.59"/><line class="cls-2" x1="741.96" y1="415.46" x2="765.13" y2="415.46"/><line class="cls-2" x1="749.61" y1="407.59" x2="749.61" y2="422.89"/><line class="cls-2" x1="758.16" y1="407.59" x2="758.16" y2="422.89"/><polyline class="cls-2" points="224.15 419.65 210.19 419.65 210.19 396.48 233.37 396.48 233.37 409.98"/><line class="cls-2" x1="231.35" y1="411.78" x2="210.19" y2="411.78"/><line class="cls-2" x1="233.37" y1="403.9" x2="210.19" y2="403.9"/><line class="cls-2" x1="225.72" y1="411.78" x2="225.72" y2="396.48"/><line class="cls-2" x1="217.17" y1="411.78" x2="217.17" y2="396.48"/><line class="cls-2" x1="243.96" y1="409.25" x2="456.36" y2="409.25"/><line class="cls-2" x1="500.62" y1="409.25" x2="730.32" y2="409.25"/><polygon class="cls-4" points="395.17 409.14 390.22 401.83 409.8 409.25 390.22 416.45 395.17 409.14"/><polygon class="cls-4" points="624.38 409.14 619.43 401.83 639 409.25 619.43 416.45 624.38 409.14"/><text class="cls-5" transform="translate(562.12 458.03)"><tspan class="cls-6">T</tspan><tspan x="8.1" y="0">able output STG_T_SV_CLASSIFICACAO_FISCA</tspan><tspan class="cls-12" x="370.99" y="0">L</tspan></text><text class="cls-5" transform="translate(423.51 458.03)">Select values 3</text><text class="cls-5" transform="translate(58.47 458.03)"><tspan class="cls-6">T</tspan><tspan x="8.1" y="0">able input</tspan><tspan class="cls-9" x="78.37" y="0"> </tspan><tspan x="82.58" y="0">T_SV_CLASSIFICACAO_FISCA</tspan><tspan class="cls-8" x="318.47" y="0">L</tspan></text><text class="cls-14" transform="translate(75.43 75.59)">TRANS_EXTRACT_NF</text></g></svg>