<svg xmlns="http://www.w3.org/2000/svg" viewBox="0 0 1000 520"><defs><style>.cls-1{fill:#fff;}.cls-2,.cls-3{fill:none;}.cls-10,.cls-2{stroke:#3d6480;}.cls-10,.cls-2,.cls-3{stroke-miterlimit:10;stroke-width:2px;}.cls-3{stroke:#e90419;}.cls-4{fill:#3d6480;}.cls-5{font-size:14.24px;fill:#303030;font-family:ArialMT, Arial;}.cls-6{letter-spacing:-0.11em;}.cls-7{letter-spacing:-0.02em;}.cls-8{letter-spacing:-0.06em;}.cls-9{letter-spacing:-0.02em;}.cls-10{fill:#f4e4cb;}</style></defs><title>7-vetores-fase6-Smart-City-TDS-2019</title><g id="Layer_26" data-name="Layer 26"><rect class="cls-1" width="1000" height="520"/><rect class="cls-2" x="438.59" y="226.06" width="38.78" height="38.78" rx="6" ry="6"/><rect class="cls-2" x="670.27" y="226.06" width="38.78" height="38.78" rx="6" ry="6"/><rect class="cls-2" x="844.38" y="226.06" width="38.78" height="38.78" rx="6" ry="6"/><rect class="cls-2" x="674.99" y="233.08" width="14.84" height="4.75"/><rect class="cls-2" x="674.99" y="239.91" width="28.79" height="4.75"/><rect class="cls-2" x="674.99" y="246.73" width="14.84" height="4.75"/><rect class="cls-2" x="674.99" y="253.56" width="28.79" height="4.75"/><line class="cls-3" x1="692.99" y1="233.08" x2="697.74" y2="237.83"/><line class="cls-3" x1="697.74" y1="233.08" x2="692.99" y2="237.83"/><line class="cls-3" x1="692.99" y1="246.73" x2="697.74" y2="251.48"/><line class="cls-3" x1="697.74" y1="246.73" x2="692.99" y2="251.48"/><line class="cls-2" x1="852.57" y1="233.49" x2="858.05" y2="239.32"/><path class="cls-4" d="M851.51,238a.39.39,0,0,1,.48-.29l5.93,1.51-1.14-6a.41.41,0,0,1,.32-.47.4.4,0,0,1,.47.32l1.26,6.63a.41.41,0,0,1-.5.46l-6.54-1.67a.45.45,0,0,1-.19-.11A.39.39,0,0,1,851.51,238Z"/><polyline class="cls-2" points="862.19 237.1 874.46 237.1 874.46 257.48 854.08 257.48 854.08 245.6"/><line class="cls-2" x1="855.86" y1="244.02" x2="874.46" y2="244.02"/><line class="cls-2" x1="854.08" y1="250.95" x2="874.46" y2="250.95"/><line class="cls-2" x1="860.81" y1="244.02" x2="860.81" y2="257.48"/><line class="cls-2" x1="868.33" y1="244.02" x2="868.33" y2="257.48"/><rect class="cls-2" x="135.41" y="226.06" width="38.78" height="38.78" rx="6" ry="6"/><line class="cls-2" x1="161.92" y1="253.8" x2="167" y2="259.23"/><path class="cls-4" d="M160.46,257.86a.41.41,0,0,1,.49-.29l5.93,1.53-1.13-6a.4.4,0,0,1,.32-.47.41.41,0,0,1,.47.32l1.24,6.64a.41.41,0,0,1-.5.46l-6.53-1.68a.35.35,0,0,1-.19-.12A.4.4,0,0,1,160.46,257.86Z"/><polyline class="cls-2" points="156.77 255.58 144.5 255.58 144.5 235.2 164.88 235.2 164.88 247.07"/><line class="cls-2" x1="163.1" y1="248.66" x2="144.5" y2="248.66"/><line class="cls-2" x1="164.88" y1="241.73" x2="144.5" y2="241.73"/><line class="cls-2" x1="158.15" y1="248.66" x2="158.15" y2="235.2"/><line class="cls-2" x1="150.63" y1="248.66" x2="150.63" y2="235.2"/><line class="cls-2" x1="477.37" y1="246.44" x2="670.27" y2="246.44"/><line class="cls-2" x1="173.99" y1="246.44" x2="438.29" y2="246.44"/><line class="cls-2" x1="709.18" y1="246.44" x2="844.8" y2="246.44"/><polygon class="cls-4" points="607.55 246.34 603.2 239.91 620.41 246.44 603.2 252.77 607.55 246.34"/><polygon class="cls-4" points="383.99 246.34 379.64 239.91 396.85 246.44 379.64 252.77 383.99 246.34"/><polygon class="cls-4" points="789.56 246.34 785.21 239.91 802.42 246.44 785.21 252.77 789.56 246.34"/><text class="cls-5" transform="translate(768.83 289.32)"><tspan class="cls-6">T</tspan><tspan x="7.12" y="0">able output STG_PRODU</tspan><tspan class="cls-7" x="170.22" y="0">T</tspan><tspan x="178.66" y="0">O</tspan></text><text class="cls-5" transform="translate(648.28 288.37)">Select values</text><text class="cls-5" transform="translate(298.85 288.37)">Database lookup STG_T_SV_UNIDADE_MEDID<tspan class="cls-8" x="309.55" y="0">A</tspan></text><text class="cls-5" transform="translate(43.02 288.37)"><tspan class="cls-6">T</tspan><tspan x="7.12" y="0">able input STG_T_SV_PRODU</tspan><tspan class="cls-9" x="205.05" y="0">T</tspan><tspan x="213.5" y="0">O</tspan></text><path class="cls-10" d="M456,232.65c-4.31,0-7.81.93-7.81,2.08v15.85c0,1.15,3.5,2.08,7.81,2.08s7.82-.93,7.82-2.08V234.73C463.85,233.58,460.35,232.65,456,232.65Z"/><path class="cls-2" d="M448.22,234.82c0,1.15,3.5,2.08,7.81,2.08s7.82-.93,7.82-2.08"/><path class="cls-2" d="M448.22,239.32c0,1.15,3.5,2.08,7.81,2.08s7.82-.93,7.82-2.08"/><path class="cls-2" d="M448.22,245.07c0,1.15,3.5,2.08,7.81,2.08s7.82-.93,7.82-2.08"/><circle class="cls-1" cx="464.47" cy="251.98" r="6.49"/><circle class="cls-2" cx="464.36" cy="252.21" r="3.3"/><line class="cls-2" x1="466.74" y1="254.74" x2="469.67" y2="258.08"/></g></svg>