<svg xmlns="http://www.w3.org/2000/svg" viewBox="0 0 800 520"><defs><style>.cls-1{fill:#fff;}.cls-2,.cls-3{fill:none;stroke-miterlimit:10;stroke-width:2px;}.cls-2{stroke:#3d6480;}.cls-3{stroke:#e90419;}.cls-4{fill:#3d6480;}.cls-5,.cls-7{font-size:15.66px;font-family:ArialMT, Arial;}.cls-10,.cls-5,.cls-7{fill:#303030;}.cls-5,.cls-8{letter-spacing:-0.11em;}.cls-6{letter-spacing:0em;}.cls-9{letter-spacing:-0.02em;}.cls-10{font-size:21.26px;font-family:Arial-BoldMT, Arial;font-weight:700;}</style></defs><title>7-vetores-fase6-Smart-City-TDS-2019</title><g id="Layer_23" data-name="Layer 23"><rect class="cls-1" width="800" height="520"/><rect class="cls-2" x="152.98" y="258.84" width="42.62" height="42.62" rx="6" ry="6"/><rect class="cls-2" x="352.52" y="258.84" width="42.62" height="42.62" rx="6" ry="6"/><rect class="cls-2" x="578.14" y="258.84" width="42.62" height="42.62" rx="6" ry="6"/><rect class="cls-2" x="357.71" y="266.56" width="16.31" height="5.22"/><rect class="cls-2" x="357.71" y="274.06" width="31.64" height="5.22"/><rect class="cls-2" x="357.71" y="281.56" width="16.31" height="5.22"/><rect class="cls-2" x="357.71" y="289.06" width="31.64" height="5.22"/><line class="cls-3" x1="377.49" y1="266.56" x2="382.71" y2="271.78"/><line class="cls-3" x1="382.71" y1="266.56" x2="377.49" y2="271.78"/><line class="cls-3" x1="377.49" y1="281.56" x2="382.71" y2="286.78"/><line class="cls-3" x1="382.71" y1="281.56" x2="377.49" y2="286.78"/><line class="cls-2" x1="182.11" y1="289.33" x2="187.76" y2="295.36"/><path class="cls-4" d="M181.22,294a.4.4,0,0,1,.49-.28l5.93,1.52-1.13-6a.4.4,0,0,1,.32-.46.4.4,0,0,1,.47.32l1.24,6.63a.43.43,0,0,1-.12.37.41.41,0,0,1-.37.09l-6.54-1.68a.4.4,0,0,1-.19-.11A.43.43,0,0,1,181.22,294Z"/><line class="cls-2" x1="587.14" y1="267.01" x2="593.23" y2="273.48"/><path class="cls-4" d="M586.68,272.13a.41.41,0,0,1,.49-.29l5.93,1.51-1.14-6a.4.4,0,1,1,.79-.15l1.25,6.63a.4.4,0,0,1-.12.37.41.41,0,0,1-.37.09L587,272.62a.62.62,0,0,1-.19-.12A.41.41,0,0,1,586.68,272.13Z"/><polyline class="cls-2" points="597.72 270.97 611.2 270.97 611.2 293.37 588.8 293.37 588.8 280.32"/><line class="cls-2" x1="590.76" y1="278.58" x2="611.2" y2="278.58"/><line class="cls-2" x1="588.8" y1="286.19" x2="611.2" y2="286.19"/><line class="cls-2" x1="596.2" y1="278.58" x2="596.2" y2="293.37"/><line class="cls-2" x1="604.46" y1="278.58" x2="604.46" y2="293.37"/><polyline class="cls-2" points="176.45 291.28 162.97 291.28 162.97 268.89 185.36 268.89 185.36 281.93"/><line class="cls-2" x1="183.41" y1="283.67" x2="162.97" y2="283.67"/><line class="cls-2" x1="185.36" y1="276.06" x2="162.97" y2="276.06"/><line class="cls-2" x1="177.97" y1="283.67" x2="177.97" y2="268.89"/><line class="cls-2" x1="169.71" y1="283.67" x2="169.71" y2="268.89"/><line class="cls-2" x1="195.59" y1="281.23" x2="352.52" y2="281.23"/><line class="cls-2" x1="395.29" y1="281.23" x2="578.6" y2="281.23"/><polygon class="cls-4" points="293.4 281.13 288.61 274.06 307.53 281.23 288.61 288.19 293.4 281.13"/><polygon class="cls-4" points="505.22 281.13 500.43 274.06 519.35 281.23 500.43 288.19 505.22 281.13"/><text class="cls-5" transform="translate(456.34 327.32)">T<tspan class="cls-6" x="7.83" y="0">able output STG_T_SV_FUNCIONARIO</tspan></text><text class="cls-7" transform="translate(328.35 327.32)">Select values</text><text class="cls-7" transform="translate(55.67 327.32)"><tspan class="cls-8">T</tspan><tspan class="cls-6" x="7.83" y="0">able input</tspan><tspan class="cls-9" x="75.73" y="0"> </tspan><tspan x="79.79" y="0">T_SV_FUNCIONARIO</tspan></text><text class="cls-10" transform="translate(63.84 205.83)">TRANS_EXTRACT_FUNCIONARIO</text></g></svg>