<svg xmlns="http://www.w3.org/2000/svg" viewBox="0 0 800 520"><defs><style>.cls-1{fill:#fff;}.cls-2,.cls-3{fill:none;}.cls-2,.cls-5{stroke:#3d6480;}.cls-2,.cls-3,.cls-5{stroke-miterlimit:10;stroke-width:2px;}.cls-3{stroke:#e90419;}.cls-4{fill:#3d6480;}.cls-5{fill:#f4fdff;}.cls-6{font-size:23.23px;fill:#303030;font-family:ArialMT, Arial;}.cls-7{letter-spacing:-0.11em;}</style></defs><title>7-vetores-fase6-Smart-City-TDS-2019</title><g id="Layer_8" data-name="Layer 8"><rect class="cls-1" width="800" height="523.59"/><rect class="cls-2" x="124.4" y="209.29" width="63.23" height="63.23" rx="6" ry="6"/><rect class="cls-2" x="371.4" y="209.29" width="63.23" height="63.23" rx="6" ry="6"/><rect class="cls-2" x="624.21" y="209.29" width="63.23" height="63.23" rx="6" ry="6"/><rect class="cls-2" x="379.1" y="220.74" width="24.19" height="7.74"/><rect class="cls-2" x="379.1" y="231.87" width="46.94" height="7.74"/><rect class="cls-2" x="379.1" y="243" width="24.19" height="7.74"/><rect class="cls-2" x="379.1" y="254.13" width="46.94" height="7.74"/><line class="cls-3" x1="408.45" y1="220.74" x2="416.19" y2="228.48"/><line class="cls-3" x1="416.19" y1="220.74" x2="408.45" y2="228.48"/><line class="cls-3" x1="408.45" y1="243" x2="416.19" y2="250.74"/><line class="cls-3" x1="416.19" y1="243" x2="408.45" y2="250.74"/><line class="cls-2" x1="167.62" y1="256.07" x2="176.32" y2="265.36"/><path class="cls-4" d="M169.78,264a.4.4,0,0,1,.49-.28l5.93,1.52-1.13-6a.4.4,0,1,1,.79-.15l1.24,6.63a.43.43,0,0,1-.12.37.39.39,0,0,1-.37.09l-6.54-1.68a.45.45,0,0,1-.19-.11A.43.43,0,0,1,169.78,264Z"/><polyline class="cls-5" points="156.01 259.94 139.24 259.94 139.24 223.49 159.88 223.49 160.04 230.75 166.34 230.58 166.34 248.97"/><line class="cls-2" x1="146.01" y1="237.52" x2="160.69" y2="237.52"/><line class="cls-2" x1="146.01" y1="242.52" x2="160.69" y2="242.52"/><line class="cls-2" x1="146.01" y1="247.52" x2="149.56" y2="247.52"/><line class="cls-2" x1="631.39" y1="218.32" x2="640.73" y2="228.27"/><path class="cls-4" d="M634.19,226.91a.4.4,0,0,1,.48-.29l5.93,1.51-1.14-6a.4.4,0,1,1,.79-.15l1.26,6.63a.41.41,0,0,1-.12.37.4.4,0,0,1-.38.09l-6.54-1.66a.39.39,0,0,1-.19-.12A.38.38,0,0,1,634.19,226.91Z"/><polyline class="cls-2" points="651.71 225.74 671.71 225.74 671.71 258.97 638.48 258.97 638.48 239.61"/><line class="cls-2" x1="641.39" y1="237.03" x2="671.71" y2="237.03"/><line class="cls-2" x1="638.48" y1="248.32" x2="671.71" y2="248.32"/><line class="cls-2" x1="649.45" y1="237.03" x2="649.45" y2="258.97"/><line class="cls-2" x1="661.71" y1="237.03" x2="661.71" y2="258.97"/><text class="cls-6" transform="translate(587.79 303.17)"><tspan class="cls-7">T</tspan><tspan x="11.61" y="0">able output</tspan></text><text class="cls-6" transform="translate(341.73 303.17)">Select values</text><text class="cls-6" transform="translate(85.66 303.17)">CSV file input</text></g></svg>