<?xml version="1.0" encoding="utf-8"?>
<!-- Generator: Adobe Illustrator 21.0.0, SVG Export Plug-In . SVG Version: 6.00 Build 0)  -->
<svg version="1.1" id="Layer_1" xmlns="http://www.w3.org/2000/svg" xmlns:xlink="http://www.w3.org/1999/xlink" x="0px" y="0px"
	 width="1000px" height="650px" viewBox="0 0 1000 650" style="enable-background:new 0 0 1000 650;" xml:space="preserve">
<style type="text/css">
	.st0{fill:#FFFFFF;}
	.st1{fill:none;stroke:#3D6480;stroke-width:2;stroke-miterlimit:10;}
	.st2{fill:none;stroke:#E90419;stroke-width:2;stroke-miterlimit:10;}
	.st3{fill:#3D6480;}
	.st4{fill:#303030;}
	.st5{font-family:'Arial';}
	.st6{font-size:17.99px;}
	.st7{letter-spacing:-1;}
</style>
<title>7-vetores-fase6-Smart-City-TDS-2019</title>
<g id="Layer_34">
	<rect y="1" class="st0" width="1000" height="648"/>
	<path class="st1" d="M728.9,282.7h37c3.3,0,6,2.7,6,6v37c0,3.3-2.7,6-6,6h-37c-3.3,0-6-2.7-6-6v-37
		C722.9,285.4,725.6,282.7,728.9,282.7z"/>
	<path class="st1" d="M435,282.7h37c3.3,0,6,2.7,6,6v37c0,3.3-2.7,6-6,6h-37c-3.3,0-6-2.7-6-6v-37C429,285.4,431.7,282.7,435,282.7z
		"/>
	<rect x="434.9" y="291.6" class="st1" width="18.7" height="6"/>
	<rect x="434.9" y="300.2" class="st1" width="36.4" height="6"/>
	<rect x="434.9" y="308.8" class="st1" width="18.7" height="6"/>
	<rect x="434.9" y="317.5" class="st1" width="36.4" height="6"/>
	<line class="st2" x1="457.7" y1="291.6" x2="463.7" y2="297.6"/>
	<line class="st2" x1="463.7" y1="291.6" x2="457.7" y2="297.6"/>
	<line class="st2" x1="457.7" y1="308.8" x2="463.7" y2="314.8"/>
	<line class="st2" x1="463.7" y1="308.8" x2="457.7" y2="314.8"/>
	<path class="st1" d="M135.2,282.7h37c3.3,0,6,2.7,6,6v37c0,3.3-2.7,6-6,6h-37c-3.3,0-6-2.7-6-6v-37
		C129.2,285.4,131.9,282.7,135.2,282.7z"/>
	<line class="st1" x1="162.7" y1="317.8" x2="169.3" y2="324.8"/>
	<path class="st3" d="M162.7,323.4c0.1-0.2,0.3-0.3,0.5-0.3c0,0,0,0,0,0l5.9,1.5l-1.1-6c0-0.2,0.1-0.4,0.3-0.5c0,0,0,0,0,0
		c0.2,0,0.4,0.1,0.5,0.3l1.2,6.6c0,0.1,0,0.3-0.1,0.4c-0.1,0.1-0.2,0.1-0.4,0.1l-6.5-1.7c-0.1,0-0.1-0.1-0.2-0.1
		C162.7,323.7,162.7,323.6,162.7,323.4z"/>
	<polyline class="st1" points="156.1,320 140.7,320 140.7,294.3 166.4,294.3 166.4,309.3 	"/>
	<line class="st1" x1="164.1" y1="311.3" x2="140.6" y2="311.3"/>
	<line class="st1" x1="166.4" y1="302.5" x2="140.6" y2="302.5"/>
	<line class="st1" x1="157.9" y1="311.3" x2="157.9" y2="294.3"/>
	<line class="st1" x1="148.4" y1="311.3" x2="148.4" y2="294.3"/>
	<line class="st1" x1="478" y1="308.5" x2="721.7" y2="308.5"/>
	<line class="st1" x1="177.9" y1="308.5" x2="428.6" y2="308.5"/>
	<polygon class="st3" points="642.4,308.3 636.9,300.2 658.7,308.5 636.9,316.5 	"/>
	<polygon class="st3" points="360,308.3 354.5,300.2 376.3,308.5 354.5,316.5 	"/>
	<text transform="matrix(1 0 0 1 532.36 361.44)" class="st4 st5 st6">Dimension lookup/update DIM_VENDA_PROMOCAO</text>
	<text transform="matrix(1 0 0 1 399.96 361.44)" class="st4 st5 st6">Select values</text>
	<text transform="matrix(1 0 0 1 37.59 361.44)" class="st4 st5 st6 st7">T</text>
	<text transform="matrix(1 0 0 1 46.59 361.44)" class="st4 st5 st6">able input STG_PRODU</text>
	<text transform="matrix(1 0 0 1 241.61 361.44)" class="st4 st5 st6">T</text>
	<text transform="matrix(1 0 0 1 252.28 361.44)" class="st4 st5 st6">O</text>
	<polyline class="st1" points="734.2,295 734.2,321 749.7,321 	"/>
	<polygon class="st3" points="731.2,295.9 734.2,290.7 737.2,295.9 	"/>
	<line class="st1" x1="734.2" y1="321" x2="750.6" y2="304.6"/>
	<polygon class="st3" points="752.1,307.4 753.6,301.6 747.8,303.1 	"/>
	<circle class="st1" cx="757.1" cy="317.9" r="4.4"/>
	<line class="st1" x1="760.3" y1="321" x2="764" y2="325.5"/>
</g>
</svg>
