<svg xmlns="http://www.w3.org/2000/svg" viewBox="0 0 1000 520"><defs><style>.cls-1{fill:#fff;}.cls-2{fill:#ffeebf;}.cls-2,.cls-3{stroke:#305d8f;}.cls-19,.cls-2,.cls-3,.cls-4{stroke-miterlimit:10;}.cls-19,.cls-3,.cls-4{fill:none;}.cls-4{stroke:#303030;stroke-width:1.5px;}.cls-5,.cls-8{fill:#303030;}.cls-13,.cls-14,.cls-15,.cls-16,.cls-6,.cls-8{font-size:5.97px;font-family:ArialMT, Arial;}.cls-16,.cls-6{fill:#305d8f;}.cls-7{letter-spacing:-0.06em;}.cls-9{letter-spacing:-0.06em;}.cls-10,.cls-16{letter-spacing:-0.02em;}.cls-11{letter-spacing:-0.02em;}.cls-12{letter-spacing:0em;}.cls-13,.cls-14{fill:#51804c;}.cls-14{letter-spacing:-0.07em;}.cls-15{fill:#be1860;}.cls-17{fill:#bf8b00;}.cls-18{fill:gray;}.cls-19{stroke:#6c9f26;}.cls-20{fill:#6c9f26;}</style></defs><title>7-vetores-fase6-Smart-City-TDS-2019</title><g id="Layer_28" data-name="Layer 28"><rect class="cls-1" width="1000" height="520"/><rect class="cls-2" x="27.87" y="228.15" width="192.26" height="64.85"/><rect class="cls-2" x="256.54" y="224.16" width="156.43" height="71.67"/><rect class="cls-2" x="447.67" y="224.16" width="199.09" height="68.26"/><rect class="cls-2" x="683.16" y="224.16" width="143.91" height="68.83"/><rect class="cls-2" x="868.03" y="229.57" width="104.1" height="48.63"/><line class="cls-3" x1="27.87" y1="239.24" x2="220.14" y2="239.24"/><line class="cls-3" x1="27.87" y1="279.06" x2="220.14" y2="279.06"/><line class="cls-3" x1="256.54" y1="236.39" x2="412.97" y2="236.39"/><line class="cls-3" x1="256.54" y1="284.18" x2="412.97" y2="284.18"/><line class="cls-3" x1="447.67" y1="234.12" x2="646.76" y2="234.12"/><line class="cls-3" x1="447.67" y1="264.84" x2="646.76" y2="264.84"/><line class="cls-3" x1="447.67" y1="277.35" x2="646.76" y2="277.35"/><line class="cls-3" x1="683.16" y1="234.12" x2="827.08" y2="234.12"/><line class="cls-3" x1="683.16" y1="264.84" x2="827.08" y2="264.84"/><line class="cls-3" x1="683.16" y1="277.35" x2="827.08" y2="277.35"/><line class="cls-3" x1="868.03" y1="240.94" x2="972.13" y2="240.94"/><line class="cls-3" x1="868.03" y1="262.28" x2="972.13" y2="262.28"/><polyline class="cls-4" points="220.14 261.35 228.03 257.08 220.14 252.6"/><line class="cls-4" x1="220.14" y1="256.98" x2="252.24" y2="256.98"/><polygon class="cls-5" points="251.36 259.97 256.54 256.98 251.36 253.99 251.36 259.97"/><line class="cls-4" x1="229.52" y1="252.61" x2="229.52" y2="261.35"/><polyline class="cls-4" points="412.97 260.28 421.17 256.02 412.97 251.75"/><line class="cls-4" x1="412.97" y1="256.02" x2="443.36" y2="256.02"/><polygon class="cls-5" points="442.49 259.01 447.67 256.02 442.49 253.03 442.49 259.01"/><line class="cls-4" x1="422.14" y1="251.75" x2="422.14" y2="260.28"/><polyline class="cls-4" points="646.76 257.73 654.86 262.42 646.76 266.68"/><line class="cls-4" x1="646.76" y1="262.2" x2="678.86" y2="262.2"/><polygon class="cls-5" points="677.98 265.2 683.16 262.2 677.98 259.21 677.98 265.2"/><line class="cls-4" x1="656.14" y1="258.79" x2="656.14" y2="266.68"/><polyline class="cls-4" points="827.08 257.73 835.33 253.46 827.08 249.19"/><line class="cls-4" x1="827.01" y1="253.46" x2="863.73" y2="253.46"/><polygon class="cls-5" points="862.85 256.45 868.03 253.46 862.85 250.47 862.85 256.45"/><line class="cls-4" x1="836.61" y1="249.19" x2="836.61" y2="257.72"/><text class="cls-6" transform="translate(107.22 235.54)">T_SIV_LOJ<tspan class="cls-7" x="30.87" y="0">A</tspan></text><text class="cls-6" transform="translate(308.3 232.41)">T_SV_ENDERECO</text><text class="cls-6" transform="translate(517.51 230.42)">T_SV_LOGRADOURO</text><text class="cls-6" transform="translate(734.36 230.42)">T_SV_CIDADE</text><text class="cls-6" transform="translate(907.57 236.96)">T_SV_UF</text><text class="cls-8" transform="translate(44.65 248.34)">CD_LOJ<tspan class="cls-9" x="22.9" y="0">A</tspan></text><text class="cls-8" transform="translate(44.65 256.98)">NM_LOJ<tspan class="cls-9" x="23.56" y="0">A</tspan></text><text class="cls-8" transform="translate(44.65 265.62)">DS_LOJ<tspan class="cls-9" x="22.57" y="0">A</tspan></text><text class="cls-8" transform="translate(44.65 274.25)">CD_ENDERECO</text><text class="cls-8" transform="translate(272.75 244.92)">CD_ENDERECO</text><text class="cls-8" transform="translate(272.75 253.56)">NR_NUMERO</text><text class="cls-8" transform="translate(272.75 262.2)">NR_CE<tspan class="cls-10" x="20.25" y="0">P</tspan></text><text class="cls-8" transform="translate(465.58 243.22)">CD_LOGRADOURO</text><text class="cls-8" transform="translate(465.58 251.86)">NM_LOGRADOURO</text><text class="cls-8" transform="translate(465.58 260.5)">CD_CIDADE</text><text class="cls-8" transform="translate(699.94 243.22)">CD_CIDADE</text><text class="cls-8" transform="translate(699.94 251.86)">NM_CIDADE</text><text class="cls-8" transform="translate(885.81 249.24)">CD_UF</text><text class="cls-8" transform="translate(885.81 257.88)">SG_UF</text><text class="cls-8" transform="translate(699.94 260.5)">CD_UF</text><text class="cls-8" transform="translate(272.75 270.84)">NR_COMPLEMEN<tspan class="cls-11" x="50.44" y="0">T</tspan><tspan class="cls-12" x="53.98" y="0">O</tspan></text><text class="cls-8" transform="translate(272.75 279.91)">CD_LOGRADOURO</text><text class="cls-8" transform="translate(40.67 287.34)">T_SIV_LOJA_PK (CD_LOJA)</text><text class="cls-8" transform="translate(462.17 273.12)">T_SIV_LOGRADOURO_PK (CD_LOGRADOURO)</text><text class="cls-8" transform="translate(462.17 286.77)">T_SIV_LOGRADOURO_T_SIV_CIDADE_FK (CD_CIDADE)</text><text class="cls-8" transform="translate(695.68 273.12)">T_SIV_CIDADE_PK (CD_CIDADE)</text><text class="cls-8" transform="translate(695.68 286.77)">T_SIV_CIDADE_T_SIV_UF_FK (CD_UF)</text><text class="cls-8" transform="translate(272.75 292.14)">T_SIV_ENDERECO_PK (CD_ENDERECO)</text><text class="cls-8" transform="translate(880.69 271.7)">T_SIV_UF_PK (CD_UF)</text><text class="cls-13" transform="translate(107.22 248.34)">NUMBER</text><text class="cls-14" transform="translate(107.22 256.98)">V<tspan class="cls-12" x="3.54" y="0">ARCHAR2 (25 BYTE)</tspan></text><text class="cls-14" transform="translate(107.22 265.62)">V<tspan class="cls-12" x="3.54" y="0">ARCHAR2 (60 BYTE)</tspan></text><text class="cls-13" transform="translate(107.22 274.25)">NUMBER (9)</text><text class="cls-13" transform="translate(537.83 243.22)">NUMBER (9)</text><text class="cls-14" transform="translate(537.83 251.86)">V<tspan class="cls-12" x="3.54" y="0">ARCHAR2 (60)</tspan></text><text class="cls-13" transform="translate(537.83 260.5)">NUMBER (9)</text><text class="cls-13" transform="translate(920.08 249.24)">NUMBER (2)</text><text class="cls-14" transform="translate(920.08 257.88)">V<tspan class="cls-12" x="3.54" y="0">ARCHAR2 (2)</tspan></text><text class="cls-13" transform="translate(750.28 243.22)">NUMBER (9)</text><text class="cls-14" transform="translate(750.28 251.86)">V<tspan class="cls-12" x="3.54" y="0">ARCHAR2 (80)</tspan></text><text class="cls-13" transform="translate(750.28 260.5)">NUMBER (2)</text><text class="cls-14" transform="translate(351.89 262.2)">V<tspan class="cls-12" x="3.54" y="0">ARCHAR2 (10)</tspan></text><text class="cls-13" transform="translate(351.89 244.92)">NUMBER (9)</text><text class="cls-13" transform="translate(351.89 253.56)">NUMBER (6)</text><text class="cls-14" transform="translate(351.89 270.84)">V<tspan class="cls-12" x="3.54" y="0">ARCHAR2 (20)</tspan></text><text class="cls-13" transform="translate(351.89 279.91)">NUMBER (9)</text><text class="cls-15" transform="translate(37.82 248.34)">*</text><text class="cls-15" transform="translate(693.4 243.22)">*</text><text class="cls-15" transform="translate(878.7 249.24)">*</text><text class="cls-15" transform="translate(693.4 260.5)">*</text><text class="cls-15" transform="translate(458.47 243.22)">*</text><text class="cls-15" transform="translate(458.47 260.5)">*</text><text class="cls-15" transform="translate(266.28 244.92)">*</text><text class="cls-15" transform="translate(266.28 279.91)">*</text><text class="cls-15" transform="translate(37.82 274.25)">*</text><text class="cls-16" transform="translate(870.73 249.24)">P</text><text class="cls-16" transform="translate(686.57 243.22)">P</text><text class="cls-16" transform="translate(451.36 243.22)">P</text><text class="cls-16" transform="translate(258.81 244.92)">P</text><text class="cls-16" transform="translate(30.43 248.34)">P</text><text class="cls-8" transform="translate(686.58 260.5)">F</text><text class="cls-8" transform="translate(451.36 260.5)">F</text><text class="cls-8" transform="translate(258.81 279.91)">F</text><text class="cls-8" transform="translate(30.43 274.25)">F</text><polygon points="212.99 285.67 218.43 285.67 215.71 289.72 212.99 285.67"/><polygon points="405 287.38 410.45 287.38 407.73 291.43 405 287.38"/><path class="cls-17" d="M458.48,283.78l-.86-2.16H454a2.2,2.2,0,1,0-1.84,3.41,2.18,2.18,0,0,0,2-1.25Z"/><path class="cls-17" d="M693.5,284.35l-.85-2.17H689a2.21,2.21,0,1,0-1.84,3.42,2.19,2.19,0,0,0,2-1.25Z"/><path class="cls-18" d="M37.83,288.48,37,286.31H33.34a2.2,2.2,0,1,0-1.84,3.41,2.19,2.19,0,0,0,2-1.24Z"/><path class="cls-18" d="M268.2,292.39l-.86-2.17h-3.63a2.21,2.21,0,1,0,.13,2.17Z"/><path class="cls-18" d="M458.48,273.51l-.86-2.17H454a2.21,2.21,0,1,0,.13,2.17Z"/><path class="cls-18" d="M693.5,273.51l-.85-2.17H689a2.21,2.21,0,1,0,.13,2.17Z"/><path class="cls-18" d="M879.27,272.66l-.86-2.17h-3.63a2.2,2.2,0,1,0,.14,2.17Z"/><polyline class="cls-19" points="452.32 287.91 455.85 287.91 455.85 286.33"/><polygon class="cls-20" points="457.34 286.77 455.85 284.18 454.35 286.77 457.34 286.77"/><polyline class="cls-19" points="687.35 288.48 690.87 288.48 690.87 286.9"/><polygon class="cls-20" points="692.37 287.33 690.87 284.74 689.38 287.33 692.37 287.33"/></g></svg>