<svg xmlns="http://www.w3.org/2000/svg" viewBox="0 0 1000 520"><defs><style>.cls-1{fill:#fff;}.cls-2,.cls-3{fill:none;}.cls-2,.cls-5{stroke:#3d6480;}.cls-2,.cls-3,.cls-5{stroke-miterlimit:10;stroke-width:2px;}.cls-3{stroke:#e90419;}.cls-4{fill:#3d6480;}.cls-5{fill:#f4e4cb;}.cls-6{font-size:10.82px;fill:#303030;font-family:ArialMT, Arial;}.cls-7{letter-spacing:-0.11em;}.cls-8{letter-spacing:-0.06em;}</style></defs><title>7-vetores-fase6-Smart-City-TDS-2019</title><g id="Layer_29" data-name="Layer 29"><rect class="cls-1" width="1000" height="520"/><rect class="cls-2" x="213.43" y="281.54" width="33.4" height="33.4" rx="6" ry="6"/><rect class="cls-2" x="749.95" y="281.54" width="33.4" height="33.4" rx="6" ry="6"/><rect class="cls-2" x="879.62" y="183.93" width="33.4" height="33.4" rx="6" ry="6"/><rect class="cls-2" x="754.02" y="287.59" width="12.78" height="4.09"/><rect class="cls-2" x="754.02" y="293.47" width="24.8" height="4.09"/><rect class="cls-2" x="754.02" y="299.34" width="12.78" height="4.09"/><rect class="cls-2" x="754.02" y="305.22" width="24.8" height="4.09"/><line class="cls-3" x1="769.53" y1="287.59" x2="773.62" y2="291.68"/><line class="cls-3" x1="773.62" y1="287.59" x2="769.53" y2="291.68"/><line class="cls-3" x1="769.53" y1="299.34" x2="773.62" y2="303.44"/><line class="cls-3" x1="773.62" y1="299.34" x2="769.53" y2="303.44"/><line class="cls-2" x1="886.68" y1="190.34" x2="891.31" y2="195.26"/><path class="cls-4" d="M884.76,193.9a.4.4,0,0,1,.49-.28l5.93,1.51-1.14-6a.4.4,0,0,1,.79-.15l1.25,6.63a.39.39,0,0,1-.12.37.41.41,0,0,1-.37.1l-6.54-1.67a.45.45,0,0,1-.19-.11A.43.43,0,0,1,884.76,193.9Z"/><polyline class="cls-2" points="894.97 193.44 905.54 193.44 905.54 210.99 887.98 210.99 887.98 200.77"/><line class="cls-2" x1="889.52" y1="199.41" x2="905.54" y2="199.41"/><line class="cls-2" x1="887.98" y1="205.37" x2="905.54" y2="205.37"/><line class="cls-2" x1="893.78" y1="199.41" x2="893.78" y2="210.99"/><line class="cls-2" x1="900.25" y1="199.41" x2="900.25" y2="210.99"/><rect class="cls-2" x="99.58" y="183.34" width="33.4" height="33.4" rx="6" ry="6"/><line class="cls-2" x1="122.42" y1="207.23" x2="126.7" y2="211.81"/><path class="cls-4" d="M120.16,210.44a.4.4,0,0,1,.49-.28l5.93,1.52-1.13-6a.4.4,0,0,1,.79-.14l1.24,6.63a.38.38,0,0,1-.12.36.39.39,0,0,1-.37.1l-6.54-1.68a.45.45,0,0,1-.19-.11A.43.43,0,0,1,120.16,210.44Z"/><polyline class="cls-2" points="117.98 208.76 107.41 208.76 107.41 191.21 124.97 191.21 124.97 201.44"/><line class="cls-2" x1="123.43" y1="202.8" x2="107.41" y2="202.8"/><line class="cls-2" x1="124.97" y1="196.84" x2="107.41" y2="196.84"/><line class="cls-2" x1="119.17" y1="202.8" x2="119.17" y2="191.21"/><line class="cls-2" x1="112.7" y1="202.8" x2="112.7" y2="191.21"/><path class="cls-5" d="M228.46,287.21c-3.72,0-6.73.8-6.73,1.8v13.64c0,1,3,1.8,6.73,1.8s6.74-.8,6.74-1.8V289C235.2,288,232.18,287.21,228.46,287.21Z"/><path class="cls-2" d="M221.73,289.08c0,1,3,1.8,6.73,1.8s6.74-.81,6.74-1.8"/><path class="cls-2" d="M221.73,293c0,1,3,1.79,6.73,1.79s6.74-.8,6.74-1.79"/><path class="cls-2" d="M221.73,297.91c0,1,3,1.8,6.73,1.8s6.74-.81,6.74-1.8"/><circle class="cls-1" cx="235.73" cy="303.87" r="5.59"/><circle class="cls-2" cx="235.64" cy="304.06" r="2.85"/><line class="cls-2" x1="237.68" y1="306.24" x2="240.21" y2="309.12"/><rect class="cls-2" x="472.49" y="281.54" width="33.4" height="33.4" rx="6" ry="6"/><path class="cls-5" d="M487.52,287.21c-3.72,0-6.74.8-6.74,1.8v13.64c0,1,3,1.8,6.74,1.8s6.73-.8,6.73-1.8V289C494.25,288,491.24,287.21,487.52,287.21Z"/><path class="cls-2" d="M480.78,289.08c0,1,3,1.8,6.74,1.8s6.73-.81,6.73-1.8"/><path class="cls-2" d="M480.78,293c0,1,3,1.79,6.74,1.79s6.73-.8,6.73-1.79"/><path class="cls-2" d="M480.78,297.91c0,1,3,1.8,6.74,1.8s6.73-.81,6.73-1.8"/><circle class="cls-1" cx="494.79" cy="303.87" r="5.59"/><circle class="cls-2" cx="494.69" cy="304.06" r="2.85"/><line class="cls-2" x1="496.74" y1="306.24" x2="499.26" y2="309.12"/><rect class="cls-2" x="359.8" y="183.34" width="33.4" height="33.4" rx="6" ry="6"/><path class="cls-5" d="M374.82,189c-3.72,0-6.73.81-6.73,1.8v13.64c0,1,3,1.8,6.73,1.8s6.74-.8,6.74-1.8V190.81C381.56,189.82,378.54,189,374.82,189Z"/><path class="cls-2" d="M368.09,190.88c0,1,3,1.8,6.73,1.8s6.74-.81,6.74-1.8"/><path class="cls-2" d="M368.09,194.76c0,1,3,1.79,6.73,1.79s6.74-.8,6.74-1.79"/><path class="cls-2" d="M368.09,199.71c0,1,3,1.8,6.73,1.8s6.74-.81,6.74-1.8"/><circle class="cls-1" cx="382.09" cy="205.67" r="5.59"/><circle class="cls-2" cx="382" cy="205.86" r="2.85"/><line class="cls-2" x1="384.05" y1="208.04" x2="386.57" y2="210.92"/><rect class="cls-2" x="602.85" y="183.34" width="33.4" height="33.4" rx="6" ry="6"/><path class="cls-5" d="M617.88,189c-3.72,0-6.73.81-6.73,1.8v13.64c0,1,3,1.8,6.73,1.8s6.73-.8,6.73-1.8V190.81C624.61,189.82,621.6,189,617.88,189Z"/><path class="cls-2" d="M611.15,190.88c0,1,3,1.8,6.73,1.8s6.73-.81,6.73-1.8"/><path class="cls-2" d="M611.15,194.76c0,1,3,1.79,6.73,1.79s6.73-.8,6.73-1.79"/><path class="cls-2" d="M611.15,199.71c0,1,3,1.8,6.73,1.8s6.73-.81,6.73-1.8"/><circle class="cls-1" cx="625.15" cy="205.67" r="5.59"/><circle class="cls-2" cx="625.06" cy="205.86" r="2.85"/><line class="cls-2" x1="627.1" y1="208.04" x2="629.63" y2="210.92"/><polygon class="cls-4" points="193.9 266.6 187.81 254.72 186.01 260.66 180.6 262.83 193.9 266.6"/><polygon class="cls-4" points="322.01 237.16 323.27 244.13 328.45 232.86 315.6 234.21 322.01 237.16"/><polygon class="cls-4" points="452.86 267.25 447.9 254.27 445.67 260.76 440.01 262.61 452.86 267.25"/><polygon class="cls-4" points="572.54 237.81 572.54 244.58 578.18 233.31 566 234.66 572.54 237.81"/><polygon class="cls-4" points="719.12 266.54 711.83 254.49 711.83 261.65 705.07 264.41 719.12 266.54"/><polygon class="cls-4" points="848.86 238.04 848.86 244.8 855.58 232.8 842.33 234.88 848.86 238.04"/><line class="cls-2" x1="131.99" y1="212.51" x2="214.93" y2="284.97"/><line class="cls-2" x1="246.84" y1="284.97" x2="360.78" y2="212.51"/><line class="cls-2" x1="392.21" y1="212.51" x2="472.49" y2="284.97"/><line class="cls-2" x1="505.89" y1="287.21" x2="604.79" y2="213.88"/><line class="cls-2" x1="636.26" y1="210.99" x2="749.95" y2="287.21"/><line class="cls-2" x1="783.36" y1="287.21" x2="880.96" y2="213.67"/><text class="cls-6" transform="translate(44.72 236.23)"><tspan class="cls-7">T</tspan><tspan x="5.41" y="0">able input STG_T_SV_LOJ</tspan><tspan class="cls-8" x="136.5" y="0">A</tspan></text><text class="cls-6" transform="translate(264.66 236.23)">Database lookup STG_T_SV_LOGRADOURO</text><text class="cls-6" transform="translate(540.61 236.23)">Database lookup STG_T_SV_UF</text><text class="cls-6" transform="translate(837.99 236.23)"><tspan class="cls-7">T</tspan><tspan x="5.41" y="0">able output STG_LOJ</tspan><tspan class="cls-8" x="110.05" y="0">A</tspan></text><text class="cls-6" transform="translate(126.71 333.15)">Database lookup STG_T_SV_ENDERECO</text><text class="cls-6" transform="translate(394.64 333.15)">Database lookup STG_T_SV_CIDADE</text><text class="cls-6" transform="translate(734.69 333.15)">Select values</text></g></svg>