<svg xmlns="http://www.w3.org/2000/svg" viewBox="0 0 1000 520"><defs><style>.cls-1,.cls-4{fill:#fff;}.cls-10,.cls-11,.cls-2,.cls-3,.cls-5{fill:none;}.cls-2{stroke:#0bb20e;}.cls-10,.cls-11,.cls-2,.cls-3,.cls-4,.cls-5{stroke-miterlimit:10;stroke-width:2px;}.cls-3{stroke:#39617d;}.cls-4,.cls-5{stroke:#fa9e12;}.cls-6{fill:#39617d;}.cls-7{fill:#0bb20e;}.cls-8{fill:#ea0f29;}.cls-9{fill:#09b10c;}.cls-10{stroke:#fff;}.cls-11{stroke:#ea0f29;}.cls-12{font-size:11.37px;fill:#303030;font-family:ArialMT, Arial;}.cls-13{letter-spacing:-0.07em;}.cls-14{letter-spacing:0em;}.cls-15{letter-spacing:-0.02em;}.cls-16{letter-spacing:-0.07em;}.cls-17{letter-spacing:-0.06em;}.cls-18{letter-spacing:-0.04em;}</style></defs><title>7-vetores-fase6-Smart-City-TDS-2019</title><g id="Layer_35" data-name="Layer 35"><rect class="cls-1" width="1000" height="520"/><line class="cls-2" x1="178.2" y1="288.82" x2="492.67" y2="288.82"/><line class="cls-3" x1="178.2" y1="99.84" x2="366.37" y2="99.84"/><line class="cls-2" x1="400.08" y1="99.84" x2="760.05" y2="99.84"/><line class="cls-2" x1="525.97" y1="288.57" x2="761.67" y2="288.57"/><line class="cls-2" x1="760.05" y1="106.14" x2="178.2" y2="283.33"/><rect class="cls-3" x="144.9" y="82.65" width="33.3" height="33.3" rx="3" ry="3"/><rect class="cls-3" x="366.37" y="82.65" width="33.3" height="33.3" rx="3" ry="3"/><polygon class="cls-2" points="153.56 91.45 153.56 107.16 169.54 99.3 153.56 91.45"/><rect class="cls-4" x="244.6" y="98.42" width="9.75" height="8.53"/><path class="cls-5" d="M249.47,91.93h0a3.25,3.25,0,0,1,3.25,3.25v3.25a0,0,0,0,1,0,0h-6.5a0,0,0,0,1,0,0V95.17A3.25,3.25,0,0,1,249.47,91.93Z"/><line class="cls-5" x1="249.47" y1="101.54" x2="249.47" y2="103.43"/><polygon class="cls-6" points="298.14 106.14 301.12 99.78 298.14 93.55 312.08 99.84 298.14 106.14"/><polygon class="cls-7" points="379.36 294.87 382.34 288.51 379.36 282.28 393.31 288.57 379.36 294.87"/><polygon class="cls-7" points="676.14 294.87 679.12 288.51 676.14 282.28 690.08 288.57 676.14 294.87"/><polygon class="cls-8" points="515.46 371.7 509.1 374.68 502.87 371.7 509.16 385.65 515.46 371.7"/><polygon class="cls-7" points="387.91 225.92 383.1 220.8 384 213.95 372.7 224.27 387.91 225.92"/><polygon class="cls-7" points="634 106.14 636.97 99.78 634 93.55 647.94 99.84 634 106.14"/><line class="cls-2" x1="374.29" y1="89.25" x2="381.39" y2="96.97"/><line class="cls-2" x1="374.29" y1="108.81" x2="381.39" y2="101.1"/><line class="cls-2" x1="391.64" y1="89.25" x2="384.53" y2="96.97"/><line class="cls-2" x1="391.64" y1="108.81" x2="384.53" y2="101.1"/><polyline class="cls-2" points="384.53 91.15 384.53 96.97 389.92 96.97"/><polyline class="cls-2" points="381.39 91.15 381.39 96.97 376 96.97"/><polyline class="cls-2" points="384.53 106.92 384.53 101.1 389.92 101.1"/><polyline class="cls-2" points="381.39 106.92 381.39 101.1 376 101.1"/><rect class="cls-3" x="760.16" y="82.65" width="33.3" height="33.3" rx="3" ry="3"/><line class="cls-2" x1="768.08" y1="89.25" x2="775.19" y2="96.97"/><line class="cls-2" x1="768.08" y1="108.81" x2="775.19" y2="101.1"/><line class="cls-2" x1="785.43" y1="89.25" x2="778.32" y2="96.97"/><line class="cls-2" x1="785.43" y1="108.81" x2="778.32" y2="101.1"/><polyline class="cls-2" points="778.33 91.15 778.33 96.97 783.72 96.97"/><polyline class="cls-2" points="775.19 91.15 775.19 96.97 769.8 96.97"/><polyline class="cls-2" points="778.33 106.92 778.33 101.1 783.72 101.1"/><polyline class="cls-2" points="775.19 106.92 775.19 101.1 769.8 101.1"/><rect class="cls-3" x="144.9" y="271.92" width="33.3" height="33.3" rx="3" ry="3"/><line class="cls-2" x1="152.82" y1="278.52" x2="159.93" y2="286.24"/><line class="cls-2" x1="152.82" y1="298.08" x2="159.93" y2="290.37"/><line class="cls-2" x1="170.17" y1="278.52" x2="163.06" y2="286.24"/><line class="cls-2" x1="170.17" y1="298.08" x2="163.06" y2="290.37"/><polyline class="cls-2" points="163.06 280.42 163.06 286.24 168.46 286.24"/><polyline class="cls-2" points="159.93 280.42 159.93 286.24 154.53 286.24"/><polyline class="cls-2" points="163.06 296.19 163.06 290.37 168.46 290.37"/><polyline class="cls-2" points="159.93 296.19 159.93 290.37 154.53 290.37"/><rect class="cls-3" x="492.67" y="271.92" width="33.3" height="33.3" rx="3" ry="3"/><rect class="cls-3" x="761.67" y="271.92" width="33.3" height="33.3" rx="3" ry="3"/><line class="cls-2" x1="500.59" y1="278.52" x2="507.7" y2="286.24"/><line class="cls-2" x1="500.59" y1="298.08" x2="507.7" y2="290.37"/><line class="cls-2" x1="517.94" y1="278.52" x2="510.83" y2="286.24"/><line class="cls-2" x1="517.94" y1="298.08" x2="510.83" y2="290.37"/><polyline class="cls-2" points="510.83 280.42 510.83 286.24 516.22 286.24"/><polyline class="cls-2" points="507.69 280.42 507.69 286.24 502.3 286.24"/><polyline class="cls-2" points="510.83 296.19 510.83 290.37 516.22 290.37"/><polyline class="cls-2" points="507.69 296.19 507.69 290.37 502.3 290.37"/><rect class="cls-3" x="769.03" y="282.33" width="18.28" height="13"/><polyline class="cls-3" points="769.03 282.32 778.33 291.26 787.3 282.32"/><rect class="cls-3" x="492.67" y="414.54" width="33.3" height="33.3" rx="3" ry="3"/><rect class="cls-3" x="500.03" y="424.94" width="18.28" height="13"/><polyline class="cls-3" points="500.02 424.94 509.32 433.87 518.3 424.94"/><circle class="cls-9" cx="540.64" cy="99.5" r="7.97"/><polyline class="cls-10" points="536.68 98.69 539.93 101.73 544.6 97.26"/><circle class="cls-9" cx="531.05" cy="174.05" r="7.97"/><polyline class="cls-10" points="527.09 173.23 530.34 176.28 535.01 171.81"/><circle class="cls-9" cx="300.2" cy="288.82" r="7.97"/><polyline class="cls-10" points="296.24 288.01 299.49 291.06 304.16 286.59"/><circle class="cls-9" cx="615.08" cy="288.82" r="7.97"/><polyline class="cls-10" points="611.12 288.01 614.37 291.06 619.04 286.59"/><line class="cls-11" x1="509.16" y1="305.22" x2="509.16" y2="414.54"/><circle class="cls-8" cx="509.32" cy="345.07" r="7.97"/><line class="cls-10" x1="506.21" y1="341.82" x2="512.16" y2="348.05"/><line class="cls-10" x1="512.16" y1="341.82" x2="506.21" y2="348.05"/><text class="cls-12" transform="translate(143.54 131.45)">S<tspan class="cls-13" x="7.58" y="0">T</tspan><tspan class="cls-14" x="13.69" y="0">A</tspan><tspan class="cls-15" x="21.27" y="0">RT</tspan></text><text class="cls-12" transform="translate(243.09 131.45)">FUNCIONARIO-DE<tspan class="cls-13" x="99.18" y="0">P</tspan><tspan class="cls-14" x="105.92" y="0">A</tspan><tspan class="cls-15" x="113.51" y="0">R</tspan><tspan class="cls-16" x="121.51" y="0">T</tspan><tspan class="cls-14" x="127.62" y="0">AMEN</tspan><tspan class="cls-15" x="160.47" y="0">T</tspan><tspan x="167.21" y="0">O-MER-S</tspan><tspan class="cls-16" x="216.48" y="0">T</tspan><tspan class="cls-14" x="222.58" y="0">AGING</tspan></text><text class="cls-12" transform="translate(606.86 131.45)">FUNCIONARIO-DE<tspan class="cls-13" x="99.18" y="0">P</tspan><tspan class="cls-14" x="105.92" y="0">A</tspan><tspan class="cls-15" x="113.51" y="0">R</tspan><tspan class="cls-16" x="121.51" y="0">T</tspan><tspan class="cls-14" x="127.62" y="0">AMEN</tspan><tspan class="cls-15" x="160.47" y="0">T</tspan><tspan x="167.21" y="0">O-DESNORMALIZACAO-S</tspan><tspan class="cls-16" x="305.57" y="0">T</tspan><tspan class="cls-14" x="311.67" y="0">AGING</tspan></text><text class="cls-12" transform="translate(44.82 321.2)">FUNCIONARIO-DECODE-CONC<tspan class="cls-13" x="169.3" y="0">A</tspan><tspan class="cls-17" x="176.04" y="0">T</tspan><tspan x="182.36" y="0">-S</tspan><tspan class="cls-13" x="193.73" y="0">T</tspan><tspan x="199.83" y="0">AGING</tspan></text><text class="cls-12" transform="translate(427.04 321.2)">FUNCIONARIO-DIMENSIONA<tspan class="cls-18" x="155.41" y="0">L</tspan></text><text class="cls-12" transform="translate(759.18 321.2)">Mail OK</text></g></svg>