<svg xmlns="http://www.w3.org/2000/svg" viewBox="0 0 800 520"><defs><style>.cls-1{fill:#fff;}.cls-2,.cls-3,.cls-7,.cls-8{fill:none;}.cls-2,.cls-5{stroke:#3d6480;}.cls-2,.cls-3,.cls-5,.cls-7,.cls-8{stroke-miterlimit:10;}.cls-2,.cls-3,.cls-5,.cls-8{stroke-width:2px;}.cls-3{stroke:#e90419;}.cls-4{fill:#3d6480;}.cls-5{fill:#f4fdff;}.cls-6{fill:#09b10c;}.cls-7{stroke:#fff;stroke-width:3px;}.cls-8{stroke:#ef1651;}.cls-9{fill:#ef1651;}.cls-10{font-size:28.7px;font-family:Arial-BoldMT, Arial;font-weight:700;}.cls-10,.cls-11,.cls-13{fill:#303030;}.cls-11,.cls-13{font-size:19.81px;font-family:ArialMT, Arial;}.cls-11{letter-spacing:-0.11em;}.cls-12{letter-spacing:0em;}</style></defs><title>7-vetores-fase6-Smart-City-TDS-2019</title><g id="Layer_6" data-name="Layer 6"><rect class="cls-1" width="800" height="520"/><rect class="cls-2" x="127.89" y="180.38" width="53.93" height="53.93" rx="6" ry="6"/><rect class="cls-2" x="375.61" y="180.38" width="53.93" height="53.93" rx="6" ry="6"/><rect class="cls-2" x="628.28" y="180.38" width="53.93" height="53.93" rx="6" ry="6"/><rect class="cls-2" x="382.17" y="190.14" width="20.63" height="6.6"/><rect class="cls-2" x="382.17" y="199.64" width="40.03" height="6.6"/><rect class="cls-2" x="382.17" y="209.13" width="20.63" height="6.6"/><rect class="cls-2" x="382.17" y="218.62" width="40.03" height="6.6"/><line class="cls-3" x1="407.21" y1="190.14" x2="413.81" y2="196.75"/><line class="cls-3" x1="413.81" y1="190.14" x2="407.21" y2="196.75"/><line class="cls-3" x1="407.21" y1="209.13" x2="413.81" y2="215.73"/><line class="cls-3" x1="413.81" y1="209.13" x2="407.21" y2="215.73"/><line class="cls-2" x1="164.76" y1="220.27" x2="172.08" y2="228.1"/><path class="cls-4" d="M165.54,226.73a.4.4,0,0,1,.49-.29L172,228l-1.12-6a.4.4,0,1,1,.78-.15l1.24,6.63a.39.39,0,0,1-.12.37.42.42,0,0,1-.37.1l-6.53-1.68a.45.45,0,0,1-.2-.12A.38.38,0,0,1,165.54,226.73Z"/><polyline class="cls-5" points="154.85 223.57 140.54 223.57 140.54 192.48 158.15 192.48 158.29 198.68 163.66 198.54 163.66 214.22"/><line class="cls-2" x1="146.32" y1="204.45" x2="158.84" y2="204.45"/><line class="cls-2" x1="146.32" y1="208.72" x2="158.84" y2="208.72"/><line class="cls-2" x1="146.32" y1="212.98" x2="149.35" y2="212.98"/><line class="cls-2" x1="634.4" y1="188.08" x2="642.27" y2="196.46"/><path class="cls-4" d="M635.73,195.1a.41.41,0,0,1,.49-.29l5.93,1.52-1.14-6a.41.41,0,0,1,.32-.47.4.4,0,0,1,.46.32l1.26,6.63a.41.41,0,0,1-.12.37.42.42,0,0,1-.37.1L636,195.59a.4.4,0,0,1-.19-.11A.4.4,0,0,1,635.73,195.1Z"/><polyline class="cls-2" points="651.73 194.41 668.79 194.41 668.79 222.75 640.45 222.75 640.45 206.24"/><line class="cls-2" x1="642.93" y1="204.04" x2="668.79" y2="204.04"/><line class="cls-2" x1="640.45" y1="213.67" x2="668.79" y2="213.67"/><line class="cls-2" x1="649.81" y1="204.04" x2="649.81" y2="222.75"/><line class="cls-2" x1="660.26" y1="204.04" x2="660.26" y2="222.75"/><circle class="cls-6" cx="679.8" cy="182.92" r="12.45"/><polyline class="cls-7" points="673.58 181.64 678.44 186.43 686.4 179.28"/><circle class="cls-6" cx="429.53" cy="182.92" r="12.45"/><polyline class="cls-7" points="423.32 181.64 428.18 186.43 436.14 179.28"/><circle class="cls-6" cx="179.34" cy="182.92" r="12.45"/><polyline class="cls-7" points="173.12 181.64 177.98 186.43 185.94 179.28"/><line class="cls-2" x1="181.81" y1="208.72" x2="375.61" y2="208.72"/><line class="cls-2" x1="429.73" y1="208.72" x2="628.86" y2="208.72"/><line class="cls-8" x1="414.16" y1="269.79" x2="414.16" y2="394.46"/><polygon class="cls-9" points="410.17 393.3 414.16 400.2 418.15 393.3 410.17 393.3"/><line class="cls-8" x1="175.76" y1="269.79" x2="377.68" y2="398.77"/><polygon class="cls-9" points="374.55 401.5 382.52 401.86 378.85 394.78 374.55 401.5"/><line class="cls-8" x1="441.74" y1="398.57" x2="636.05" y2="263.19"/><polygon class="cls-9" points="444.98 401.18 437.03 401.86 440.42 394.63 444.98 401.18"/><line class="cls-8" x1="280.79" y1="195.37" x2="379.65" y2="118.16"/><polygon class="cls-9" points="381.18 122.02 384.17 114.62 376.27 115.73 381.18 122.02"/><line class="cls-8" x1="442.76" y1="118.16" x2="541.61" y2="195.37"/><polygon class="cls-9" points="441.22 122.02 438.23 114.62 446.13 115.73 441.22 122.02"/><polygon class="cls-4" points="310.02 208.58 303.97 199.64 327.91 208.72 303.97 217.52 310.02 208.58"/><polygon class="cls-4" points="562.59 208.58 556.54 199.64 580.48 208.72 556.54 217.52 562.59 208.58"/><text class="cls-10" transform="translate(375.9 91.33)">Hops</text><text class="cls-10" transform="translate(372.7 442.49)">Steps</text><text class="cls-11" transform="translate(597.22 260.44)">T<tspan class="cls-12" x="9.9" y="0">able output</tspan></text><text class="cls-13" transform="translate(350.3 260.44)">Select values</text><text class="cls-13" transform="translate(94.85 260.44)">CSV file input</text></g></svg>