<svg xmlns="http://www.w3.org/2000/svg" viewBox="0 0 800 520"><defs><style>.cls-1{fill:#fff;}.cls-2,.cls-3,.cls-9{fill:none;stroke-miterlimit:10;}.cls-2{stroke:#3d6480;}.cls-2,.cls-3{stroke-width:2px;}.cls-3{stroke:#e90419;}.cls-4{fill:#3d6480;}.cls-5{font-size:15.03px;fill:#303030;font-family:ArialMT, Arial;}.cls-6{letter-spacing:-0.11em;}.cls-7{letter-spacing:-0.06em;}.cls-8{letter-spacing:-0.02em;}.cls-9{stroke:#fff;stroke-width:3px;}.cls-10{letter-spacing:0em;}</style></defs><title>7-vetores-fase6-Smart-City-TDS-2019</title><g id="Layer_21" data-name="Layer 21"><rect class="cls-1" x="-0.53" width="800.53" height="520"/><rect class="cls-2" x="156.14" y="162.83" width="40.92" height="40.92" rx="6" ry="6"/><rect class="cls-2" x="364.09" y="162.83" width="40.92" height="40.92" rx="6" ry="6"/><rect class="cls-2" x="577.8" y="162.83" width="40.92" height="40.92" rx="6" ry="6"/><rect class="cls-2" x="369.07" y="170.24" width="15.66" height="5.01"/><rect class="cls-2" x="369.07" y="177.44" width="30.37" height="5.01"/><rect class="cls-2" x="369.07" y="184.64" width="15.66" height="5.01"/><rect class="cls-2" x="369.07" y="191.85" width="30.37" height="5.01"/><line class="cls-3" x1="388.07" y1="170.24" x2="393.08" y2="175.25"/><line class="cls-3" x1="393.08" y1="170.24" x2="388.07" y2="175.25"/><line class="cls-3" x1="388.07" y1="184.64" x2="393.08" y2="189.65"/><line class="cls-3" x1="393.08" y1="184.64" x2="388.07" y2="189.65"/><line class="cls-2" x1="184.11" y1="192.1" x2="189.51" y2="197.87"/><path class="cls-4" d="M183,196.5a.39.39,0,0,1,.48-.29l5.93,1.52-1.13-6a.4.4,0,0,1,.79-.15l1.24,6.63a.39.39,0,0,1-.49.46L183.25,197a.45.45,0,0,1-.19-.11A.39.39,0,0,1,183,196.5Z"/><line class="cls-2" x1="586.45" y1="170.67" x2="592.26" y2="176.86"/><path class="cls-4" d="M585.72,175.51a.39.39,0,0,1,.48-.29l5.93,1.51-1.13-6a.4.4,0,1,1,.78-.15L593,177.2a.4.4,0,0,1-.12.36.39.39,0,0,1-.37.1L586,176a.43.43,0,0,1-.2-.11A.39.39,0,0,1,585.72,175.51Z"/><polyline class="cls-2" points="596.6 174.47 609.54 174.47 609.54 195.98 588.04 195.98 588.04 183.45"/><line class="cls-2" x1="589.92" y1="181.78" x2="609.54" y2="181.78"/><line class="cls-2" x1="588.04" y1="189.09" x2="609.54" y2="189.09"/><line class="cls-2" x1="595.14" y1="181.78" x2="595.14" y2="195.98"/><line class="cls-2" x1="603.07" y1="181.78" x2="603.07" y2="195.98"/><polyline class="cls-2" points="178.67 193.98 165.73 193.98 165.73 172.47 187.23 172.47 187.23 185"/><line class="cls-2" x1="185.35" y1="186.67" x2="165.73" y2="186.67"/><line class="cls-2" x1="187.23" y1="179.36" x2="165.73" y2="179.36"/><line class="cls-2" x1="180.13" y1="186.67" x2="180.13" y2="172.48"/><line class="cls-2" x1="172.2" y1="186.67" x2="172.2" y2="172.48"/><line class="cls-2" x1="197.05" y1="184.33" x2="364.09" y2="184.33"/><line class="cls-2" x1="405.15" y1="184.33" x2="578.25" y2="184.33"/><polygon class="cls-4" points="307.33 184.23 302.74 177.44 320.9 184.33 302.74 191.01 307.33 184.23"/><polygon class="cls-4" points="519.96 184.23 515.37 177.44 533.53 184.33 515.37 191.01 519.96 184.23"/><text class="cls-5" transform="translate(445.73 228.58)"><tspan class="cls-6">T</tspan><tspan x="7.51" y="0">able output STG_T_SV_UNIDADE_MEDID</tspan><tspan class="cls-7" x="295.71" y="0">A</tspan></text><text class="cls-5" transform="translate(340.89 228.58)">Select values</text><text class="cls-5" transform="translate(48.51 228.58)"><tspan class="cls-6">T</tspan><tspan x="7.51" y="0">able input</tspan><tspan class="cls-8" x="72.7" y="0"> </tspan><tspan x="76.6" y="0">T_SV_UNIDADE_MEDID</tspan><tspan class="cls-7" x="246.98" y="0">A</tspan></text><rect class="cls-2" x="156.14" y="285.54" width="40.92" height="40.92" rx="6" ry="6"/><rect class="cls-2" x="364.09" y="285.54" width="40.92" height="40.92" rx="6" ry="6"/><rect class="cls-2" x="577.8" y="285.54" width="40.92" height="40.92" rx="6" ry="6"/><rect class="cls-2" x="369.07" y="292.95" width="15.66" height="5.01"/><rect class="cls-2" x="369.07" y="300.16" width="30.37" height="5.01"/><rect class="cls-2" x="369.07" y="307.36" width="15.66" height="5.01"/><rect class="cls-2" x="369.07" y="314.56" width="30.37" height="5.01"/><line class="cls-3" x1="388.07" y1="292.95" x2="393.08" y2="297.96"/><line class="cls-3" x1="393.08" y1="292.95" x2="388.07" y2="297.96"/><line class="cls-3" x1="388.07" y1="307.36" x2="393.08" y2="312.37"/><line class="cls-3" x1="393.08" y1="307.36" x2="388.07" y2="312.37"/><line class="cls-2" x1="183.11" y1="313.81" x2="188.51" y2="319.58"/><path class="cls-4" d="M182,318.21a.4.4,0,0,1,.48-.29l5.93,1.53-1.13-6a.4.4,0,0,1,.79-.15l1.24,6.64a.38.38,0,0,1-.12.36.39.39,0,0,1-.37.1l-6.54-1.68a.39.39,0,0,1-.19-.12A.38.38,0,0,1,182,318.21Z"/><line class="cls-2" x1="586.45" y1="294.39" x2="592.26" y2="300.58"/><path class="cls-4" d="M585.72,299.22a.4.4,0,0,1,.48-.29l5.93,1.51-1.13-6a.4.4,0,0,1,.31-.47.41.41,0,0,1,.47.32l1.26,6.63a.43.43,0,0,1-.12.37.39.39,0,0,1-.37.09L586,299.71a.4.4,0,0,1-.29-.49Z"/><polyline class="cls-2" points="597.6 298.19 610.54 298.19 610.54 319.69 589.04 319.69 589.04 307.17"/><line class="cls-2" x1="590.92" y1="305.5" x2="610.54" y2="305.5"/><line class="cls-2" x1="589.04" y1="312.8" x2="610.54" y2="312.8"/><line class="cls-2" x1="596.14" y1="305.5" x2="596.14" y2="319.69"/><line class="cls-2" x1="604.07" y1="305.5" x2="604.07" y2="319.69"/><polyline class="cls-2" points="178.67 316.69 165.73 316.69 165.73 295.19 187.23 295.19 187.23 307.71"/><line class="cls-2" x1="185.35" y1="309.38" x2="165.73" y2="309.38"/><line class="cls-2" x1="187.23" y1="302.08" x2="165.73" y2="302.08"/><line class="cls-2" x1="180.13" y1="309.38" x2="180.13" y2="295.19"/><line class="cls-2" x1="172.2" y1="309.38" x2="172.2" y2="295.19"/><polyline class="cls-9" points="190.46 286.5 194.14 290.13 200.18 284.71"/><line class="cls-2" x1="197.05" y1="307.04" x2="364.09" y2="307.04"/><line class="cls-2" x1="405.15" y1="307.04" x2="578.25" y2="307.04"/><polygon class="cls-4" points="307.33 306.94 302.74 300.15 320.9 307.04 302.74 313.72 307.33 306.94"/><polygon class="cls-4" points="519.96 306.94 515.37 300.15 533.53 307.04 515.37 313.72 519.96 306.94"/><text class="cls-5" transform="translate(475.11 352.29)"><tspan class="cls-6">T</tspan><tspan x="7.51" y="0">able output STG_T_SV_PRODU</tspan><tspan class="cls-8" x="225.55" y="0">T</tspan><tspan class="cls-10" x="234.46" y="0">O</tspan></text><text class="cls-5" transform="translate(333.62 352.29)">Select values 2</text><text class="cls-5" transform="translate(77.88 352.29)"><tspan class="cls-6">T</tspan><tspan x="7.51" y="0">able input</tspan><tspan class="cls-8" x="72.7" y="0"> </tspan><tspan x="76.6" y="0">T_SV_PRODU</tspan><tspan class="cls-8" x="176.83" y="0">T</tspan><tspan class="cls-10" x="185.74" y="0">O</tspan></text></g></svg>