<svg xmlns="http://www.w3.org/2000/svg" viewBox="0 0 1000 784.09"><defs><style>.cls-1{fill:#fff;}.cls-2{fill:#ffeebf;}.cls-2,.cls-3{stroke:#305d8f;}.cls-2,.cls-26,.cls-29,.cls-3,.cls-4{stroke-miterlimit:10;}.cls-29,.cls-3,.cls-4{fill:none;}.cls-4{stroke:#303030;stroke-width:1.5px;}.cls-5,.cls-7{fill:#303030;}.cls-22,.cls-23,.cls-24,.cls-6,.cls-7,.cls-8,.cls-9{font-size:8.05px;font-family:ArialMT, Arial;}.cls-25,.cls-6,.cls-8{fill:#305d8f;}.cls-10,.cls-6,.cls-9{letter-spacing:-0.02em;}.cls-9{fill:#203e60;}.cls-11{letter-spacing:-0.06em;}.cls-12,.cls-24{letter-spacing:-0.07em;}.cls-13{letter-spacing:0em;}.cls-14{letter-spacing:-0.06em;}.cls-15{letter-spacing:-0.04em;}.cls-16{letter-spacing:-0.04em;}.cls-17{letter-spacing:-0.02em;}.cls-18{letter-spacing:-0.07em;}.cls-19{letter-spacing:-0.02em;}.cls-20{letter-spacing:0em;}.cls-21{letter-spacing:-0.06em;}.cls-22{fill:#be1860;}.cls-23,.cls-24{fill:#51804c;}.cls-26{fill:#00c4ff;stroke:#999;}.cls-27{fill:gray;}.cls-28{fill:#bf8b00;}.cls-29{stroke:#6c9f26;}.cls-30{fill:#6c9f26;}</style></defs><title>7-vetores-fase6-Smart-City-TDS-2019</title><g id="Layer_13" data-name="Layer 13"><rect class="cls-1" width="1000" height="784.09"/><rect class="cls-2" x="43.96" y="62.52" width="255.7" height="120.8"/><rect class="cls-2" x="388.26" y="43.73" width="252.35" height="112.75"/><rect class="cls-2" x="375.56" y="172.58" width="287.19" height="99.33"/><rect class="cls-2" x="704.36" y="247.75" width="251.68" height="71.81"/><rect class="cls-2" x="409.06" y="298.09" width="241.61" height="133.56"/><rect class="cls-2" x="733.22" y="355.13" width="212.08" height="159.06"/><rect class="cls-2" x="758.72" y="548.42" width="181.88" height="81.21"/><rect class="cls-2" x="383.56" y="465.87" width="298.66" height="161.07"/><rect class="cls-2" x="98.32" y="261.17" width="149.83" height="73.15"/><rect class="cls-2" x="47.32" y="388.02" width="250.33" height="87.92"/><rect class="cls-2" x="75.51" y="510.84" width="204.7" height="92.62"/><rect class="cls-2" x="55.37" y="639.03" width="257.72" height="90.6"/><rect class="cls-2" x="447.99" y="650.43" width="187.92" height="89.93"/><rect class="cls-2" x="781.54" y="660.5" width="133.56" height="61.74"/><line class="cls-3" x1="43.96" y1="77.28" x2="299.67" y2="77.28"/><line class="cls-3" x1="43.96" y1="151.78" x2="299.67" y2="151.78"/><line class="cls-3" x1="43.96" y1="179.3" x2="299.67" y2="179.3"/><line class="cls-3" x1="388.26" y1="59.83" x2="640.6" y2="59.83"/><line class="cls-3" x1="388.26" y1="100.1" x2="640.6" y2="100.1"/><line class="cls-3" x1="388.26" y1="127.62" x2="640.6" y2="127.62"/><line class="cls-3" x1="375.56" y1="187.35" x2="662.75" y2="187.35"/><line class="cls-3" x1="375.56" y1="250.44" x2="662.75" y2="250.44"/><line class="cls-3" x1="704.36" y1="261.85" x2="956.04" y2="261.85"/><line class="cls-3" x1="704.36" y1="302.11" x2="956.04" y2="302.11"/><line class="cls-3" x1="409.06" y1="314.19" x2="650.67" y2="314.19"/><line class="cls-3" x1="733.22" y1="370.57" x2="945.3" y2="370.57"/><line class="cls-3" x1="733.22" y1="492.05" x2="945.3" y2="492.05"/><line class="cls-3" x1="733.22" y1="508.15" x2="945.3" y2="508.15"/><line class="cls-3" x1="758.72" y1="564.53" x2="940.6" y2="564.53"/><line class="cls-3" x1="758.72" y1="603.45" x2="940.6" y2="603.45"/><line class="cls-3" x1="758.72" y1="619.56" x2="940.6" y2="619.56"/><line class="cls-3" x1="383.56" y1="481.31" x2="682.21" y2="481.31"/><line class="cls-3" x1="383.56" y1="600.77" x2="682.21" y2="600.77"/><line class="cls-3" x1="383.56" y1="618.22" x2="682.21" y2="618.22"/><line class="cls-3" x1="98.32" y1="277.28" x2="248.15" y2="277.28"/><line class="cls-3" x1="98.32" y1="328.29" x2="248.15" y2="328.29"/><line class="cls-3" x1="47.32" y1="404.8" x2="297.65" y2="404.8"/><line class="cls-3" x1="47.32" y1="456.48" x2="297.65" y2="456.48"/><line class="cls-3" x1="75.51" y1="526.94" x2="280.2" y2="526.94"/><line class="cls-3" x1="75.51" y1="589.36" x2="280.2" y2="589.36"/><line class="cls-3" x1="55.37" y1="654.46" x2="313.09" y2="654.46"/><line class="cls-3" x1="55.37" y1="694.06" x2="313.09" y2="694.06"/><line class="cls-3" x1="55.37" y1="711.51" x2="313.09" y2="711.51"/><line class="cls-3" x1="447.99" y1="666.54" x2="635.91" y2="666.54"/><line class="cls-3" x1="447.99" y1="706.14" x2="635.91" y2="706.14"/><line class="cls-3" x1="447.99" y1="722.25" x2="635.91" y2="722.25"/><line class="cls-3" x1="781.54" y1="675.94" x2="915.1" y2="675.94"/><line class="cls-3" x1="781.54" y1="702.78" x2="915.1" y2="702.78"/><line class="cls-3" x1="375.56" y1="266.54" x2="662.75" y2="266.54"/><line class="cls-3" x1="47.32" y1="471.91" x2="297.65" y2="471.91"/><line class="cls-3" x1="47.32" y1="475.27" x2="297.65" y2="475.27"/><polyline class="cls-4" points="299.67 114.53 309.56 109.33 299.67 103.12"/><line class="cls-4" x1="309.56" y1="104.35" x2="309.56" y2="114.53"/><line class="cls-4" x1="299.67" y1="109.44" x2="383.95" y2="109.44"/><polygon class="cls-5" points="383.07 112.43 388.25 109.44 383.07 106.45 383.07 112.43"/><polyline class="cls-4" points="375.56 172.58 367.45 177.73 375.56 183.32"/><line class="cls-4" x1="367.45" y1="172.58" x2="367.45" y2="183.32"/><line class="cls-4" x1="375.56" y1="177.95" x2="303.97" y2="177.95"/><polygon class="cls-5" points="304.85 174.96 299.67 177.95 304.85 180.94 304.85 174.96"/><polyline class="cls-4" points="168.3 261.17 173.24 253.12 178.86 261.17"/><line class="cls-4" x1="173.58" y1="261.17" x2="173.58" y2="187.63"/><polygon class="cls-5" points="176.57 188.5 173.58 183.32 170.59 188.5 176.57 188.5"/><line class="cls-4" x1="168.3" y1="253.12" x2="178.86" y2="253.12"/><polyline class="cls-4" points="168.3 334.33 173.58 341.71 178.86 334.33"/><line class="cls-4" x1="173.58" y1="334.33" x2="173.58" y2="383.71"/><polygon class="cls-5" points="170.59 382.84 173.58 388.02 176.57 382.84 170.59 382.84"/><line class="cls-4" x1="168.3" y1="341.71" x2="178.86" y2="341.71"/><polyline class="cls-4" points="173.58 475.94 179.07 484.66 184.56 475.6"/><line class="cls-4" x1="179.07" y1="475.6" x2="179.07" y2="506.53"/><polygon class="cls-5" points="176.08 505.66 179.07 510.84 182.06 505.66 176.08 505.66"/><line class="cls-4" x1="173.58" y1="484.66" x2="184.57" y2="484.66"/><polyline class="cls-4" points="409.06 405.69 400.34 410.84 409.06 416.21"/><line class="cls-4" x1="409.06" y1="410.95" x2="301.96" y2="410.95"/><polygon class="cls-5" points="302.83 407.96 297.65 410.95 302.83 413.94 302.83 407.96"/><line class="cls-4" x1="400.34" y1="405.69" x2="400.34" y2="416.21"/><polyline class="cls-4" points="383.56 465.87 376.62 470.12 383.56 474.37"/><line class="cls-4" x1="383.56" y1="470.12" x2="301.96" y2="470.12"/><polygon class="cls-5" points="302.83 467.13 297.65 470.12 302.83 473.11 302.83 467.13"/><line class="cls-4" x1="376.62" y1="465.76" x2="376.62" y2="475.83"/><polyline class="cls-4" points="175 603.46 179.62 611.34 184.23 603.46"/><line class="cls-4" x1="179.62" y1="603.45" x2="179.62" y2="635.39"/><polygon class="cls-5" points="176.62 634.51 179.62 639.7 182.61 634.51 176.62 634.51"/><line class="cls-4" x1="175" y1="612.68" x2="184.23" y2="612.68"/><polyline class="cls-4" points="525.17 431.64 530.71 442.26 536.07 431.64"/><line class="cls-4" x1="530.62" y1="431.64" x2="530.62" y2="461.57"/><polygon class="cls-5" points="527.63 460.69 530.62 465.87 533.61 460.69 527.63 460.69"/><line class="cls-4" x1="525.17" y1="443.56" x2="536.07" y2="443.56"/><polyline class="cls-4" points="650.67 389.19 660.4 394.73 650.67 400.1"/><line class="cls-4" x1="650.67" y1="394.65" x2="728.92" y2="394.65"/><polygon class="cls-5" points="728.04 397.64 733.22 394.65 728.04 391.65 728.04 397.64"/><line class="cls-4" x1="661.41" y1="389.19" x2="661.41" y2="400.1"/><polyline class="cls-4" points="650.67 304.13 660.23 309.5 650.67 315.37"/><line class="cls-4" x1="650.67" y1="309.75" x2="700.06" y2="309.75"/><polygon class="cls-5" points="699.18 312.74 704.36 309.75 699.18 306.76 699.18 312.74"/><line class="cls-4" x1="661.41" y1="304.13" x2="661.41" y2="315.37"/><polyline class="cls-4" points="525.84 271.91 530.79 279.97 535.74 271.91"/><line class="cls-4" x1="530.79" y1="271.91" x2="530.79" y2="293.78"/><polygon class="cls-5" points="527.8 292.91 530.79 298.09 533.78 292.91 527.8 292.91"/><line class="cls-4" x1="525.84" y1="279.97" x2="535.74" y2="279.97"/><polyline class="cls-4" points="313.09 684.33 321.98 690.37 313.09 696.07"/><line class="cls-4" x1="313.09" y1="690.2" x2="443.68" y2="690.2"/><polygon class="cls-5" points="442.81 693.19 447.99 690.2 442.81 687.21 442.81 693.19"/><line class="cls-4" x1="323.99" y1="684.33" x2="323.99" y2="696.07"/><polyline class="cls-4" points="635.9 685.56 644.63 691.37 635.9 697.19"/><line class="cls-4" x1="635.91" y1="691.37" x2="777.24" y2="691.37"/><polygon class="cls-5" points="776.36 694.37 781.54 691.37 776.36 688.38 776.36 694.37"/><line class="cls-4" x1="646.42" y1="685.56" x2="646.42" y2="697.19"/><polyline class="cls-4" points="845.3 514.19 850.45 523.59 855.59 514.19"/><line class="cls-4" x1="850.45" y1="514.19" x2="850.45" y2="544.12"/><polygon class="cls-5" points="847.46 543.24 850.45 548.42 853.44 543.24 847.46 543.24"/><line class="cls-4" x1="845.3" y1="525.16" x2="855.59" y2="525.16"/><text class="cls-6" transform="translate(47.33 88.47)">P</text><text class="cls-7" transform="translate(47.49 100.1)">F</text><text class="cls-8" transform="translate(47.04 111.74)">U</text><text class="cls-8" transform="translate(378.16 198.98)">PF</text><text class="cls-6" transform="translate(378.16 210.61)">P</text><text class="cls-7" transform="translate(378.16 222.25)">F</text><text class="cls-6" transform="translate(707.14 273.7)">P</text><text class="cls-8" transform="translate(707.14 296.97)">U</text><text class="cls-6" transform="translate(412.39 325.16)">P</text><text class="cls-7" transform="translate(412.39 336.79)">F</text><text class="cls-7" transform="translate(412.39 348.42)">F</text><text class="cls-7" transform="translate(412.39 360.06)">F</text><text class="cls-7" transform="translate(412.39 417.33)">F</text><text class="cls-9" transform="translate(761.86 574.43)">P</text><text class="cls-6" transform="translate(784.23 685.56)">P</text><text class="cls-6" transform="translate(735.43 381.42)">P</text><text class="cls-7" transform="translate(735.43 485.22)">F</text><text class="cls-6" transform="translate(451.32 677.73)">P</text><text class="cls-7" transform="translate(451.32 700.99)">F</text><text class="cls-6" transform="translate(386.76 492.55)">P</text><text class="cls-7" transform="translate(386.76 596.36)">F</text><text class="cls-6" transform="translate(57.86 666.09)">P</text><text class="cls-7" transform="translate(57.86 689.36)">F</text><text class="cls-6" transform="translate(79.79 537.68)">P</text><text class="cls-7" transform="translate(79.79 584.22)">F</text><text class="cls-8" transform="translate(102.16 288.02)">PF</text><text class="cls-8" transform="translate(102.16 299.65)">PF</text><text class="cls-6" transform="translate(51.34 416.21)">P</text><text class="cls-7" transform="translate(51.34 451.11)">F</text><text class="cls-7" transform="translate(65.92 88.47)">CD_PRODU<tspan class="cls-10" x="45.2" y="0">T</tspan><tspan x="49.97" y="0">O</tspan></text><text class="cls-7" transform="translate(65.92 100.1)">CD_UNIDADE_MEDID<tspan class="cls-11" x="82.79" y="0">A</tspan></text><text class="cls-7" transform="translate(65.92 111.74)">DS_PRODU<tspan class="cls-10" x="44.75" y="0">T</tspan><tspan x="49.53" y="0">O</tspan></text><text class="cls-7" transform="translate(65.92 123.37)">DS_COMPLE<tspan class="cls-12" x="49.68" y="0">T</tspan><tspan x="54" y="0">A_PRODU</tspan><tspan class="cls-10" x="92.94" y="0">T</tspan><tspan class="cls-13" x="97.71" y="0">O</tspan></text><text class="cls-7" transform="translate(65.92 135)">DS_MARC<tspan class="cls-14" x="39.38" y="0">A</tspan></text><text class="cls-7" transform="translate(397.96 198.98)">NR_NO<tspan class="cls-12" x="28.19" y="0">T</tspan><tspan x="32.51" y="0">A_FISCA</tspan><tspan class="cls-15" x="66.08" y="0">L</tspan></text><text class="cls-7" transform="translate(397.96 210.61)">CD_ITEM</text><text class="cls-7" transform="translate(397.96 222.25)">CD_PRODU<tspan class="cls-10" x="45.2" y="0">T</tspan><tspan x="49.97" y="0">O</tspan></text><text class="cls-7" transform="translate(397.96 233.88)">QR_VENDID<tspan class="cls-14" x="46.99" y="0">A</tspan></text><text class="cls-7" transform="translate(397.96 245.52)">VL_PRECO_UNI<tspan class="cls-12" x="61.32" y="0">T</tspan><tspan x="65.64" y="0">ARIO</tspan></text><text class="cls-7" transform="translate(431.18 325.16)">NR_NO<tspan class="cls-12" x="28.19" y="0">T</tspan><tspan x="32.51" y="0">A_FISCA</tspan><tspan class="cls-15" x="66.08" y="0">L</tspan></text><text class="cls-7" transform="translate(431.18 336.79)">CD_CLASSIFICACAO_FISCA<tspan class="cls-15" x="108.75" y="0">L</tspan></text><text class="cls-7" transform="translate(431.18 348.42)">CD_CLIENTE</text><text class="cls-7" transform="translate(726.04 273.7)">CD_CLASSIFICACAO_FISCA<tspan class="cls-16" x="108.75" y="0">L</tspan></text><text class="cls-7" transform="translate(726.04 285.33)">NR_CFD<tspan class="cls-17" x="32.66" y="0">P</tspan></text><text class="cls-7" transform="translate(726.04 296.97)">DS_N<tspan class="cls-18" x="21.48" y="0">A</tspan><tspan x="26.26" y="0">TUREZA_OPERACAO</tspan></text><text class="cls-7" transform="translate(431.18 360.06)">NR_M<tspan class="cls-12" x="22.82" y="0">A</tspan><tspan class="cls-13" x="27.59" y="0">TRICUL</tspan><tspan class="cls-11" x="56.68" y="0">A</tspan></text><text class="cls-7" transform="translate(431.18 371.69)">DT_EMISSAO</text><text class="cls-7" transform="translate(431.18 382.43)">VL_<tspan class="cls-10" x="14.33" y="0">T</tspan><tspan x="19.1" y="0">O</tspan><tspan class="cls-12" x="25.37" y="0">T</tspan><tspan x="29.69" y="0">AL_NF</tspan></text><text class="cls-7" transform="translate(431.18 394.06)">DS_TIPO</text><text class="cls-7" transform="translate(431.18 405.69)">VL_DESCON<tspan class="cls-10" x="48.79" y="0">T</tspan><tspan x="53.56" y="0">O</tspan></text><text class="cls-7" transform="translate(431.18 417.33)">CD_LOJ<tspan class="cls-11" x="30.88" y="0">A</tspan></text><text class="cls-7" transform="translate(431.18 428.96)">CD_PROMOCAO</text><text class="cls-7" transform="translate(755.57 381.42)">CD_CLIENTE</text><text class="cls-7" transform="translate(755.57 393.05)">NM_CLIENTE</text><text class="cls-7" transform="translate(755.57 404.69)">DT_NASCIMEN<tspan class="cls-17" x="57.72" y="0">T</tspan><tspan x="62.5" y="0">O</tspan></text><text class="cls-7" transform="translate(755.57 416.32)">DS_SEXO</text><text class="cls-7" transform="translate(755.57 427.95)">NR_CPF</text><text class="cls-7" transform="translate(755.57 438.69)">NR_CPF_DIG</text><text class="cls-7" transform="translate(755.57 450.32)">NR_RG</text><text class="cls-7" transform="translate(755.57 461.96)">NR_RG_DIG</text><text class="cls-7" transform="translate(755.57 473.59)">DS_EMAI<tspan class="cls-15" x="35.36" y="0">L</tspan></text><text class="cls-7" transform="translate(755.57 485.22)">CD_TIPO</text><text class="cls-7" transform="translate(780.62 574.43)">CD_TIPO</text><text class="cls-7" transform="translate(780.62 586.07)">NM_TIPO</text><text class="cls-7" transform="translate(780.62 597.7)">DS_TIPO</text><text class="cls-7" transform="translate(804.34 685.56)">CD_UF</text><text class="cls-7" transform="translate(804.34 697.19)">SG_UF</text><text class="cls-7" transform="translate(405.89 492.55)">NR_M<tspan class="cls-12" x="22.82" y="0">A</tspan><tspan class="cls-13" x="27.59" y="0">TRICUL</tspan><tspan class="cls-14" x="56.68" y="0">A</tspan></text><text class="cls-7" transform="translate(405.89 504.19)">CD_DEP<tspan class="cls-10" x="32.67" y="0">T</tspan><tspan x="37.44" y="0">O</tspan></text><text class="cls-7" transform="translate(405.89 515.82)">NM_FUNCIONARIO</text><text class="cls-7" transform="translate(405.89 527.45)">DS_SEXO</text><text class="cls-7" transform="translate(405.89 539.09)">DT_NASCIMEN<tspan class="cls-10" x="57.72" y="0">T</tspan><tspan x="62.5" y="0">O</tspan></text><text class="cls-7" transform="translate(405.89 549.82)">DT_ADMISSAO</text><text class="cls-7" transform="translate(405.89 561.46)">DS_ENDERECO</text><text class="cls-7" transform="translate(405.89 573.09)">VL_SALARIO</text><text class="cls-7" transform="translate(405.89 584.73)">CD_<tspan class="cls-14" x="16.11" y="0">F</tspan><tspan x="20.59" y="0">AIXA_BONIFICACAO</tspan></text><text class="cls-7" transform="translate(405.89 596.36)">CD_LOJ<tspan class="cls-11" x="30.88" y="0">A</tspan></text><text class="cls-7" transform="translate(471.21 677.73)">CD_CIDADE</text><text class="cls-7" transform="translate(471.21 689.36)">NM_CIDADE</text><text class="cls-7" transform="translate(471.21 700.99)">CD_UF</text><text class="cls-7" transform="translate(99.47 537.68)">CD_ENDERECO</text><text class="cls-7" transform="translate(99.47 549.32)">NR_NUMERO</text><text class="cls-7" transform="translate(99.47 560.95)">NR_CE<tspan class="cls-19" x="27.3" y="0">P</tspan></text><text class="cls-7" transform="translate(78 666.09)">CD_LOGRADOURO</text><text class="cls-7" transform="translate(78 677.73)">NM_LOGRADOURO</text><text class="cls-7" transform="translate(78 689.36)">CD_CIDADE</text><text class="cls-7" transform="translate(99.47 572.58)">NT_COMPLEMEN<tspan class="cls-10" x="67.12" y="0">T</tspan><tspan x="71.9" y="0">O</tspan></text><text class="cls-7" transform="translate(99.47 584.22)">CD_LOGRADOURO</text><text class="cls-7" transform="translate(65.92 146.64)">VL_PRECO_UNI<tspan class="cls-12" x="61.32" y="0">T</tspan><tspan x="65.64" y="0">ARIO</tspan></text><text class="cls-7" transform="translate(120.95 288.02)">CD_LOJ<tspan class="cls-11" x="30.88" y="0">A</tspan></text><text class="cls-7" transform="translate(120.95 299.65)">CD_PRODU<tspan class="cls-10" x="45.2" y="0">T</tspan><tspan x="49.97" y="0">O </tspan></text><text class="cls-7" transform="translate(120.95 311.29)">QT_ES<tspan class="cls-10" x="26.41" y="0">T</tspan><tspan class="cls-13" x="31.18" y="0">OQUE</tspan></text><text class="cls-7" transform="translate(120.95 322.92)">DT_ES<tspan class="cls-10" x="25.96" y="0">T</tspan><tspan class="cls-13" x="30.73" y="0">OQUE</tspan></text><text class="cls-7" transform="translate(69.74 416.21)">CD_LOJ<tspan class="cls-11" x="30.88" y="0">A</tspan></text><text class="cls-7" transform="translate(69.74 427.84)">NM_LOJ<tspan class="cls-14" x="31.77" y="0">A</tspan></text><text class="cls-7" transform="translate(69.74 439.47)">DS_LOJ<tspan class="cls-14" x="30.44" y="0">A</tspan></text><text class="cls-7" transform="translate(69.74 451.11)">CD_ENDERECO</text><text class="cls-7" transform="translate(409.92 71.02)">CD_UNIDADE_MEDID<tspan class="cls-11" x="82.79" y="0">A</tspan></text><text class="cls-7" transform="translate(409.92 82.65)">DS_SIGL<tspan class="cls-14" x="34.02" y="0">A</tspan></text><text class="cls-7" transform="translate(409.92 94.29)">DS_UNIDADE_MEDID<tspan class="cls-11" x="82.34" y="0">A</tspan></text><text class="cls-7" transform="translate(720.67 312.63)">T_SIV_CLASSIFICAO_FISCAL_PK (CD_CLASSIFICACAO)</text><text class="cls-7" transform="translate(798.07 714.42)">T_SIV_UF_PK (CD_UF)</text><text class="cls-7" transform="translate(773.05 614.7)">T_SIV_TIPO_CLIENTE_PK (CD_TIPO)</text><text class="cls-7" transform="translate(750.2 502.85)">T_SIV_CLIENTE_PK (CD_CLIENTE)</text><text class="cls-7" transform="translate(464.05 717.1)">T_SIV_CIDADE_PK (CD_CIDADE)</text><text class="cls-7" transform="translate(464.05 734.1)">T_SIV_CIDADE_T_SIV_UF_FK (CD_UF)</text><text class="cls-7" transform="translate(401.53 612.18)">T_SIV_FUNCIONARIO_PK (NR_M<tspan class="cls-18" x="126.2" y="0">A</tspan><tspan x="130.97" y="0">TRICULA)</tspan></text><text class="cls-7" transform="translate(392.59 260.5)">T_SIV_ITEM_NO<tspan class="cls-12" x="62.66" y="0">T</tspan><tspan x="66.98" y="0">A_FISCAL_PK (NR_NO</tspan><tspan class="cls-12" x="153.36" y="0">T</tspan><tspan class="cls-20" x="157.68" y="0">A_FISCAL, CD_ITEM)</tspan></text><text class="cls-7" transform="translate(72.63 706.14)">T_SIV_LOGRADOURO_PK (CD_LOGRADOURO)</text><text class="cls-7" transform="translate(72.63 722.25)">T_SIV_LOGRADOURO_T_SIV_CIDADE_FK (CD_CIDADE)</text><text class="cls-7" transform="translate(93.21 598.76)">T_SIV_ENDERECO_PK (CD_ENDERECO)</text><text class="cls-7" transform="translate(63.93 467.21)">T_SIV_LOJA_PK (CD_LOJA)</text><text class="cls-7" transform="translate(61.24 162.18)">T_SIV_PRODU<tspan class="cls-10" x="55.94" y="0">T</tspan><tspan class="cls-13" x="60.72" y="0">O_PK (CD_PRODU</tspan><tspan class="cls-10" x="132.32" y="0">T</tspan><tspan class="cls-13" x="137.09" y="0">O)</tspan></text><text class="cls-7" transform="translate(61.24 173.82)">T_SIV_PRODU<tspan class="cls-10" x="55.94" y="0">T</tspan><tspan class="cls-13" x="60.72" y="0">O_DS_PRODU</tspan><tspan class="cls-10" x="116.21" y="0">T</tspan><tspan x="120.99" y="0">O_UN (DS_PRODU</tspan><tspan class="cls-10" x="193.03" y="0">T</tspan><tspan x="197.81" y="0">O)</tspan></text><text class="cls-7" transform="translate(405.89 109.44)">T_SIV_UNIDADE_MEDIDA_PK (CD_UNIDADE_MEDIDA)</text><text class="cls-7" transform="translate(405.89 121.07)">T_SIV_UNIDADE_MEDIDA_DS_UNIDADE_MEDIDA_UN (DS</text><text class="cls-7" transform="translate(405.89 137.91)">DS_UNIDADE_MEDIDA_UN (DS_UNIDADE_MEDIDA)</text><text class="cls-7" transform="translate(405.89 149.54)">UNIDADE_MEDIDA_PK (CD_UNIDADE_MEDIDA)</text><text class="cls-8" transform="translate(139.44 72.81)">T_SV_PRODU<tspan class="cls-10" x="53.71" y="0">T</tspan><tspan x="58.48" y="0">O</tspan></text><text class="cls-8" transform="translate(770.92 257.6)">T_SV_CLASSIFICACAO_FISCA<tspan class="cls-16" x="117.26" y="0">L</tspan></text><text class="cls-8" transform="translate(811.87 364.86)">T_SV_CLIENTE</text><text class="cls-8" transform="translate(830.82 670.79)">T_SV_UF</text><text class="cls-8" transform="translate(807.85 558.82)">T_SV_TIPO_CLIENTE</text><text class="cls-8" transform="translate(515.08 660.5)">T_SV_CIDADE</text><text class="cls-8" transform="translate(492.47 475.83)">T_SV_FUNCIONARIO</text><text class="cls-8" transform="translate(489.57 308.41)">T_SV_NO<tspan class="cls-12" x="36.7" y="0">T</tspan><tspan class="cls-20" x="41.02" y="0">A_FISCA</tspan><tspan class="cls-16" x="74.59" y="0">L</tspan></text><text class="cls-8" transform="translate(143.12 649.09)">T_SV_LOGRADOURO</text><text class="cls-8" transform="translate(148.94 398.76)">T_SIV_LOJ<tspan class="cls-14" x="41.63" y="0">A</tspan></text><text class="cls-8" transform="translate(143.12 521.58)">T_SV_ENDERECO</text><text class="cls-8" transform="translate(140.88 271.91)">T_SV_ES<tspan class="cls-19" x="35.36" y="0">T</tspan><tspan x="40.14" y="0">OQUE</tspan></text><text class="cls-8" transform="translate(466.29 53.57)">T_SV_UNIDADE_MEDID<tspan class="cls-21" x="91.3" y="0">A</tspan></text><text class="cls-8" transform="translate(469.65 183.32)">T_SV_ITEM_NO<tspan class="cls-12" x="60.42" y="0">T</tspan><tspan class="cls-20" x="64.74" y="0">A_FISCA</tspan><tspan class="cls-16" x="98.31" y="0">L</tspan></text><text class="cls-22" transform="translate(718.14 273.7)">*</text><text class="cls-22" transform="translate(718.14 285.33)">*</text><text class="cls-22" transform="translate(718.14 296.97)">*</text><text class="cls-22" transform="translate(421.79 325.16)">*</text><text class="cls-22" transform="translate(421.79 336.79)">*</text><text class="cls-22" transform="translate(421.79 348.42)">*</text><text class="cls-22" transform="translate(421.79 360.06)">*</text><text class="cls-22" transform="translate(421.79 371.69)">*</text><text class="cls-22" transform="translate(421.79 382.43)">*</text><text class="cls-22" transform="translate(421.79 394.06)">*</text><text class="cls-22" transform="translate(421.79 417.33)">*</text><text class="cls-22" transform="translate(772.26 574.43)">*</text><text class="cls-22" transform="translate(794.49 685.56)">*</text><text class="cls-22" transform="translate(746.68 381.42)">*</text><text class="cls-22" transform="translate(746.68 393.05)">*</text><text class="cls-22" transform="translate(746.68 404.69)">*</text><text class="cls-22" transform="translate(746.68 416.32)">*</text><text class="cls-22" transform="translate(746.68 427.95)">*</text><text class="cls-22" transform="translate(746.68 438.69)">*</text><text class="cls-22" transform="translate(746.68 450.32)">*</text><text class="cls-22" transform="translate(746.68 461.96)">*</text><text class="cls-22" transform="translate(746.68 485.22)">*</text><text class="cls-22" transform="translate(462.06 677.73)">*</text><text class="cls-22" transform="translate(462.06 700.99)">*</text><text class="cls-22" transform="translate(397.96 492.55)">*</text><text class="cls-22" transform="translate(397.96 504.19)">*</text><text class="cls-22" transform="translate(397.96 515.82)">*</text><text class="cls-22" transform="translate(397.96 527.45)">*</text><text class="cls-22" transform="translate(397.96 549.82)">*</text><text class="cls-22" transform="translate(397.96 561.46)">*</text><text class="cls-22" transform="translate(397.96 573.09)">*</text><text class="cls-22" transform="translate(397.96 584.73)">*</text><text class="cls-22" transform="translate(397.96 596.36)">*</text><text class="cls-22" transform="translate(389.6 198.98)">*</text><text class="cls-22" transform="translate(389.6 210.61)">*</text><text class="cls-22" transform="translate(389.6 222.25)">*</text><text class="cls-22" transform="translate(389.6 233.88)">*</text><text class="cls-22" transform="translate(389.6 245.52)">*</text><text class="cls-22" transform="translate(67.9 666.09)">*</text><text class="cls-22" transform="translate(67.9 689.36)">*</text><text class="cls-22" transform="translate(90.08 537.68)">*</text><text class="cls-22" transform="translate(90.08 584.22)">*</text><text class="cls-22" transform="translate(57.86 88.47)">*</text><text class="cls-22" transform="translate(57.86 100.1)">*</text><text class="cls-22" transform="translate(57.86 111.74)">*</text><text class="cls-22" transform="translate(57.86 123.37)">*</text><text class="cls-22" transform="translate(57.86 135)">*</text><text class="cls-22" transform="translate(57.86 146.64)">*</text><text class="cls-22" transform="translate(114.69 288.02)">*</text><text class="cls-22" transform="translate(114.69 299.65)">*</text><text class="cls-22" transform="translate(61.24 416.21)">*</text><text class="cls-22" transform="translate(61.24 451.11)">*</text><text class="cls-22" transform="translate(401.53 71.02)">*</text><text class="cls-22" transform="translate(401.53 82.65)">*</text><text class="cls-22" transform="translate(401.53 94.29)">*</text><text class="cls-6" transform="translate(391 71.02)">P</text><text class="cls-8" transform="translate(391 94.29)">U</text><text class="cls-23" transform="translate(862.5 273.7)">NUMBER (4)</text><text class="cls-23" transform="translate(862.5 285.33)">NUMBER (5)</text><text class="cls-24" transform="translate(862.5 296.97)">V<tspan class="cls-20" x="4.77" y="0">ARCHAR2 (30 BYTE)</tspan></text><text class="cls-23" transform="translate(848.32 685.56)">NUMBER (2)</text><text class="cls-24" transform="translate(848.32 697.19)">V<tspan class="cls-20" x="4.77" y="0">ARCHAR2 (2)</tspan></text><text class="cls-23" transform="translate(834.76 574.43)">NUMBER</text><text class="cls-24" transform="translate(834.76 586.07)">V<tspan class="cls-20" x="4.77" y="0">ARCHAR2 (25 BYTE)</tspan></text><text class="cls-24" transform="translate(834.76 597.7)">V<tspan class="cls-20" x="4.77" y="0">ARCHAR2 (60 BYTE)</tspan></text><text class="cls-23" transform="translate(845.3 381.42)">NUMBER (5)</text><text class="cls-24" transform="translate(845.3 393.05)">V<tspan class="cls-20" x="4.77" y="0">ARCHAR2 (60 BYTE)</tspan></text><text class="cls-23" transform="translate(845.3 404.69)">D<tspan class="cls-18" x="5.82" y="0">A</tspan><tspan x="10.59" y="0">TE</tspan></text><text class="cls-23" transform="translate(845.3 416.32)">CHAR (1 BYTE)</text><text class="cls-23" transform="translate(845.3 427.95)">NUMBER (9)</text><text class="cls-23" transform="translate(845.3 438.69)">NUMBER (2)</text><text class="cls-23" transform="translate(845.3 450.32)">NUMBER (9)</text><text class="cls-23" transform="translate(845.3 461.96)">CHAR (1 BYTE)</text><text class="cls-24" transform="translate(845.3 473.59)">V<tspan class="cls-20" x="4.77" y="0">ARCHAR2 (80 BYTE)</tspan></text><text class="cls-23" transform="translate(845.3 485.22)">NUMBER</text><text class="cls-23" transform="translate(535.64 677.73)">NUMBER (9)</text><text class="cls-24" transform="translate(535.64 689.36)">V<tspan class="cls-20" x="4.77" y="0">ARCHAR2 (80)</tspan></text><text class="cls-23" transform="translate(535.64 700.99)">NUMBER (2)</text><text class="cls-23" transform="translate(527.36 492.55)">NUMBER (5)</text><text class="cls-23" transform="translate(527.36 504.19)">NUMBER</text><text class="cls-24" transform="translate(527.36 515.82)">V<tspan class="cls-20" x="4.77" y="0">ARCHAR2 (60 BYTE)</tspan></text><text class="cls-23" transform="translate(527.36 527.45)">CHAR (1 BYTE)</text><text class="cls-23" transform="translate(527.36 539.09)">D<tspan class="cls-18" x="5.82" y="0">A</tspan><tspan x="10.59" y="0">TE</tspan></text><text class="cls-23" transform="translate(527.36 549.82)">D<tspan class="cls-18" x="5.82" y="0">A</tspan><tspan x="10.59" y="0">TE</tspan></text><text class="cls-24" transform="translate(527.36 561.46)">V<tspan class="cls-20" x="4.77" y="0">ARCHAR2 (80 BYTE)</tspan></text><text class="cls-23" transform="translate(527.36 573.09)">NUMBER (7,2)</text><text class="cls-23" transform="translate(527.36 584.73)">NUMBER (2)</text><text class="cls-23" transform="translate(527.36 596.36)">NUMBER</text><text class="cls-23" transform="translate(567.94 325.16)">NUMBER (6)</text><text class="cls-23" transform="translate(567.94 336.79)">NUMBER (4)</text><text class="cls-23" transform="translate(567.94 348.42)">NUMBER (5)</text><text class="cls-23" transform="translate(567.94 360.06)">NUMBER</text><text class="cls-23" transform="translate(567.94 371.69)">D<tspan class="cls-18" x="5.82" y="0">A</tspan><tspan x="10.59" y="0">TE</tspan></text><text class="cls-23" transform="translate(567.94 382.43)">NUMBER (8,2)</text><text class="cls-23" transform="translate(567.94 394.06)">NUMBER (1)</text><text class="cls-23" transform="translate(567.94 405.69)">NUMBER (3,1)</text><text class="cls-23" transform="translate(567.94 417.33)">NUMBER</text><text class="cls-23" transform="translate(567.94 428.96)">NUMBER (5)</text><text class="cls-23" transform="translate(505.68 198.98)">NUMBER (6)</text><text class="cls-23" transform="translate(505.68 210.61)">NUMBER (3)</text><text class="cls-23" transform="translate(505.68 222.25)">NUMBER</text><text class="cls-23" transform="translate(505.68 233.88)">NUMBER (3)</text><text class="cls-23" transform="translate(505.68 245.52)">NUMBER (6,2)</text><text class="cls-23" transform="translate(171.81 666.09)">NUMBER (9)</text><text class="cls-23" transform="translate(171.81 677.73)"><tspan class="cls-12">V</tspan><tspan x="4.77" y="0">ARCHAR2 (60)</tspan></text><text class="cls-23" transform="translate(171.81 689.36)">NUMBER (9)</text><text class="cls-23" transform="translate(200.76 537.68)">NUMBER (9)</text><text class="cls-23" transform="translate(200.76 549.32)">NUMBER (6)</text><text class="cls-23" transform="translate(200.76 560.95)"><tspan class="cls-12">V</tspan><tspan x="4.77" y="0">ARCHAR2 (10)</tspan></text><text class="cls-23" transform="translate(200.76 572.58)"><tspan class="cls-12">V</tspan><tspan x="4.77" y="0">ARCHAR2 (20)</tspan></text><text class="cls-23" transform="translate(200.76 584.22)">NUMBER (9)</text><text class="cls-23" transform="translate(151.62 416.21)">NUMBER</text><text class="cls-23" transform="translate(151.62 427.84)"><tspan class="cls-12">V</tspan><tspan x="4.77" y="0">ARCHAR2 (25 BYTE)</tspan></text><text class="cls-23" transform="translate(151.62 439.47)"><tspan class="cls-12">V</tspan><tspan x="4.77" y="0">ARCHAR2 (60 BYTE)</tspan></text><text class="cls-23" transform="translate(151.62 451.11)">NUMBER (9)</text><text class="cls-23" transform="translate(195.15 288.02)">NUMBER</text><text class="cls-23" transform="translate(195.15 299.65)">NUMBER (6)</text><text class="cls-23" transform="translate(195.15 311.29)">NUMBER (6)</text><text class="cls-23" transform="translate(195.15 322.92)">D<tspan class="cls-12" x="5.82" y="0">A</tspan><tspan class="cls-13" x="10.59" y="0">TE</tspan></text><text class="cls-23" transform="translate(195.15 88.47)">NUMBER (6)</text><text class="cls-23" transform="translate(195.15 100.1)">NUMBER</text><text class="cls-23" transform="translate(195.15 111.74)"><tspan class="cls-12">V</tspan><tspan x="4.77" y="0">ARCHAR2 (20 BYTE)</tspan></text><text class="cls-23" transform="translate(519.31 71.02)">NUMBER (2)</text><text class="cls-23" transform="translate(519.31 82.65)">CHAR (3 BYTE)</text><text class="cls-24" transform="translate(519.31 94.29)">V<tspan class="cls-20" x="4.77" y="0">ARCHAR2 (30 BYTE)</tspan></text><text class="cls-23" transform="translate(195.15 123.37)"><tspan class="cls-12">V</tspan><tspan x="4.77" y="0">ARCHAR2 (120 BYTE)</tspan></text><text class="cls-23" transform="translate(195.15 135)"><tspan class="cls-12">V</tspan><tspan x="4.77" y="0">ARCHAR2 (60)</tspan></text><text class="cls-23" transform="translate(195.15 146.64)">NUMBER (6,2)</text><polygon class="cls-25" points="290.27 172.58 296.98 172.58 293.63 177.95 290.27 172.58"/><polygon class="cls-25" points="239.23 322.47 245.94 322.47 242.59 327.84 239.23 322.47"/><polygon class="cls-25" points="288.23 464.53 294.94 464.53 291.59 469.9 288.23 464.53"/><polygon class="cls-25" points="270.94 593.67 277.65 593.67 274.3 599.04 270.94 593.67"/><polygon class="cls-25" points="673.01 617.55 679.73 617.55 676.37 622.92 673.01 617.55"/><polygon class="cls-25" points="931.63 620.23 938.34 620.23 934.99 625.6 931.63 620.23"/><polygon class="cls-25" points="934.99 504.13 941.7 504.13 938.34 509.5 934.99 504.13"/><polygon class="cls-25" points="642.19 423.59 648.9 423.59 645.54 428.96 642.19 423.59"/><polygon class="cls-25" points="653.52 260.5 660.23 260.5 656.88 265.87 653.52 260.5"/><polygon class="cls-25" points="947.48 310.17 954.19 310.17 950.84 315.54 947.48 310.17"/><polygon class="cls-26" points="51.78 168.17 55.35 171.86 51.78 175.69 48.21 171.99 51.78 168.17"/><polygon class="cls-26" points="396.16 115.97 399.73 119.67 396.16 123.49 392.59 119.8 396.16 115.97"/><polygon class="cls-26" points="396.16 132.58 399.73 136.28 396.16 140.1 392.59 136.41 396.16 132.58"/><polygon class="cls-26" points="396.16 144.26 399.73 147.96 396.16 151.78 392.59 148.08 396.16 144.26"/><path class="cls-27" d="M57.38,160.93l-1.26-2.21H52.59a2.73,2.73,0,1,0-.08,2.21Z"/><path class="cls-27" d="M60,465.72,58.7,463.5H55.17a2.72,2.72,0,1,0-.07,2.22Z"/><path class="cls-27" d="M89.81,597.55l-1.27-2.22H85a2.73,2.73,0,1,0-.08,2.22Z"/><path class="cls-27" d="M68.94,704l-1.27-2.22H64.14a2.72,2.72,0,1,0-.07,2.22Z"/><path class="cls-27" d="M461.34,715.6l-1.27-2.21h-3.52a2.72,2.72,0,1,0-2.52,3.74,2.7,2.7,0,0,0,2.44-1.53Z"/><path class="cls-27" d="M388.57,259.68l-1.27-2.22h-3.53a2.72,2.72,0,1,0-.07,2.22Z"/><path class="cls-27" d="M718.14,310.93l-1.26-2.21h-3.53a2.73,2.73,0,1,0-.08,2.21Z"/><path class="cls-27" d="M745.45,501.32l-1.26-2.22h-3.53a2.73,2.73,0,1,0-.08,2.22Z"/><path class="cls-27" d="M771.9,613.37l-1.26-2.22h-3.53a2.73,2.73,0,1,0-.08,2.22Z"/><path class="cls-27" d="M795.06,712.89l-1.27-2.22h-3.52a2.73,2.73,0,1,0-.08,2.22Z"/><path class="cls-27" d="M397.6,610.68l-1.26-2.21h-3.53a2.73,2.73,0,1,0-.08,2.21Z"/><path class="cls-27" d="M401.17,109.22,399.91,107h-3.53a2.72,2.72,0,1,0-2.51,3.74,2.69,2.69,0,0,0,2.43-1.53Z"/><path class="cls-28" d="M67.6,717.39l-1.27-2.21H62.8a2.73,2.73,0,1,0-.08,2.21Z"/><path class="cls-28" d="M461.34,729.81l-1.27-2.22h-3.52a2.73,2.73,0,1,0-.08,2.22Z"/><polyline class="cls-29" points="60.24 723.76 65.92 723.76 65.92 721.08"/><polygon class="cls-30" points="67.41 721.51 65.92 718.92 64.42 721.51 67.41 721.51"/><polyline class="cls-29" points="453.98 736.17 459.66 736.17 459.66 733.49"/><polygon class="cls-30" points="461.16 733.93 459.66 731.34 458.17 733.93 461.16 733.93"/></g></svg>