<svg xmlns="http://www.w3.org/2000/svg" viewBox="0 0 800 520"><defs><style>.cls-1{fill:#fff;}.cls-2,.cls-3{fill:#f2f2f2;}.cls-3,.cls-4{stroke:#006cbf;stroke-miterlimit:10;stroke-width:2px;}.cls-4{fill:none;}.cls-5{fill:#b3b3b3;}.cls-6{font-size:14.78px;fill:#303030;font-family:ArialMT, Arial;}.cls-7{letter-spacing:-0.04em;}.cls-8{letter-spacing:-0.06em;}.cls-9{letter-spacing:0em;}</style></defs><title>7-vetores-fase6-Smart-City-TDS-2019</title><g id="Layer_11" data-name="Layer 11"><rect class="cls-1" width="800" height="520"/><rect class="cls-2" x="58.99" y="120.12" width="105.4" height="311.27" rx="5" ry="5"/><rect class="cls-2" x="270.79" y="120.12" width="166.46" height="311.27" rx="5" ry="5"/><rect class="cls-2" x="530.84" y="120.12" width="213.74" height="311.27" rx="5" ry="5"/><path class="cls-3" d="M135.21,383.75c0,4.37-11,7.92-24.57,7.92s-24.56-3.55-24.56-7.92V346.6h49.13Z"/><ellipse class="cls-3" cx="110.64" cy="346.6" rx="24.56" ry="7.92"/><path class="cls-3" d="M378.58,276.26c0,4.38-11,7.92-24.56,7.92s-24.57-3.54-24.57-7.92V239.12h49.13Z"/><ellipse class="cls-3" cx="354.02" cy="239.12" rx="24.56" ry="7.92"/><path class="cls-4" d="M87.31,291.52V244.73H127v41.13s-7.88-2.71-18.47,4.43S87.31,291.52,87.31,291.52Z"/><polyline class="cls-4" points="90.26 244.73 90.26 240.79 131.63 240.79 131.63 280.44 126.96 280.44"/><polyline class="cls-4" points="94.7 240.05 94.7 236.11 136.07 236.11 136.07 275.76 131.39 275.76"/><path class="cls-4" d="M87.31,194.7V147.91H127V189s-7.88-2.71-18.47,4.43S87.31,194.7,87.31,194.7Z"/><polyline class="cls-4" points="90.26 147.91 90.26 143.97 131.63 143.97 131.63 183.62 126.96 183.62"/><polyline class="cls-4" points="94.7 143.23 94.7 139.29 136.07 139.29 136.07 178.94 131.39 178.94"/><path class="cls-4" d="M663.08,267.05c0,4.37-11,7.92-24.56,7.92S614,271.42,614,267.05V229.9h49.12Z"/><ellipse class="cls-3" cx="638.52" cy="229.9" rx="24.56" ry="7.92"/><rect class="cls-4" x="627.16" y="249.7" width="17.08" height="17.08"/><polyline class="cls-4" points="644.25 266.79 649.88 262.17 649.88 245.09 644.25 249.71"/><polyline class="cls-4" points="627.16 249.71 632.79 245.09 649.88 245.09"/><polygon class="cls-5" points="179.66 155.79 230.88 155.79 230.88 139.33 262.89 172.42 230.88 204.84 230.88 188.09 179.66 188.09 179.66 155.79"/><polygon class="cls-5" points="179.66 260.11 230.88 260.11 230.88 243.64 262.89 276.73 230.88 309.15 230.88 292.4 179.66 292.4 179.66 260.11"/><polygon class="cls-5" points="442.42 258.24 493.65 258.24 493.65 241.78 525.66 274.86 493.65 307.28 493.65 290.54 442.42 290.54 442.42 258.24"/><polygon class="cls-5" points="179.66 364.42 230.88 364.42 230.88 347.95 262.89 381.04 230.88 413.46 230.88 396.71 179.66 396.71 179.66 364.42"/><text class="cls-6" transform="translate(55.42 101.86)">Fontes de Dados</text><text class="cls-6" transform="translate(96.5 216.56)">CSV</text><text class="cls-6" transform="translate(98.96 317.76)">xlsx</text><text class="cls-6" transform="translate(95.27 413.46)">MER</text><text class="cls-6" transform="translate(188.43 384.44)">Extract</text><text class="cls-6" transform="translate(189.41 281.42)">Extract</text><text class="cls-6" transform="translate(465.05 279.47)">Load</text><text class="cls-6" transform="translate(320.63 314.45)"><tspan class="cls-7">T</tspan><tspan x="8.48" y="0">ransform</tspan></text><text class="cls-6" transform="translate(571.59 302.28)">Modelo Dimensional<tspan class="cls-8" x="42.29" y="17.73">V</tspan><tspan x="51.33" y="17.73">endas</tspan></text><text class="cls-6" transform="translate(188.43 177.42)">Extract</text><text class="cls-6" transform="translate(311.71 101.86)">Staging<tspan class="cls-8" x="50.11" y="0"> </tspan><tspan class="cls-9" x="53.4" y="0">Area</tspan></text><text class="cls-6" transform="translate(565.41 101.86)">Área de<tspan class="cls-8" x="51.75" y="0"> </tspan><tspan class="cls-9" x="55.04" y="0">Apresentação</tspan></text></g></svg>