<svg xmlns="http://www.w3.org/2000/svg" viewBox="0 0 800 520"><defs><style>.cls-1,.cls-3,.cls-5{fill:#fff;}.cls-12,.cls-14,.cls-15,.cls-2,.cls-32,.cls-34,.cls-4{fill:none;}.cls-2,.cls-3{stroke:#b3b3b3;}.cls-11,.cls-12,.cls-14,.cls-15,.cls-2,.cls-3,.cls-32,.cls-34,.cls-4,.cls-5{stroke-miterlimit:10;}.cls-2,.cls-3,.cls-32,.cls-34,.cls-4,.cls-5{stroke-width:2px;}.cls-4,.cls-5{stroke:gray;}.cls-6,.cls-8,.cls-9{font-size:13.41px;}.cls-13,.cls-22,.cls-6,.cls-8{fill:#303030;}.cls-17,.cls-22,.cls-25,.cls-27,.cls-28,.cls-29,.cls-6,.cls-9{font-family:ArialMT, Arial;}.cls-7{letter-spacing:-0.06em;}.cls-8{font-family:Arial-BoldMT, Arial;font-weight:700;}.cls-10{letter-spacing:-0.07em;}.cls-11{fill:#ffeebf;}.cls-11,.cls-14,.cls-15{stroke:#305d8f;}.cls-11,.cls-12,.cls-14{stroke-width:0.5px;}.cls-12{stroke:#303030;}.cls-15{stroke-width:0.25px;}.cls-16{fill:gray;}.cls-17,.cls-22,.cls-25,.cls-27,.cls-28{font-size:1.1px;}.cls-17,.cls-27,.cls-30{fill:#305d8f;}.cls-18{letter-spacing:-0.07em;}.cls-19{letter-spacing:-0.05em;}.cls-20{letter-spacing:-0.06em;}.cls-21,.cls-27{letter-spacing:-0.02em;}.cls-23{letter-spacing:0em;}.cls-24{letter-spacing:0em;}.cls-25{fill:#51804c;}.cls-26{letter-spacing:-0.07em;}.cls-28,.cls-29,.cls-33{fill:#be1860;}.cls-29{font-size:0.94px;}.cls-31{fill:#c600ff;}.cls-32{stroke:#be1860;}.cls-34{stroke:#006cbf;}</style></defs><title>7-vetores-fase6-Smart-City-TDS-2019</title><g id="Layer_15" data-name="Layer 15"><rect class="cls-1" width="800" height="520"/><path class="cls-2" d="M233.45,296.13c0,11.6-40.54,21-90.54,21s-90.54-9.41-90.54-21V211H233.45Z"/><ellipse class="cls-3" cx="142.91" cy="211.04" rx="90.54" ry="21.01"/><path class="cls-2" d="M504.47,296.13c0,11.6-40.53,21-90.53,21s-90.54-9.41-90.54-21V211H504.47Z"/><ellipse class="cls-3" cx="413.94" cy="211.04" rx="90.54" ry="21.01"/><path class="cls-2" d="M747.63,296.13c0,11.6-40.54,21-90.54,21s-90.54-9.41-90.54-21V211H747.63Z"/><ellipse class="cls-3" cx="657.09" cy="211.04" rx="90.54" ry="21.01"/><path class="cls-4" d="M637.09,280c0,2.23-9.38,4-21,4s-21-1.8-21-4V258.77h41.91Z"/><ellipse class="cls-5" cx="616.13" cy="258.77" rx="20.96" ry="4.03"/><text class="cls-6" transform="translate(665.91 264.09)">Data Mart<tspan class="cls-7" x="7.07" y="16.1">V</tspan><tspan x="15.27" y="16.1">endas</tspan></text><text class="cls-6" transform="translate(646.53 215.36)">DW</text><text class="cls-6" transform="translate(390.5 214.36)">Staging</text><text class="cls-6" transform="translate(89.35 215.39)">SIV</text><text class="cls-8" transform="translate(370.8 354.81)"><tspan class="cls-7">T</tspan><tspan x="7.45" y="0">ransformação</tspan></text><text class="cls-9" transform="translate(305.68 375.49)">Seleção, Limpeza, <tspan class="cls-10" x="114.08" y="0">V</tspan><tspan x="122.03" y="0">alidação, Junção,</tspan><tspan x="15.54" y="16.1">Aplicação de Regras de Negócio</tspan></text><text class="cls-8" transform="translate(198.58 109.95)">Extração</text><text class="cls-6" transform="translate(131.1 130.62)">Cópia das tabelas que possuem<tspan x="28.71" y="16.1">dados dos indicadores</tspan></text><text class="cls-8" transform="translate(536.52 109.95)">Carga</text><text class="cls-6" transform="translate(502.22 130.62)">Carrega os dados<tspan x="-11.91" y="16.1">transformados no DW</tspan></text><rect class="cls-11" x="93.22" y="271" width="27.63" height="22.48"/><rect class="cls-11" x="128.8" y="287.12" width="22.97" height="20.97"/><rect class="cls-11" x="126.97" y="259.94" width="24.8" height="20.79"/><rect class="cls-11" x="129.07" y="237.45" width="23.86" height="17.78"/><rect class="cls-11" x="161.72" y="251.93" width="26.75" height="22.45"/><rect class="cls-11" x="163.34" y="276.48" width="22.6" height="20.8"/><rect class="cls-11" x="98.82" y="249.05" width="12.3" height="18.89"/><line class="cls-12" x1="126.97" y1="265.17" x2="112.55" y2="265.17"/><polygon class="cls-13" points="112.85 264.17 111.12 265.17 112.85 266.17 112.85 264.17"/><line class="cls-12" x1="141.59" y1="256.66" x2="141.59" y2="259.94"/><polygon class="cls-13" points="140.59 256.96 141.59 255.23 142.58 256.96 140.59 256.96"/><line class="cls-12" x1="126.97" y1="277.24" x2="122.29" y2="277.24"/><polygon class="cls-13" points="122.58 276.24 120.85 277.24 122.58 278.24 122.58 276.24"/><line class="cls-12" x1="140.29" y1="280.73" x2="140.29" y2="285.72"/><polygon class="cls-13" points="139.29 285.42 140.29 287.15 141.29 285.42 139.29 285.42"/><line class="cls-12" x1="151.78" y1="278.62" x2="161.9" y2="278.62"/><polygon class="cls-13" points="161.61 279.62 163.34 278.62 161.61 277.62 161.61 279.62"/><line class="cls-12" x1="151.78" y1="267.21" x2="160.28" y2="267.21"/><polygon class="cls-13" points="159.99 268.2 161.72 267.21 159.99 266.21 159.99 268.2"/><line class="cls-14" x1="93.22" y1="291.18" x2="120.85" y2="291.18"/><line class="cls-14" x1="128.8" y1="289.29" x2="151.78" y2="289.29"/><line class="cls-14" x1="128.8" y1="305.85" x2="151.78" y2="305.85"/><line class="cls-14" x1="126.97" y1="262.03" x2="151.78" y2="262.03"/><line class="cls-15" x1="126.97" y1="278.62" x2="151.78" y2="278.62"/><line class="cls-14" x1="129.07" y1="239.48" x2="152.93" y2="239.48"/><line class="cls-14" x1="129.07" y1="252.72" x2="152.93" y2="252.72"/><line class="cls-14" x1="161.72" y1="272.13" x2="188.47" y2="272.13"/><line class="cls-14" x1="161.72" y1="254.08" x2="188.47" y2="254.08"/><line class="cls-14" x1="163.34" y1="278.62" x2="185.94" y2="278.62"/><line class="cls-14" x1="163.34" y1="295" x2="185.94" y2="295"/><line class="cls-14" x1="98.82" y1="252.67" x2="111.12" y2="252.67"/><line class="cls-14" x1="93.22" y1="273.12" x2="120.85" y2="273.12"/><path class="cls-16" d="M95.06,292.18h-.71A.37.37,0,0,0,94,292a.36.36,0,0,0-.36.36.36.36,0,0,0,.68.18h.56Z"/><path class="cls-16" d="M130.7,306.81H130a.36.36,0,0,0-.68.17.37.37,0,0,0,.37.37.36.36,0,0,0,.31-.19h.56Z"/><path class="cls-16" d="M128.75,279.5H128a.35.35,0,0,0-.32-.19.36.36,0,1,0,.32.54h.56Z"/><path class="cls-16" d="M130.93,253.79h-.71a.37.37,0,0,0-.32-.18.36.36,0,1,0,0,.72.37.37,0,0,0,.32-.18h.55Z"/><path class="cls-16" d="M163.57,273h-.72a.36.36,0,0,0-.31-.19.38.38,0,0,0-.37.37.37.37,0,0,0,.37.36.36.36,0,0,0,.31-.19h.56Z"/><path class="cls-16" d="M165.17,295.93h-.71a.36.36,0,0,0-.68.18.36.36,0,0,0,.36.36.37.37,0,0,0,.32-.19H165Z"/><text class="cls-17" transform="translate(101.03 250.68)">DIM_VENDA_<tspan x="0" y="1.32">D</tspan><tspan class="cls-18" x="0.79" y="1.32">AT</tspan><tspan class="cls-19" x="2.03" y="1.32">A</tspan></text><text class="cls-17" transform="translate(100.5 272.44)">DIM_VENDA_VENDEDOR</text><text class="cls-17" transform="translate(136.08 261.34)"><tspan class="cls-20">F</tspan><tspan class="cls-18" x="0.61" y="0">A</tspan><tspan x="1.26" y="0">T_VENDAS</tspan></text><text class="cls-17" transform="translate(134.28 238.86)">DIM_VENDA_PROMOCAO</text><text class="cls-17" transform="translate(169.03 253.29)">DIM_VENDA_PRODU<tspan class="cls-21" x="10.99" y="0">T</tspan><tspan x="11.64" y="0">O</tspan></text><text class="cls-17" transform="translate(170.07 277.84)">DIM_VENDA_LOJ<tspan class="cls-20" x="9.04" y="0">A</tspan></text><text class="cls-17" transform="translate(134.51 288.54)">DIM_VENDA_CLIENTE</text><text class="cls-22" transform="translate(131.25 254.34)">DIM_PROMOCAO_PK (sk_promocao)</text><text class="cls-22" transform="translate(165.63 296.47)">DIM_LOJA_PK (sk_loja)</text><text class="cls-22" transform="translate(164.06 273.59)">DIM_PRODU<tspan class="cls-21" x="6.59" y="0">T</tspan><tspan class="cls-23" x="7.24" y="0">O_PK (sk_produto)</tspan></text><text class="cls-22" transform="translate(130.99 307.27)">DIM_CLIENTE_PK (sk_cliente)</text><text class="cls-22" transform="translate(129.07 279.99)"><tspan class="cls-20">F</tspan><tspan class="cls-18" x="0.61" y="0">A</tspan><tspan class="cls-21" x="1.26" y="0">T</tspan><tspan x="1.91" y="0">O_VENDAS_PK (sk_vendedo</tspan><tspan class="cls-20" x="16.57" y="0">r</tspan><tspan class="cls-24" x="16.88" y="0">, sk_prod)</tspan></text><text class="cls-22" transform="translate(95.43 292.67)">DIM_VENDEDOR_PK (sk_vendedor)</text><text class="cls-25" transform="translate(142.18 241.07)">NUMBER (9)</text><text class="cls-25" transform="translate(142.18 242.64)">NUMBER (9)</text><text class="cls-25" transform="translate(142.18 244.21)"><tspan class="cls-18">V</tspan><tspan x="0.65" y="0">ARCHAR2 (40)</tspan></text><text class="cls-25" transform="translate(142.18 245.78)"><tspan class="cls-18">V</tspan><tspan x="0.65" y="0">ARCHAR2 (100)</tspan></text><text class="cls-25" transform="translate(142.18 247.35)"><tspan class="cls-18">V</tspan><tspan x="0.65" y="0">ARCHAR2 (100)</tspan></text><text class="cls-25" transform="translate(142.18 248.92)">D<tspan class="cls-18" x="0.79" y="0">A</tspan><tspan x="1.45" y="0">TE</tspan></text><text class="cls-25" transform="translate(142.18 250.49)">D<tspan class="cls-18" x="0.79" y="0">A</tspan><tspan x="1.45" y="0">TE</tspan></text><text class="cls-25" transform="translate(142.18 252.06)">NUMBER (<tspan class="cls-26" x="5.43" y="0">1</tspan><tspan x="5.96" y="0">1)</tspan></text><text class="cls-25" transform="translate(175.41 279.99)">NUMBER (9)</text><text class="cls-25" transform="translate(175.41 281.56)">NUMBER (9)</text><text class="cls-25" transform="translate(175.41 283.13)"><tspan class="cls-18">V</tspan><tspan x="0.65" y="0">ARCHAR2 (25)</tspan></text><text class="cls-25" transform="translate(175.41 284.7)"><tspan class="cls-18">V</tspan><tspan x="0.65" y="0">ARCHAR2 (80)</tspan></text><text class="cls-25" transform="translate(175.41 286.27)"><tspan class="cls-18">V</tspan><tspan x="0.65" y="0">ARCHAR (120)</tspan></text><text class="cls-25" transform="translate(175.41 287.83)"><tspan class="cls-18">V</tspan><tspan x="0.65" y="0">ARCHAR2 (80)</tspan></text><text class="cls-25" transform="translate(175.41 289.4)">CHAR (2)</text><text class="cls-25" transform="translate(175.41 290.97)">D<tspan class="cls-18" x="0.79" y="0">A</tspan><tspan x="1.45" y="0">TE</tspan></text><text class="cls-25" transform="translate(175.41 292.54)">D<tspan class="cls-18" x="0.79" y="0">A</tspan><tspan x="1.45" y="0">TE</tspan></text><text class="cls-25" transform="translate(175.41 294.11)">NUMBER (<tspan class="cls-26" x="5.43" y="0">1</tspan><tspan x="5.96" y="0">1)</tspan></text><text class="cls-25" transform="translate(177.98 255.59)">NUMBER (9)</text><text class="cls-25" transform="translate(177.98 257.16)">NUMBER (9)</text><text class="cls-25" transform="translate(177.98 258.73)"><tspan class="cls-18">V</tspan><tspan x="0.65" y="0">ARCHAR2 (20)</tspan></text><text class="cls-25" transform="translate(177.98 260.3)"><tspan class="cls-18">V</tspan><tspan x="0.65" y="0">ARCHAR2 (128)</tspan></text><text class="cls-25" transform="translate(177.98 261.87)"><tspan class="cls-18">V</tspan><tspan x="0.65" y="0">ARCHAR2 (60)</tspan></text><text class="cls-25" transform="translate(177.98 263.44)">NUMBER (2)</text><text class="cls-25" transform="translate(177.98 265.01)">CHAR (3)</text><text class="cls-25" transform="translate(177.98 266.58)"><tspan class="cls-18">V</tspan><tspan x="0.65" y="0">ARCHAR2 (30)</tspan></text><text class="cls-25" transform="translate(177.98 268.15)">D<tspan class="cls-18" x="0.79" y="0">A</tspan><tspan x="1.45" y="0">TE</tspan></text><text class="cls-25" transform="translate(177.98 269.72)">D<tspan class="cls-18" x="0.79" y="0">A</tspan><tspan x="1.45" y="0">TE</tspan></text><text class="cls-25" transform="translate(177.98 271.24)">NUMBER (<tspan class="cls-26" x="5.43" y="0">1</tspan><tspan x="5.96" y="0">1)</tspan></text><text class="cls-25" transform="translate(141.93 290.68)">NUMBER (9)</text><text class="cls-25" transform="translate(141.93 292.25)">NUMBER (9)</text><text class="cls-25" transform="translate(141.93 293.82)"><tspan class="cls-18">V</tspan><tspan x="0.65" y="0">ARCHAR 2(80)</tspan></text><text class="cls-25" transform="translate(141.93 295.39)">D<tspan class="cls-18" x="0.79" y="0">A</tspan><tspan x="1.45" y="0">TE</tspan></text><text class="cls-25" transform="translate(141.93 296.96)">CHAR (1)</text><text class="cls-25" transform="translate(141.93 298.53)"><tspan class="cls-18">V</tspan><tspan x="0.65" y="0">ARCHAR2 (25)</tspan></text><text class="cls-25" transform="translate(141.93 300.1)"><tspan class="cls-18">V</tspan><tspan x="0.65" y="0">ARCHAR (60)</tspan></text><text class="cls-25" transform="translate(141.93 301.67)">D<tspan class="cls-18" x="0.79" y="0">A</tspan><tspan x="1.45" y="0">TE</tspan></text><text class="cls-25" transform="translate(141.93 303.24)">D<tspan class="cls-18" x="0.79" y="0">A</tspan><tspan x="1.45" y="0">TE</tspan></text><text class="cls-25" transform="translate(141.93 304.81)">NUMBER (<tspan class="cls-26" x="5.43" y="0">1</tspan><tspan x="5.96" y="0">1)</tspan></text><text class="cls-25" transform="translate(141.59 263.6)">NUMBER (9)</text><text class="cls-25" transform="translate(141.59 265.17)">NUMBER (9)</text><text class="cls-25" transform="translate(141.59 266.74)">NUMBER (9)</text><text class="cls-25" transform="translate(141.59 268.31)">NUMBER (9)</text><text class="cls-25" transform="translate(141.59 269.88)">NUMBER (9)</text><text class="cls-25" transform="translate(141.59 271.45)">NUMBER (9)</text><text class="cls-25" transform="translate(141.59 273.02)">NUMBER (6)</text><text class="cls-25" transform="translate(141.59 274.59)">NUMBER (3)</text><text class="cls-25" transform="translate(141.59 276.16)">NUMBER (6,2)</text><text class="cls-25" transform="translate(141.59 277.73)">NUMBER (9,2)</text><text class="cls-25" transform="translate(110.34 274.65)">NUMBER (9)</text><text class="cls-25" transform="translate(110.34 276.22)">NUMBER (9)</text><text class="cls-25" transform="translate(110.34 277.79)"><tspan class="cls-18">V</tspan><tspan x="0.65" y="0">ARCHAR2 (60)</tspan></text><text class="cls-25" transform="translate(110.34 279.36)">D<tspan class="cls-18" x="0.79" y="0">A</tspan><tspan x="1.45" y="0">TE</tspan></text><text class="cls-25" transform="translate(110.34 280.93)">CHAR (9)</text><text class="cls-25" transform="translate(110.34 282.5)">D<tspan class="cls-18" x="0.79" y="0">A</tspan><tspan x="1.45" y="0">TE</tspan></text><text class="cls-25" transform="translate(110.34 284.07)">NUMBER (2)</text><text class="cls-25" transform="translate(110.34 285.64)"><tspan class="cls-18">V</tspan><tspan x="0.65" y="0">ARCHAR2 (60)</tspan></text><text class="cls-25" transform="translate(110.34 287.21)">D<tspan class="cls-18" x="0.79" y="0">A</tspan><tspan x="1.45" y="0">TE</tspan></text><text class="cls-25" transform="translate(110.34 288.78)">D<tspan class="cls-18" x="0.79" y="0">A</tspan><tspan x="1.45" y="0">TE</tspan></text><text class="cls-25" transform="translate(110.34 290.35)">NUMBER (<tspan class="cls-26" x="5.43" y="0">1</tspan><tspan x="5.96" y="0">1)</tspan></text><text class="cls-27" transform="translate(93.75 274.65)">P</text><text class="cls-17" transform="translate(127.22 263.6)">PF</text><text class="cls-17" transform="translate(127.22 265.17)">PF</text><text class="cls-17" transform="translate(127.22 266.74)">PF</text><text class="cls-17" transform="translate(127.22 268.31)">PF</text><text class="cls-17" transform="translate(127.22 269.88)">PF</text><text class="cls-17" transform="translate(127.22 271.45)">PF</text><text class="cls-27" transform="translate(127.22 273.02)">P</text><text class="cls-27" transform="translate(129.54 241.07)">P</text><text class="cls-27" transform="translate(162.18 255.59)">P</text><text class="cls-27" transform="translate(163.81 279.99)">P</text><text class="cls-27" transform="translate(129.32 290.68)">P</text><text class="cls-27" transform="translate(99.19 254.18)">P</text><text class="cls-28" transform="translate(95.01 274.65)">*</text><text class="cls-29" transform="translate(128.91 263.6)">*</text><text class="cls-29" transform="translate(128.91 265.17)">*</text><text class="cls-29" transform="translate(128.91 266.74)">*</text><text class="cls-29" transform="translate(128.91 268.31)">*</text><text class="cls-29" transform="translate(128.91 269.88)">*</text><text class="cls-29" transform="translate(128.91 271.45)">*</text><text class="cls-29" transform="translate(128.91 273.02)">*</text><text class="cls-28" transform="translate(130.83 241.07)">*</text><text class="cls-28" transform="translate(163.54 255.59)">*</text><text class="cls-28" transform="translate(165.11 279.99)">*</text><text class="cls-28" transform="translate(130.63 290.68)">*</text><text class="cls-28" transform="translate(100.61 254.18)">*</text><text class="cls-22" transform="translate(96.21 274.65)">sk_vendedor</text><text class="cls-22" transform="translate(96.21 276.22)">nk_vendedor</text><text class="cls-22" transform="translate(96.21 277.79)">nm_vendedor</text><text class="cls-22" transform="translate(96.21 279.36)">dt_nascimento</text><text class="cls-22" transform="translate(96.21 280.93)">ds_sexo</text><text class="cls-22" transform="translate(96.21 282.5)">dt_contratacao</text><text class="cls-22" transform="translate(96.21 284.07)">cd_faixa_bonificacao</text><text class="cls-22" transform="translate(96.21 285.64)">ds_faixa_bonificacao</text><text class="cls-22" transform="translate(96.21 287.21)">dtc_ini</text><text class="cls-22" transform="translate(96.21 288.78)">dte_fim</text><text class="cls-22" transform="translate(96.21 290.35)">version</text><text class="cls-22" transform="translate(129.84 263.6)">sk_data</text><text class="cls-22" transform="translate(129.84 265.17)">sk_cliente</text><text class="cls-22" transform="translate(129.84 266.74)">sk_vendedor</text><text class="cls-22" transform="translate(129.84 268.31)">sk_promocao</text><text class="cls-22" transform="translate(129.84 269.88)">sk_produto</text><text class="cls-22" transform="translate(129.84 271.45)">sk_loja</text><text class="cls-22" transform="translate(129.84 273.02)">dd_nota_fiscal</text><text class="cls-22" transform="translate(129.84 274.59)">qtd_vendida</text><text class="cls-22" transform="translate(129.84 276.16)">vl_preco_unitario</text><text class="cls-22" transform="translate(132.04 241.07)">sk_promocao</text><text class="cls-22" transform="translate(132.04 242.64)">nk_promocao</text><text class="cls-22" transform="translate(132.04 244.21)">nm_promocao</text><text class="cls-22" transform="translate(132.04 245.78)">ds_promocao</text><text class="cls-22" transform="translate(132.04 247.35)">obs_promocao</text><text class="cls-22" transform="translate(132.04 248.92)">dtc_ini</text><text class="cls-22" transform="translate(132.04 250.49)">dtc_fim</text><text class="cls-22" transform="translate(132.04 252.06)">version</text><text class="cls-22" transform="translate(129.84 277.73)">vl_total_preco</text><text class="cls-22" transform="translate(164.63 255.59)">sk_produto</text><text class="cls-22" transform="translate(164.63 257.16)">nk_produto</text><text class="cls-22" transform="translate(164.63 258.73)">nm_produto</text><text class="cls-22" transform="translate(164.63 260.3)">ds_produto</text><text class="cls-22" transform="translate(164.63 261.87)">nm_marca</text><text class="cls-22" transform="translate(164.63 263.44)">nk_unidade_medida</text><text class="cls-22" transform="translate(164.63 265.01)">ds_sigla</text><text class="cls-22" transform="translate(164.63 266.58)">ds_unidade_medida</text><text class="cls-22" transform="translate(164.63 268.15)">dtc_ini</text><text class="cls-22" transform="translate(164.63 269.72)">dtc_fim</text><text class="cls-22" transform="translate(164.63 271.24)">version</text><text class="cls-22" transform="translate(166.36 279.99)">sk_loja</text><text class="cls-22" transform="translate(166.36 281.56)">nk_loja</text><text class="cls-22" transform="translate(166.36 283.13)">nm_loja</text><text class="cls-22" transform="translate(166.36 284.7)">ds_loja</text><text class="cls-22" transform="translate(166.36 286.27)">ds_endereco</text><text class="cls-22" transform="translate(166.36 287.83)">nm_cidade</text><text class="cls-22" transform="translate(166.36 289.4)">sg_uf</text><text class="cls-22" transform="translate(166.36 290.97)">dtc_ini</text><text class="cls-22" transform="translate(166.36 292.54)">dtc_fim</text><text class="cls-22" transform="translate(166.36 294.11)">version</text><text class="cls-22" transform="translate(131.88 290.68)">sk_cliente</text><text class="cls-22" transform="translate(131.88 292.25)">nk_cliente</text><text class="cls-22" transform="translate(131.88 293.82)">nm_cliente</text><text class="cls-22" transform="translate(131.88 295.39)">dt_nascimento</text><text class="cls-22" transform="translate(131.88 296.96)">ds_sexo</text><text class="cls-22" transform="translate(131.88 298.53)">nm_tipo</text><text class="cls-22" transform="translate(131.88 300.1)">ds_tipo</text><text class="cls-22" transform="translate(131.88 301.67)">dtc_ini</text><text class="cls-22" transform="translate(131.88 303.24)">dtc_fim</text><text class="cls-22" transform="translate(131.88 304.81)">version</text><text class="cls-22" transform="translate(101.76 254.18)">sk_data</text><text class="cls-22" transform="translate(101.76 255.75)">data</text><text class="cls-22" transform="translate(101.76 257.32)">data_extenso</text><text class="cls-22" transform="translate(101.76 258.89)">ano</text><text class="cls-22" transform="translate(101.76 260.46)">semestre</text><text class="cls-22" transform="translate(101.76 262.03)">trimestre</text><text class="cls-22" transform="translate(101.76 263.6)">bimestre</text><text class="cls-22" transform="translate(101.76 265.17)">mes</text><text class="cls-22" transform="translate(101.76 266.74)">feriado</text><polygon class="cls-30" points="109.82 266.74 110.74 266.74 110.28 267.52 109.82 266.74"/><polygon class="cls-31" points="150.33 279.6 151.25 279.6 150.79 280.38 150.33 279.6"/><path class="cls-4" d="M202.43,395s-10.06-2.23-17.61,3.64-19.19,1.67-19.19,1.67V372.65h36.8Z"/><polyline class="cls-4" points="169.03 372.65 169.03 368.75 206.41 368.75 206.41 392.15 202.43 392.15"/><polyline class="cls-4" points="173.35 368.96 173.35 365.06 209.76 365.06 209.76 388.46 206.76 388.46"/><path class="cls-4" d="M154.21,366.41s-10.06-2.24-17.61,3.63-19.19,1.68-19.19,1.68V344h36.8Z"/><polyline class="cls-4" points="120.81 344.04 120.81 340.14 158.19 340.14 158.19 363.55 154.21 363.55"/><polyline class="cls-4" points="125.14 340.35 125.14 336.45 161.54 336.45 161.54 359.86 158.54 359.86"/><text class="cls-6" transform="translate(171.6 386.69)">xlsx</text><text class="cls-6" transform="translate(124.45 356.71)">cvs</text><path class="cls-4" d="M434.92,274.65c0,2.75-9.26,5-20.68,5s-20.68-2.23-20.68-5V252.34h41.36Z"/><ellipse class="cls-5" cx="414.24" cy="252.34" rx="20.68" ry="4.98"/><path class="cls-4" d="M373.15,274.65c0,2.75-9.26,5-20.68,5s-20.68-2.23-20.68-5V252.34h41.36Z"/><ellipse class="cls-5" cx="352.47" cy="252.34" rx="20.68" ry="4.98"/><path class="cls-4" d="M493.71,274.65c0,2.75-9.25,5-20.67,5s-20.68-2.23-20.68-5V252.34h41.35Z"/><ellipse class="cls-5" cx="473.04" cy="252.34" rx="20.68" ry="4.98"/><line class="cls-1" x1="185.94" y1="348.15" x2="308.61" y2="284.37"/><line class="cls-32" x1="185.94" y1="348.15" x2="303.52" y2="287.02"/><polygon class="cls-33" points="304.33 291.1 308.62 284.37 300.65 284.02 304.33 291.1"/><path class="cls-32" d="M136.08,230.15s2.08-62,106-63.16c85.11-.91,98.29,43.27,100.27,59.32"/><polygon class="cls-33" points="338.25 225.43 342.71 232.04 346.2 224.87 338.25 225.43"/><path class="cls-32" d="M473,241.07s-.12-61.78,77.57-62.9c63.37-.91,75.79,41.53,78.21,57.2"/><polygon class="cls-33" points="624.67 234.66 629.41 241.07 632.6 233.76 624.67 234.66"/><path class="cls-32" d="M348.85,294.11s3.25,40.66,28.51,40.1c19.14-.44,25.33-23.44,27.19-34.4"/><polygon class="cls-33" points="408.3 301.5 405.3 294.12 400.4 300.41 408.3 301.5"/><path class="cls-32" d="M426.82,294.11s3.25,40.66,28.5,40.1c19.14-.44,25.33-23.44,27.2-34.4"/><polygon class="cls-33" points="486.26 301.5 483.26 294.12 478.36 300.41 486.26 301.5"/><rect class="cls-34" x="93.67" y="238.86" width="292.35" height="182.7"/></g></svg>