<svg xmlns="http://www.w3.org/2000/svg" viewBox="0 0 1000 784.09"><defs><style>.cls-1{fill:#fff;}.cls-2{fill:#ffeebf;}.cls-2,.cls-5{stroke:#305d8f;}.cls-2,.cls-3,.cls-5{stroke-miterlimit:10;}.cls-3,.cls-5{fill:none;}.cls-3{stroke:#303030;stroke-width:1.5px;}.cls-12,.cls-4{fill:#303030;}.cls-6{fill:gray;}.cls-12,.cls-14,.cls-16,.cls-17,.cls-7{font-size:10.4px;}.cls-16,.cls-19,.cls-7{fill:#305d8f;}.cls-12,.cls-14,.cls-16,.cls-17,.cls-18,.cls-7{font-family:ArialMT, Arial;}.cls-8{letter-spacing:-0.07em;}.cls-9{letter-spacing:-0.06em;}.cls-10{letter-spacing:-0.06em;}.cls-11,.cls-16{letter-spacing:-0.02em;}.cls-13{letter-spacing:0em;}.cls-14{fill:#51804c;}.cls-15{letter-spacing:-0.07em;}.cls-17,.cls-18{fill:#be1860;}.cls-18{font-size:8.92px;}.cls-20{fill:#c600ff;}</style></defs><title>7-vetores-fase6-Smart-City-TDS-2019</title><g id="Layer_14" data-name="Layer 14"><rect class="cls-1" width="1000" height="784.09"/><rect class="cls-2" x="49.14" y="375.26" width="261.57" height="212.84"/><rect class="cls-2" x="386.01" y="527.87" width="217.48" height="198.58"/><rect class="cls-2" x="368.67" y="270.55" width="234.82" height="196.81"/><rect class="cls-2" x="388.48" y="57.64" width="225.9" height="168.32"/><rect class="cls-2" x="697.61" y="194.76" width="253.25" height="212.52"/><rect class="cls-2" x="712.96" y="427.13" width="214.01" height="196.92"/><rect class="cls-2" x="102.14" y="167.48" width="116.42" height="178.86"/><polyline class="cls-3" points="368.67 312.6 357.09 320.07 368.67 326.34"/><line class="cls-3" x1="368.67" y1="320.07" x2="222.87" y2="320.07"/><polygon class="cls-4" points="223.74 317.08 218.56 320.07 223.74 323.06 223.74 317.08"/><line class="cls-3" x1="355.04" y1="312.6" x2="355.04" y2="326.34"/><polyline class="cls-3" points="501.43 270.55 507 260.64 512.58 270.55"/><line class="cls-3" x1="507" y1="230.27" x2="507" y2="270.55"/><polygon class="cls-4" points="504.01 231.15 507 225.97 510 231.15 504.01 231.15"/><line class="cls-3" x1="501.43" y1="257.56" x2="512.58" y2="257.56"/><polyline class="cls-3" points="368.67 427.13 357.09 434.28 368.67 441.59"/><line class="cls-3" x1="355.04" y1="427.13" x2="355.04" y2="441.59"/><line class="cls-3" x1="368.67" y1="434.36" x2="315.01" y2="434.36"/><polygon class="cls-4" points="315.89 431.37 310.7 434.36 315.89 437.35 315.89 431.37"/><polyline class="cls-3" points="487.25 467.36 495.05 481.68 502.24 467.36"/><line class="cls-3" x1="494.74" y1="467.36" x2="494.74" y2="523.88"/><polygon class="cls-4" points="491.75 523.01 494.74 528.19 497.74 523.01 491.75 523.01"/><line class="cls-3" x1="488.8" y1="483.32" x2="502.24" y2="483.32"/><line class="cls-3" x1="603.48" y1="447.41" x2="708.66" y2="447.41"/><polygon class="cls-4" points="707.78 450.4 712.97 447.41 707.78 444.41 707.78 450.4"/><polyline class="cls-3" points="603.48 441.59 614.75 447.41 603.48 455.08"/><line class="cls-3" x1="617.35" y1="441.59" x2="617.35" y2="455.08"/><line class="cls-3" x1="603.48" y1="339.35" x2="693.3" y2="339.35"/><polygon class="cls-4" points="692.43 342.34 697.61 339.35 692.43 336.36 692.43 342.34"/><polyline class="cls-3" points="603.48 333.08 614.38 339.35 603.48 346.59"/><line class="cls-3" x1="616.61" y1="333.08" x2="616.61" y2="346.59"/><line class="cls-5" x1="49.14" y1="566.3" x2="310.71" y2="566.3"/><line class="cls-5" x1="386.01" y1="548.47" x2="603.48" y2="548.47"/><line class="cls-5" x1="386.01" y1="705.25" x2="603.48" y2="705.25"/><line class="cls-5" x1="368.67" y1="290.37" x2="603.48" y2="290.37"/><line class="cls-5" x1="368.67" y1="447.41" x2="603.48" y2="447.41"/><line class="cls-5" x1="388.48" y1="76.86" x2="614.38" y2="76.86"/><line class="cls-5" x1="388.48" y1="202.19" x2="614.38" y2="202.19"/><line class="cls-5" x1="697.61" y1="385.98" x2="950.86" y2="385.98"/><line class="cls-5" x1="697.61" y1="215.07" x2="950.86" y2="215.07"/><line class="cls-5" x1="712.96" y1="447.41" x2="926.97" y2="447.41"/><line class="cls-5" x1="712.96" y1="602.46" x2="926.97" y2="602.46"/><line class="cls-5" x1="102.14" y1="201.69" x2="218.56" y2="201.69"/><line class="cls-5" x1="49.14" y1="395.39" x2="310.71" y2="395.39"/><path class="cls-6" d="M66.54,575.79H59.78a3.44,3.44,0,1,0,0,3.33h5.27Z"/><path class="cls-6" d="M403.9,714.29h-6.76a3.44,3.44,0,1,0,0,3.33h5.27Z"/><path class="cls-6" d="M385.51,455.72h-6.76a3.44,3.44,0,1,0,0,3.33H384Z"/><path class="cls-6" d="M406.13,212.38h-6.76a3.44,3.44,0,1,0,0,3.33h5.27Z"/><path class="cls-6" d="M715.12,394.32h-6.76a3.44,3.44,0,1,0,0,3.33h5.27Z"/><path class="cls-6" d="M730.32,611.32h-6.76a3.44,3.44,0,1,0,0,3.33h5.27Z"/><text class="cls-7" transform="translate(122.95 182.87)">DIM_VENDA_<tspan x="0" y="12.48">D</tspan><tspan class="cls-8" x="7.51" y="12.48">AT</tspan><tspan class="cls-9" x="19.26" y="12.48">A</tspan></text><text class="cls-7" transform="translate(118 388.95)">DIM_VENDA_VENDEDOR</text><text class="cls-7" transform="translate(454.87 283.81)"><tspan class="cls-10">F</tspan><tspan class="cls-8" x="5.78" y="0">A</tspan><tspan x="11.95" y="0">T_VENDAS</tspan></text><text class="cls-7" transform="translate(437.78 70.98)">DIM_VENDA_PROMOCAO</text><text class="cls-7" transform="translate(766.79 207.64)">DIM_VENDA_PRODU<tspan class="cls-11" x="104.05" y="0">T</tspan><tspan x="110.22" y="0">O</tspan></text><text class="cls-7" transform="translate(776.7 440.1)">DIM_VENDA_LOJ<tspan class="cls-9" x="85.56" y="0">A</tspan></text><text class="cls-7" transform="translate(440 541.35)">DIM_VENDA_CLIENTE</text><text class="cls-12" transform="translate(409.15 217.54)">DIM_PROMOCAO_PK (sk_promocao)</text><text class="cls-12" transform="translate(734.63 616.42)">DIM_LOJA_PK (sk_loja)</text><text class="cls-12" transform="translate(719.76 399.85)">DIM_PRODU<tspan class="cls-11" x="62.42" y="0">T</tspan><tspan x="68.59" y="0">O_PK (sk_produto)</tspan></text><text class="cls-12" transform="translate(406.68 718.7)">DIM_CLIENTE_PK (sk_cliente)</text><text class="cls-12" transform="translate(388.48 460.37)"><tspan class="cls-10">F</tspan><tspan class="cls-8" x="5.78" y="0">A</tspan><tspan class="cls-11" x="11.95" y="0">T</tspan><tspan x="18.11" y="0">O_VENDAS_PK (sk_vendedo</tspan><tspan class="cls-9" x="156.9" y="0">r</tspan><tspan class="cls-13" x="159.79" y="0">, sk_prod)</tspan></text><text class="cls-12" transform="translate(69.95 580.41)">DIM_VENDEDOR_PK (sk_vendedor)</text><text class="cls-14" transform="translate(512.58 91.96)">NUMBER (9)</text><text class="cls-14" transform="translate(512.58 106.82)">NUMBER (9)</text><text class="cls-14" transform="translate(512.58 121.69)"><tspan class="cls-8">V</tspan><tspan x="6.17" y="0">ARCHAR2 (40)</tspan></text><text class="cls-14" transform="translate(512.58 136.55)"><tspan class="cls-8">V</tspan><tspan x="6.17" y="0">ARCHAR2 (100)</tspan></text><text class="cls-14" transform="translate(512.58 151.41)"><tspan class="cls-8">V</tspan><tspan x="6.17" y="0">ARCHAR2 (100)</tspan></text><text class="cls-14" transform="translate(512.58 166.27)">D<tspan class="cls-8" x="7.51" y="0">A</tspan><tspan x="13.68" y="0">TE</tspan></text><text class="cls-14" transform="translate(512.58 181.13)">D<tspan class="cls-8" x="7.51" y="0">A</tspan><tspan x="13.68" y="0">TE</tspan></text><text class="cls-14" transform="translate(512.58 196)">NUMBER (<tspan class="cls-15" x="51.44" y="0">1</tspan><tspan x="56.45" y="0">1)</tspan></text><text class="cls-14" transform="translate(827.26 460.37)">NUMBER (9)</text><text class="cls-14" transform="translate(827.26 475.24)">NUMBER (9)</text><text class="cls-14" transform="translate(827.26 490.1)"><tspan class="cls-8">V</tspan><tspan x="6.17" y="0">ARCHAR2 (25)</tspan></text><text class="cls-14" transform="translate(827.26 504.96)"><tspan class="cls-8">V</tspan><tspan x="6.17" y="0">ARCHAR2 (80)</tspan></text><text class="cls-14" transform="translate(827.26 519.82)"><tspan class="cls-8">V</tspan><tspan x="6.17" y="0">ARCHAR (120)</tspan></text><text class="cls-14" transform="translate(827.26 534.68)"><tspan class="cls-8">V</tspan><tspan x="6.17" y="0">ARCHAR2 (80)</tspan></text><text class="cls-14" transform="translate(827.26 549.55)">CHAR (2)</text><text class="cls-14" transform="translate(827.26 564.41)">D<tspan class="cls-8" x="7.51" y="0">A</tspan><tspan x="13.68" y="0">TE</tspan></text><text class="cls-14" transform="translate(827.26 579.27)">D<tspan class="cls-8" x="7.51" y="0">A</tspan><tspan x="13.68" y="0">TE</tspan></text><text class="cls-14" transform="translate(827.26 594.13)">NUMBER (<tspan class="cls-15" x="51.44" y="0">1</tspan><tspan x="56.45" y="0">1)</tspan></text><text class="cls-14" transform="translate(851.54 229.43)">NUMBER (9)</text><text class="cls-14" transform="translate(851.54 244.29)">NUMBER (9)</text><text class="cls-14" transform="translate(851.54 259.15)"><tspan class="cls-8">V</tspan><tspan x="6.17" y="0">ARCHAR2 (20)</tspan></text><text class="cls-14" transform="translate(851.54 274.02)"><tspan class="cls-8">V</tspan><tspan x="6.17" y="0">ARCHAR2 (128)</tspan></text><text class="cls-14" transform="translate(851.54 288.88)"><tspan class="cls-8">V</tspan><tspan x="6.17" y="0">ARCHAR2 (60)</tspan></text><text class="cls-14" transform="translate(851.54 303.74)">NUMBER (2)</text><text class="cls-14" transform="translate(851.54 318.6)">CHAR (3)</text><text class="cls-14" transform="translate(851.54 333.46)"><tspan class="cls-8">V</tspan><tspan x="6.17" y="0">ARCHAR2 (30)</tspan></text><text class="cls-14" transform="translate(851.54 348.33)">D<tspan class="cls-8" x="7.51" y="0">A</tspan><tspan x="13.68" y="0">TE</tspan></text><text class="cls-14" transform="translate(851.54 363.19)">D<tspan class="cls-8" x="7.51" y="0">A</tspan><tspan x="13.68" y="0">TE</tspan></text><text class="cls-14" transform="translate(851.54 377.55)">NUMBER (<tspan class="cls-15" x="51.44" y="0">1</tspan><tspan x="56.45" y="0">1)</tspan></text><text class="cls-14" transform="translate(510.21 561.66)">NUMBER (9)</text><text class="cls-14" transform="translate(510.21 576.53)">NUMBER (9)</text><text class="cls-14" transform="translate(510.21 591.39)"><tspan class="cls-8">V</tspan><tspan x="6.17" y="0">ARCHAR 2(80)</tspan></text><text class="cls-14" transform="translate(510.21 606.25)">D<tspan class="cls-8" x="7.51" y="0">A</tspan><tspan x="13.68" y="0">TE</tspan></text><text class="cls-14" transform="translate(510.21 621.11)">CHAR (1)</text><text class="cls-14" transform="translate(510.21 635.97)"><tspan class="cls-8">V</tspan><tspan x="6.17" y="0">ARCHAR2 (25)</tspan></text><text class="cls-14" transform="translate(510.21 650.84)"><tspan class="cls-8">V</tspan><tspan x="6.17" y="0">ARCHAR (60)</tspan></text><text class="cls-14" transform="translate(510.21 665.7)">D<tspan class="cls-8" x="7.51" y="0">A</tspan><tspan x="13.68" y="0">TE</tspan></text><text class="cls-14" transform="translate(510.21 680.56)">D<tspan class="cls-8" x="7.51" y="0">A</tspan><tspan x="13.68" y="0">TE</tspan></text><text class="cls-14" transform="translate(510.21 695.42)">NUMBER (<tspan class="cls-15" x="51.44" y="0">1</tspan><tspan x="56.45" y="0">1)</tspan></text><text class="cls-14" transform="translate(507.01 305.23)">NUMBER (9)</text><text class="cls-14" transform="translate(507.01 320.09)">NUMBER (9)</text><text class="cls-14" transform="translate(507.01 334.95)">NUMBER (9)</text><text class="cls-14" transform="translate(507.01 349.81)">NUMBER (9)</text><text class="cls-14" transform="translate(507.01 364.67)">NUMBER (9)</text><text class="cls-14" transform="translate(507.01 379.54)">NUMBER (9)</text><text class="cls-14" transform="translate(507.01 394.4)">NUMBER (6)</text><text class="cls-14" transform="translate(507.01 409.26)">NUMBER (3)</text><text class="cls-14" transform="translate(507.01 424.12)">NUMBER (6,2)</text><text class="cls-14" transform="translate(507.01 438.98)">NUMBER (9,2)</text><text class="cls-14" transform="translate(211.13 409.84)">NUMBER (9)</text><text class="cls-14" transform="translate(211.13 424.7)">NUMBER (9)</text><text class="cls-14" transform="translate(211.13 439.56)"><tspan class="cls-8">V</tspan><tspan x="6.17" y="0">ARCHAR2 (60)</tspan></text><text class="cls-14" transform="translate(211.13 454.43)">D<tspan class="cls-8" x="7.51" y="0">A</tspan><tspan x="13.68" y="0">TE</tspan></text><text class="cls-14" transform="translate(211.13 469.29)">CHAR (9)</text><text class="cls-14" transform="translate(211.13 484.15)">D<tspan class="cls-8" x="7.51" y="0">A</tspan><tspan x="13.68" y="0">TE</tspan></text><text class="cls-14" transform="translate(211.13 499.01)">NUMBER (2)</text><text class="cls-14" transform="translate(211.13 513.87)"><tspan class="cls-8">V</tspan><tspan x="6.17" y="0">ARCHAR2 (60)</tspan></text><text class="cls-14" transform="translate(211.13 528.73)">D<tspan class="cls-8" x="7.51" y="0">A</tspan><tspan x="13.68" y="0">TE</tspan></text><text class="cls-14" transform="translate(211.13 543.6)">D<tspan class="cls-8" x="7.51" y="0">A</tspan><tspan x="13.68" y="0">TE</tspan></text><text class="cls-14" transform="translate(211.13 558.46)">NUMBER (<tspan class="cls-15" x="51.44" y="0">1</tspan><tspan x="56.45" y="0">1)</tspan></text><text class="cls-16" transform="translate(54.09 409.84)">P</text><text class="cls-7" transform="translate(371.01 305.23)">PF</text><text class="cls-7" transform="translate(371.01 320.09)">PF</text><text class="cls-7" transform="translate(371.01 334.95)">PF</text><text class="cls-7" transform="translate(371.01 349.81)">PF</text><text class="cls-7" transform="translate(371.01 364.67)">PF</text><text class="cls-7" transform="translate(371.01 379.54)">PF</text><text class="cls-16" transform="translate(371.01 394.4)">P</text><text class="cls-16" transform="translate(392.94 91.96)">P</text><text class="cls-16" transform="translate(701.93 229.43)">P</text><text class="cls-16" transform="translate(717.42 460.37)">P</text><text class="cls-16" transform="translate(390.82 561.66)">P</text><text class="cls-16" transform="translate(105.61 216.06)">P</text><text class="cls-17" transform="translate(65.98 409.84)">*</text><text class="cls-18" transform="translate(387 305.23)">*</text><text class="cls-18" transform="translate(387 320.09)">*</text><text class="cls-18" transform="translate(387 334.95)">*</text><text class="cls-18" transform="translate(387 349.81)">*</text><text class="cls-18" transform="translate(387 364.67)">*</text><text class="cls-18" transform="translate(387 379.54)">*</text><text class="cls-18" transform="translate(387 394.4)">*</text><text class="cls-17" transform="translate(405.19 91.96)">*</text><text class="cls-17" transform="translate(714.81 229.43)">*</text><text class="cls-17" transform="translate(729.67 460.37)">*</text><text class="cls-17" transform="translate(403.21 561.66)">*</text><text class="cls-17" transform="translate(118.99 216.06)">*</text><text class="cls-12" transform="translate(77.38 409.84)">sk_vendedor</text><text class="cls-12" transform="translate(77.38 424.7)">nk_vendedor</text><text class="cls-12" transform="translate(77.38 439.56)">nm_vendedor</text><text class="cls-12" transform="translate(77.38 454.43)">dt_nascimento</text><text class="cls-12" transform="translate(77.38 469.29)">ds_sexo</text><text class="cls-12" transform="translate(77.38 484.15)">dt_contratacao</text><text class="cls-12" transform="translate(77.38 499.01)">cd_faixa_bonificacao</text><text class="cls-12" transform="translate(77.38 513.87)">ds_faixa_bonificacao</text><text class="cls-12" transform="translate(77.38 528.73)">dtc_ini</text><text class="cls-12" transform="translate(77.38 543.6)">dte_fim</text><text class="cls-12" transform="translate(77.38 558.46)">version</text><text class="cls-12" transform="translate(395.78 305.23)">sk_data</text><text class="cls-12" transform="translate(395.78 320.09)">sk_cliente</text><text class="cls-12" transform="translate(395.78 334.95)">sk_vendedor</text><text class="cls-12" transform="translate(395.78 349.81)">sk_promocao</text><text class="cls-12" transform="translate(395.78 364.67)">sk_produto</text><text class="cls-12" transform="translate(395.78 379.54)">sk_loja</text><text class="cls-12" transform="translate(395.78 394.4)">dd_nota_fiscal</text><text class="cls-12" transform="translate(395.78 409.26)">qtd_vendida</text><text class="cls-12" transform="translate(395.78 424.12)">vl_preco_unitario</text><text class="cls-12" transform="translate(416.58 91.96)">sk_promocao</text><text class="cls-12" transform="translate(416.58 106.82)">nk_promocao</text><text class="cls-12" transform="translate(416.58 121.69)">nm_promocao</text><text class="cls-12" transform="translate(416.58 136.55)">ds_promocao</text><text class="cls-12" transform="translate(416.58 151.41)">obs_promocao</text><text class="cls-12" transform="translate(416.58 166.27)">dtc_ini</text><text class="cls-12" transform="translate(416.58 181.13)">dtc_fim</text><text class="cls-12" transform="translate(416.58 196)">version</text><text class="cls-12" transform="translate(395.78 438.98)">vl_total_preco</text><text class="cls-12" transform="translate(725.21 229.43)">sk_produto</text><text class="cls-12" transform="translate(725.21 244.29)">nk_produto</text><text class="cls-12" transform="translate(725.21 259.15)">nm_produto</text><text class="cls-12" transform="translate(725.21 274.02)">ds_produto</text><text class="cls-12" transform="translate(725.21 288.88)">nm_marca</text><text class="cls-12" transform="translate(725.21 303.74)">nk_unidade_medida</text><text class="cls-12" transform="translate(725.21 318.6)">ds_sigla</text><text class="cls-12" transform="translate(725.21 333.46)">ds_unidade_medida</text><text class="cls-12" transform="translate(725.21 348.33)">dtc_ini</text><text class="cls-12" transform="translate(725.21 363.19)">dtc_fim</text><text class="cls-12" transform="translate(725.21 377.55)">version</text><text class="cls-12" transform="translate(741.56 460.37)">sk_loja</text><text class="cls-12" transform="translate(741.56 475.24)">nk_loja</text><text class="cls-12" transform="translate(741.56 490.1)">nm_loja</text><text class="cls-12" transform="translate(741.56 504.96)">ds_loja</text><text class="cls-12" transform="translate(741.56 519.82)">ds_endereco</text><text class="cls-12" transform="translate(741.56 534.68)">nm_cidade</text><text class="cls-12" transform="translate(741.56 549.55)">sg_uf</text><text class="cls-12" transform="translate(741.56 564.41)">dtc_ini</text><text class="cls-12" transform="translate(741.56 579.27)">dtc_fim</text><text class="cls-12" transform="translate(741.56 594.13)">version</text><text class="cls-12" transform="translate(415.1 561.66)">sk_cliente</text><text class="cls-12" transform="translate(415.1 576.53)">nk_cliente</text><text class="cls-12" transform="translate(415.1 591.39)">nm_cliente</text><text class="cls-12" transform="translate(415.1 606.25)">dt_nascimento</text><text class="cls-12" transform="translate(415.1 621.11)">ds_sexo</text><text class="cls-12" transform="translate(415.1 635.97)">nm_tipo</text><text class="cls-12" transform="translate(415.1 650.84)">ds_tipo</text><text class="cls-12" transform="translate(415.1 665.7)">dtc_ini</text><text class="cls-12" transform="translate(415.1 680.56)">dtc_fim</text><text class="cls-12" transform="translate(415.1 695.42)">version</text><text class="cls-12" transform="translate(129.89 216.06)">sk_data</text><text class="cls-12" transform="translate(129.89 230.92)">data</text><text class="cls-12" transform="translate(129.89 245.78)">data_extenso</text><text class="cls-12" transform="translate(129.89 260.64)">ano</text><text class="cls-12" transform="translate(129.89 275.5)">semestre</text><text class="cls-12" transform="translate(129.89 290.37)">trimestre</text><text class="cls-12" transform="translate(129.89 305.23)">bimestre</text><text class="cls-12" transform="translate(129.89 320.09)">mes</text><text class="cls-12" transform="translate(129.89 334.95)">feriado</text><polygon class="cls-19" points="206.24 334.95 214.97 334.95 210.6 342.32 206.24 334.95"/><polygon class="cls-20" points="589.82 456.68 598.55 456.68 594.18 464.05 589.82 456.68"/></g></svg>