<svg xmlns="http://www.w3.org/2000/svg" viewBox="0 0 800 520"><defs><style>.cls-1{fill:#fff;}.cls-2,.cls-3,.cls-7{fill:none;}.cls-2,.cls-5{stroke:#3d6480;}.cls-2,.cls-3,.cls-5,.cls-7{stroke-miterlimit:10;}.cls-2,.cls-3,.cls-5{stroke-width:2px;}.cls-3{stroke:#e90419;}.cls-4{fill:#3d6480;}.cls-5{fill:#f4fdff;}.cls-6{fill:#09b10c;}.cls-7{stroke:#fff;stroke-width:3px;}.cls-10,.cls-8{font-size:19.81px;fill:#303030;font-family:ArialMT, Arial;}.cls-8{letter-spacing:-0.11em;}.cls-9{letter-spacing:0em;}</style></defs><title>7-vetores-fase6-Smart-City-TDS-2019</title><g id="Layer_7" data-name="Layer 7"><rect class="cls-1" x="1" width="800" height="522"/><rect class="cls-2" x="127.89" y="221.7" width="53.93" height="53.93" rx="6" ry="6"/><rect class="cls-2" x="375.61" y="221.7" width="53.93" height="53.93" rx="6" ry="6"/><rect class="cls-2" x="628.28" y="221.7" width="53.93" height="53.93" rx="6" ry="6"/><rect class="cls-2" x="382.17" y="231.47" width="20.63" height="6.6"/><rect class="cls-2" x="382.17" y="240.96" width="40.03" height="6.6"/><rect class="cls-2" x="382.17" y="250.45" width="20.63" height="6.6"/><rect class="cls-2" x="382.17" y="259.95" width="40.03" height="6.6"/><line class="cls-3" x1="407.21" y1="231.47" x2="413.81" y2="238.07"/><line class="cls-3" x1="413.81" y1="231.47" x2="407.21" y2="238.07"/><line class="cls-3" x1="407.21" y1="250.45" x2="413.81" y2="257.06"/><line class="cls-3" x1="413.81" y1="250.45" x2="407.21" y2="257.06"/><line class="cls-2" x1="164.76" y1="261.6" x2="172.08" y2="269.42"/><path class="cls-4" d="M165.54,268.05a.39.39,0,0,1,.49-.28l5.92,1.52-1.12-6a.4.4,0,0,1,.78-.14l1.25,6.63a.46.46,0,0,1-.12.37.41.41,0,0,1-.38.09l-6.53-1.68a.43.43,0,0,1-.2-.11A.4.4,0,0,1,165.54,268.05Z"/><polyline class="cls-5" points="154.85 264.9 140.54 264.9 140.54 233.81 158.15 233.81 158.29 240 163.66 239.86 163.66 255.54"/><line class="cls-2" x1="146.32" y1="245.78" x2="158.84" y2="245.78"/><line class="cls-2" x1="146.32" y1="250.04" x2="158.84" y2="250.04"/><line class="cls-2" x1="146.32" y1="254.31" x2="149.35" y2="254.31"/><line class="cls-2" x1="634.4" y1="229.41" x2="642.27" y2="237.79"/><path class="cls-4" d="M635.73,236.43a.41.41,0,0,1,.49-.29l5.93,1.51-1.14-6a.4.4,0,0,1,.32-.47.4.4,0,0,1,.46.32l1.26,6.63a.43.43,0,0,1-.12.37.39.39,0,0,1-.37.09L636,236.92a.35.35,0,0,1-.19-.12A.38.38,0,0,1,635.73,236.43Z"/><polyline class="cls-2" points="651.73 235.74 668.79 235.74 668.79 264.07 640.45 264.07 640.45 247.57"/><line class="cls-2" x1="642.93" y1="245.36" x2="668.79" y2="245.36"/><line class="cls-2" x1="640.45" y1="254.99" x2="668.79" y2="254.99"/><line class="cls-2" x1="649.81" y1="245.36" x2="649.81" y2="264.07"/><line class="cls-2" x1="660.26" y1="245.36" x2="660.26" y2="264.07"/><circle class="cls-6" cx="679.8" cy="224.25" r="12.45"/><polyline class="cls-7" points="673.58 222.97 678.44 227.76 686.4 220.6"/><circle class="cls-6" cx="429.53" cy="224.25" r="12.45"/><polyline class="cls-7" points="423.32 222.97 428.18 227.76 436.14 220.6"/><circle class="cls-6" cx="179.34" cy="224.25" r="12.45"/><polyline class="cls-7" points="173.13 222.97 177.98 227.76 185.94 220.6"/><line class="cls-2" x1="181.81" y1="250.04" x2="375.61" y2="250.04"/><line class="cls-2" x1="429.73" y1="250.04" x2="628.86" y2="250.04"/><polygon class="cls-4" points="310.02 249.9 303.97 240.96 327.91 250.04 303.97 258.85 310.02 249.9"/><polygon class="cls-4" points="562.59 249.9 556.54 240.96 580.48 250.04 556.54 258.85 562.59 249.9"/><text class="cls-8" transform="translate(597.22 301.77)">T<tspan class="cls-9" x="9.9" y="0">able output</tspan></text><text class="cls-10" transform="translate(350.3 301.77)">Select values</text><text class="cls-10" transform="translate(94.85 301.77)">CSV file input</text></g></svg>