<svg xmlns="http://www.w3.org/2000/svg" viewBox="0 0 800 520"><defs><style>.cls-1,.cls-3,.cls-5{fill:#fff;}.cls-12,.cls-14,.cls-15,.cls-2,.cls-32,.cls-34,.cls-4{fill:none;}.cls-2,.cls-3{stroke:#b3b3b3;}.cls-11,.cls-12,.cls-14,.cls-15,.cls-2,.cls-3,.cls-32,.cls-34,.cls-4,.cls-5{stroke-miterlimit:10;}.cls-2,.cls-3,.cls-32,.cls-34,.cls-4,.cls-5{stroke-width:2px;}.cls-4,.cls-5{stroke:gray;}.cls-6,.cls-8,.cls-9{font-size:13.41px;}.cls-13,.cls-22,.cls-6,.cls-8{fill:#303030;}.cls-17,.cls-22,.cls-25,.cls-27,.cls-28,.cls-29,.cls-6,.cls-9{font-family:ArialMT, Arial;}.cls-7{letter-spacing:-0.06em;}.cls-8{font-family:Arial-BoldMT, Arial;font-weight:700;}.cls-10{letter-spacing:-0.07em;}.cls-11{fill:#ffeebf;}.cls-11,.cls-14,.cls-15{stroke:#305d8f;}.cls-11,.cls-12,.cls-14{stroke-width:0.5px;}.cls-12{stroke:#303030;}.cls-15{stroke-width:0.25px;}.cls-16{fill:gray;}.cls-17,.cls-22,.cls-25,.cls-27,.cls-28{font-size:1.1px;}.cls-17,.cls-27,.cls-30{fill:#305d8f;}.cls-18{letter-spacing:-0.07em;}.cls-19{letter-spacing:-0.05em;}.cls-20{letter-spacing:-0.06em;}.cls-21,.cls-27{letter-spacing:-0.02em;}.cls-23{letter-spacing:0em;}.cls-24{letter-spacing:0em;}.cls-25{fill:#51804c;}.cls-26{letter-spacing:-0.07em;}.cls-28,.cls-29,.cls-33{fill:#be1860;}.cls-29{font-size:0.94px;}.cls-31{fill:#c600ff;}.cls-32{stroke:#be1860;}.cls-34{stroke:#006cbf;}</style></defs><title>7-vetores-fase6-Smart-City-TDS-2019</title><g id="Layer_18" data-name="Layer 18"><rect class="cls-1" x="1.1" width="798.39" height="517.63"/><path class="cls-2" d="M224.44,312.19c0,11.6-40.53,21-90.53,21s-90.54-9.41-90.54-21V227.1H224.44Z"/><ellipse class="cls-3" cx="133.91" cy="227.1" rx="90.54" ry="21.01"/><path class="cls-2" d="M495.47,312.19c0,11.6-40.53,21-90.53,21s-90.54-9.41-90.54-21V227.1H495.47Z"/><ellipse class="cls-3" cx="404.94" cy="227.1" rx="90.54" ry="21.01"/><path class="cls-2" d="M738.63,312.19c0,11.6-40.54,21-90.54,21s-90.54-9.41-90.54-21V227.1H738.63Z"/><ellipse class="cls-3" cx="648.09" cy="227.1" rx="90.54" ry="21.01"/><path class="cls-4" d="M628.09,296c0,2.23-9.38,4-21,4s-21-1.8-21-4V274.83h41.91Z"/><ellipse class="cls-5" cx="607.13" cy="274.83" rx="20.96" ry="4.03"/><text class="cls-6" transform="translate(656.91 280.15)">Data Mart<tspan class="cls-7" x="7.07" y="16.1">V</tspan><tspan x="15.27" y="16.1">endas</tspan></text><text class="cls-6" transform="translate(637.53 231.42)">DW</text><text class="cls-6" transform="translate(381.49 230.42)">Staging</text><text class="cls-6" transform="translate(80.35 231.45)">SIV</text><text class="cls-8" transform="translate(361.8 370.87)"><tspan class="cls-7">T</tspan><tspan x="7.45" y="0">ransformação</tspan></text><text class="cls-9" transform="translate(296.67 391.54)">Seleção, Limpeza, <tspan class="cls-10" x="114.08" y="0">V</tspan><tspan x="122.03" y="0">alidação, Junção,</tspan><tspan x="15.54" y="16.1">Aplicação de Regras de Negócio</tspan></text><text class="cls-8" transform="translate(189.58 126.01)">Extração</text><text class="cls-6" transform="translate(122.1 146.68)">Cópia das tabelas que possuem<tspan x="28.71" y="16.1">dados dos indicadores</tspan></text><text class="cls-8" transform="translate(527.52 126.01)">Carga</text><text class="cls-6" transform="translate(493.22 146.68)">Carrega os dados<tspan x="-11.91" y="16.1">transformados no DW</tspan></text><rect class="cls-11" x="84.22" y="287.06" width="27.63" height="22.48"/><rect class="cls-11" x="119.8" y="303.18" width="22.97" height="20.97"/><rect class="cls-11" x="117.97" y="276" width="24.8" height="20.79"/><rect class="cls-11" x="120.07" y="253.51" width="23.86" height="17.78"/><rect class="cls-11" x="152.72" y="267.99" width="26.75" height="22.45"/><rect class="cls-11" x="154.34" y="292.54" width="22.6" height="20.8"/><rect class="cls-11" x="89.82" y="265.11" width="12.3" height="18.89"/><line class="cls-12" x1="117.97" y1="281.23" x2="103.55" y2="281.23"/><polygon class="cls-13" points="103.84 280.23 102.12 281.23 103.84 282.23 103.84 280.23"/><line class="cls-12" x1="132.58" y1="272.72" x2="132.58" y2="276"/><polygon class="cls-13" points="131.59 273.02 132.58 271.29 133.58 273.02 131.59 273.02"/><line class="cls-12" x1="117.97" y1="293.3" x2="113.29" y2="293.3"/><polygon class="cls-13" points="113.58 292.3 111.85 293.3 113.58 294.3 113.58 292.3"/><line class="cls-12" x1="131.29" y1="296.79" x2="131.29" y2="301.78"/><polygon class="cls-13" points="130.29 301.48 131.29 303.21 132.29 301.48 130.29 301.48"/><line class="cls-12" x1="142.77" y1="294.68" x2="152.9" y2="294.68"/><polygon class="cls-13" points="152.61 295.68 154.34 294.68 152.61 293.68 152.61 295.68"/><line class="cls-12" x1="142.77" y1="283.27" x2="151.28" y2="283.27"/><polygon class="cls-13" points="150.99 284.26 152.72 283.26 150.99 282.27 150.99 284.26"/><line class="cls-14" x1="84.22" y1="307.24" x2="111.85" y2="307.24"/><line class="cls-14" x1="119.8" y1="305.35" x2="142.77" y2="305.35"/><line class="cls-14" x1="119.8" y1="321.91" x2="142.77" y2="321.91"/><line class="cls-14" x1="117.97" y1="278.09" x2="142.77" y2="278.09"/><line class="cls-15" x1="117.97" y1="294.68" x2="142.77" y2="294.68"/><line class="cls-14" x1="120.07" y1="255.54" x2="143.92" y2="255.54"/><line class="cls-14" x1="120.07" y1="268.78" x2="143.92" y2="268.78"/><line class="cls-14" x1="152.72" y1="288.19" x2="179.46" y2="288.19"/><line class="cls-14" x1="152.72" y1="270.14" x2="179.46" y2="270.14"/><line class="cls-14" x1="154.34" y1="294.68" x2="176.94" y2="294.68"/><line class="cls-14" x1="154.34" y1="311.06" x2="176.94" y2="311.06"/><line class="cls-14" x1="89.82" y1="268.73" x2="102.12" y2="268.73"/><line class="cls-14" x1="84.22" y1="289.18" x2="111.85" y2="289.18"/><path class="cls-16" d="M86.06,308.24h-.71a.38.38,0,0,0-.32-.19.36.36,0,0,0-.36.36.37.37,0,0,0,.36.37.38.38,0,0,0,.32-.19h.55Z"/><path class="cls-16" d="M121.69,322.87H121a.37.37,0,0,0-.32-.19.36.36,0,0,0-.36.36.36.36,0,0,0,.68.18h.56Z"/><path class="cls-16" d="M119.75,295.56H119a.36.36,0,1,0-.32.53.37.37,0,0,0,.32-.18h.55Z"/><path class="cls-16" d="M121.93,269.85h-.72a.34.34,0,0,0-.31-.18.36.36,0,0,0,0,.72.34.34,0,0,0,.31-.18h.56Z"/><path class="cls-16" d="M154.56,289.07h-.71a.36.36,0,0,0-.68.18.36.36,0,0,0,.36.36.37.37,0,0,0,.32-.19h.56Z"/><path class="cls-16" d="M156.17,312h-.71a.38.38,0,0,0-.32-.19.37.37,0,0,0-.36.37.36.36,0,0,0,.36.36.38.38,0,0,0,.32-.19H156Z"/><text class="cls-17" transform="translate(92.02 266.74)">DIM_VENDA_<tspan x="0" y="1.32">D</tspan><tspan class="cls-18" x="0.79" y="1.32">AT</tspan><tspan class="cls-19" x="2.03" y="1.32">A</tspan></text><text class="cls-17" transform="translate(91.5 288.5)">DIM_VENDA_VENDEDOR</text><text class="cls-17" transform="translate(127.08 277.4)"><tspan class="cls-20">F</tspan><tspan class="cls-18" x="0.61" y="0">A</tspan><tspan x="1.26" y="0">T_VENDAS</tspan></text><text class="cls-17" transform="translate(125.27 254.92)">DIM_VENDA_PROMOCAO</text><text class="cls-17" transform="translate(160.03 269.35)">DIM_VENDA_PRODU<tspan class="cls-21" x="10.99" y="0">T</tspan><tspan x="11.64" y="0">O</tspan></text><text class="cls-17" transform="translate(161.07 293.9)">DIM_VENDA_LOJ<tspan class="cls-20" x="9.04" y="0">A</tspan></text><text class="cls-17" transform="translate(125.51 304.6)">DIM_VENDA_CLIENTE</text><text class="cls-22" transform="translate(122.25 270.4)">DIM_PROMOCAO_PK (sk_promocao)</text><text class="cls-22" transform="translate(156.63 312.53)">DIM_LOJA_PK (sk_loja)</text><text class="cls-22" transform="translate(155.06 289.65)">DIM_PRODU<tspan class="cls-21" x="6.59" y="0">T</tspan><tspan class="cls-23" x="7.24" y="0">O_PK (sk_produto)</tspan></text><text class="cls-22" transform="translate(121.99 323.33)">DIM_CLIENTE_PK (sk_cliente)</text><text class="cls-22" transform="translate(120.07 296.05)"><tspan class="cls-20">F</tspan><tspan class="cls-18" x="0.61" y="0">A</tspan><tspan class="cls-21" x="1.26" y="0">T</tspan><tspan x="1.91" y="0">O_VENDAS_PK (sk_vendedo</tspan><tspan class="cls-20" x="16.57" y="0">r</tspan><tspan class="cls-24" x="16.88" y="0">, sk_prod)</tspan></text><text class="cls-22" transform="translate(86.42 308.73)">DIM_VENDEDOR_PK (sk_vendedor)</text><text class="cls-25" transform="translate(133.17 257.13)">NUMBER (9)</text><text class="cls-25" transform="translate(133.17 258.7)">NUMBER (9)</text><text class="cls-25" transform="translate(133.17 260.27)"><tspan class="cls-18">V</tspan><tspan x="0.65" y="0">ARCHAR2 (40)</tspan></text><text class="cls-25" transform="translate(133.17 261.84)"><tspan class="cls-18">V</tspan><tspan x="0.65" y="0">ARCHAR2 (100)</tspan></text><text class="cls-25" transform="translate(133.17 263.41)"><tspan class="cls-18">V</tspan><tspan x="0.65" y="0">ARCHAR2 (100)</tspan></text><text class="cls-25" transform="translate(133.17 264.98)">D<tspan class="cls-18" x="0.79" y="0">A</tspan><tspan x="1.45" y="0">TE</tspan></text><text class="cls-25" transform="translate(133.17 266.55)">D<tspan class="cls-18" x="0.79" y="0">A</tspan><tspan x="1.45" y="0">TE</tspan></text><text class="cls-25" transform="translate(133.17 268.12)">NUMBER (<tspan class="cls-26" x="5.43" y="0">1</tspan><tspan x="5.96" y="0">1)</tspan></text><text class="cls-25" transform="translate(166.41 296.05)">NUMBER (9)</text><text class="cls-25" transform="translate(166.41 297.62)">NUMBER (9)</text><text class="cls-25" transform="translate(166.41 299.19)"><tspan class="cls-18">V</tspan><tspan x="0.65" y="0">ARCHAR2 (25)</tspan></text><text class="cls-25" transform="translate(166.41 300.75)"><tspan class="cls-18">V</tspan><tspan x="0.65" y="0">ARCHAR2 (80)</tspan></text><text class="cls-25" transform="translate(166.41 302.33)"><tspan class="cls-18">V</tspan><tspan x="0.65" y="0">ARCHAR (120)</tspan></text><text class="cls-25" transform="translate(166.41 303.89)"><tspan class="cls-18">V</tspan><tspan x="0.65" y="0">ARCHAR2 (80)</tspan></text><text class="cls-25" transform="translate(166.41 305.46)">CHAR (2)</text><text class="cls-25" transform="translate(166.41 307.03)">D<tspan class="cls-18" x="0.79" y="0">A</tspan><tspan x="1.45" y="0">TE</tspan></text><text class="cls-25" transform="translate(166.41 308.6)">D<tspan class="cls-18" x="0.79" y="0">A</tspan><tspan x="1.45" y="0">TE</tspan></text><text class="cls-25" transform="translate(166.41 310.17)">NUMBER (<tspan class="cls-26" x="5.43" y="0">1</tspan><tspan x="5.96" y="0">1)</tspan></text><text class="cls-25" transform="translate(168.98 271.65)">NUMBER (9)</text><text class="cls-25" transform="translate(168.98 273.22)">NUMBER (9)</text><text class="cls-25" transform="translate(168.98 274.79)"><tspan class="cls-18">V</tspan><tspan x="0.65" y="0">ARCHAR2 (20)</tspan></text><text class="cls-25" transform="translate(168.98 276.36)"><tspan class="cls-18">V</tspan><tspan x="0.65" y="0">ARCHAR2 (128)</tspan></text><text class="cls-25" transform="translate(168.98 277.93)"><tspan class="cls-18">V</tspan><tspan x="0.65" y="0">ARCHAR2 (60)</tspan></text><text class="cls-25" transform="translate(168.98 279.5)">NUMBER (2)</text><text class="cls-25" transform="translate(168.98 281.07)">CHAR (3)</text><text class="cls-25" transform="translate(168.98 282.64)"><tspan class="cls-18">V</tspan><tspan x="0.65" y="0">ARCHAR2 (30)</tspan></text><text class="cls-25" transform="translate(168.98 284.21)">D<tspan class="cls-18" x="0.79" y="0">A</tspan><tspan x="1.45" y="0">TE</tspan></text><text class="cls-25" transform="translate(168.98 285.78)">D<tspan class="cls-18" x="0.79" y="0">A</tspan><tspan x="1.45" y="0">TE</tspan></text><text class="cls-25" transform="translate(168.98 287.3)">NUMBER (<tspan class="cls-26" x="5.43" y="0">1</tspan><tspan x="5.96" y="0">1)</tspan></text><text class="cls-25" transform="translate(132.92 306.74)">NUMBER (9)</text><text class="cls-25" transform="translate(132.92 308.31)">NUMBER (9)</text><text class="cls-25" transform="translate(132.92 309.88)"><tspan class="cls-18">V</tspan><tspan x="0.65" y="0">ARCHAR 2(80)</tspan></text><text class="cls-25" transform="translate(132.92 311.45)">D<tspan class="cls-18" x="0.79" y="0">A</tspan><tspan x="1.45" y="0">TE</tspan></text><text class="cls-25" transform="translate(132.92 313.02)">CHAR (1)</text><text class="cls-25" transform="translate(132.92 314.59)"><tspan class="cls-18">V</tspan><tspan x="0.65" y="0">ARCHAR2 (25)</tspan></text><text class="cls-25" transform="translate(132.92 316.16)"><tspan class="cls-18">V</tspan><tspan x="0.65" y="0">ARCHAR (60)</tspan></text><text class="cls-25" transform="translate(132.92 317.73)">D<tspan class="cls-18" x="0.79" y="0">A</tspan><tspan x="1.45" y="0">TE</tspan></text><text class="cls-25" transform="translate(132.92 319.3)">D<tspan class="cls-18" x="0.79" y="0">A</tspan><tspan x="1.45" y="0">TE</tspan></text><text class="cls-25" transform="translate(132.92 320.87)">NUMBER (<tspan class="cls-26" x="5.43" y="0">1</tspan><tspan x="5.96" y="0">1)</tspan></text><text class="cls-25" transform="translate(132.59 279.66)">NUMBER (9)</text><text class="cls-25" transform="translate(132.59 281.23)">NUMBER (9)</text><text class="cls-25" transform="translate(132.59 282.8)">NUMBER (9)</text><text class="cls-25" transform="translate(132.59 284.37)">NUMBER (9)</text><text class="cls-25" transform="translate(132.59 285.94)">NUMBER (9)</text><text class="cls-25" transform="translate(132.59 287.51)">NUMBER (9)</text><text class="cls-25" transform="translate(132.59 289.08)">NUMBER (6)</text><text class="cls-25" transform="translate(132.59 290.65)">NUMBER (3)</text><text class="cls-25" transform="translate(132.59 292.22)">NUMBER (6,2)</text><text class="cls-25" transform="translate(132.59 293.79)">NUMBER (9,2)</text><text class="cls-25" transform="translate(101.33 290.71)">NUMBER (9)</text><text class="cls-25" transform="translate(101.33 292.28)">NUMBER (9)</text><text class="cls-25" transform="translate(101.33 293.85)"><tspan class="cls-18">V</tspan><tspan x="0.65" y="0">ARCHAR2 (60)</tspan></text><text class="cls-25" transform="translate(101.33 295.42)">D<tspan class="cls-18" x="0.79" y="0">A</tspan><tspan x="1.45" y="0">TE</tspan></text><text class="cls-25" transform="translate(101.33 296.99)">CHAR (9)</text><text class="cls-25" transform="translate(101.33 298.56)">D<tspan class="cls-18" x="0.79" y="0">A</tspan><tspan x="1.45" y="0">TE</tspan></text><text class="cls-25" transform="translate(101.33 300.13)">NUMBER (2)</text><text class="cls-25" transform="translate(101.33 301.7)"><tspan class="cls-18">V</tspan><tspan x="0.65" y="0">ARCHAR2 (60)</tspan></text><text class="cls-25" transform="translate(101.33 303.27)">D<tspan class="cls-18" x="0.79" y="0">A</tspan><tspan x="1.45" y="0">TE</tspan></text><text class="cls-25" transform="translate(101.33 304.84)">D<tspan class="cls-18" x="0.79" y="0">A</tspan><tspan x="1.45" y="0">TE</tspan></text><text class="cls-25" transform="translate(101.33 306.41)">NUMBER (<tspan class="cls-26" x="5.43" y="0">1</tspan><tspan x="5.96" y="0">1)</tspan></text><text class="cls-27" transform="translate(84.75 290.71)">P</text><text class="cls-17" transform="translate(118.22 279.66)">PF</text><text class="cls-17" transform="translate(118.22 281.23)">PF</text><text class="cls-17" transform="translate(118.22 282.8)">PF</text><text class="cls-17" transform="translate(118.22 284.37)">PF</text><text class="cls-17" transform="translate(118.22 285.94)">PF</text><text class="cls-17" transform="translate(118.22 287.51)">PF</text><text class="cls-27" transform="translate(118.22 289.08)">P</text><text class="cls-27" transform="translate(120.54 257.13)">P</text><text class="cls-27" transform="translate(153.17 271.65)">P</text><text class="cls-27" transform="translate(154.81 296.05)">P</text><text class="cls-27" transform="translate(120.32 306.74)">P</text><text class="cls-27" transform="translate(90.19 270.24)">P</text><text class="cls-28" transform="translate(86 290.71)">*</text><text class="cls-29" transform="translate(119.91 279.66)">*</text><text class="cls-29" transform="translate(119.91 281.23)">*</text><text class="cls-29" transform="translate(119.91 282.8)">*</text><text class="cls-29" transform="translate(119.91 284.37)">*</text><text class="cls-29" transform="translate(119.91 285.94)">*</text><text class="cls-29" transform="translate(119.91 287.51)">*</text><text class="cls-29" transform="translate(119.91 289.08)">*</text><text class="cls-28" transform="translate(121.83 257.13)">*</text><text class="cls-28" transform="translate(154.54 271.65)">*</text><text class="cls-28" transform="translate(156.11 296.05)">*</text><text class="cls-28" transform="translate(121.62 306.74)">*</text><text class="cls-28" transform="translate(91.6 270.24)">*</text><text class="cls-22" transform="translate(87.21 290.71)">sk_vendedor</text><text class="cls-22" transform="translate(87.21 292.28)">nk_vendedor</text><text class="cls-22" transform="translate(87.21 293.85)">nm_vendedor</text><text class="cls-22" transform="translate(87.21 295.42)">dt_nascimento</text><text class="cls-22" transform="translate(87.21 296.99)">ds_sexo</text><text class="cls-22" transform="translate(87.21 298.56)">dt_contratacao</text><text class="cls-22" transform="translate(87.21 300.13)">cd_faixa_bonificacao</text><text class="cls-22" transform="translate(87.21 301.7)">ds_faixa_bonificacao</text><text class="cls-22" transform="translate(87.21 303.27)">dtc_ini</text><text class="cls-22" transform="translate(87.21 304.84)">dte_fim</text><text class="cls-22" transform="translate(87.21 306.41)">version</text><text class="cls-22" transform="translate(120.84 279.66)">sk_data</text><text class="cls-22" transform="translate(120.84 281.23)">sk_cliente</text><text class="cls-22" transform="translate(120.84 282.8)">sk_vendedor</text><text class="cls-22" transform="translate(120.84 284.37)">sk_promocao</text><text class="cls-22" transform="translate(120.84 285.94)">sk_produto</text><text class="cls-22" transform="translate(120.84 287.51)">sk_loja</text><text class="cls-22" transform="translate(120.84 289.08)">dd_nota_fiscal</text><text class="cls-22" transform="translate(120.84 290.65)">qtd_vendida</text><text class="cls-22" transform="translate(120.84 292.22)">vl_preco_unitario</text><text class="cls-22" transform="translate(123.04 257.13)">sk_promocao</text><text class="cls-22" transform="translate(123.04 258.7)">nk_promocao</text><text class="cls-22" transform="translate(123.04 260.27)">nm_promocao</text><text class="cls-22" transform="translate(123.04 261.84)">ds_promocao</text><text class="cls-22" transform="translate(123.04 263.41)">obs_promocao</text><text class="cls-22" transform="translate(123.04 264.98)">dtc_ini</text><text class="cls-22" transform="translate(123.04 266.55)">dtc_fim</text><text class="cls-22" transform="translate(123.04 268.12)">version</text><text class="cls-22" transform="translate(120.84 293.79)">vl_total_preco</text><text class="cls-22" transform="translate(155.63 271.65)">sk_produto</text><text class="cls-22" transform="translate(155.63 273.22)">nk_produto</text><text class="cls-22" transform="translate(155.63 274.79)">nm_produto</text><text class="cls-22" transform="translate(155.63 276.36)">ds_produto</text><text class="cls-22" transform="translate(155.63 277.93)">nm_marca</text><text class="cls-22" transform="translate(155.63 279.5)">nk_unidade_medida</text><text class="cls-22" transform="translate(155.63 281.07)">ds_sigla</text><text class="cls-22" transform="translate(155.63 282.64)">ds_unidade_medida</text><text class="cls-22" transform="translate(155.63 284.21)">dtc_ini</text><text class="cls-22" transform="translate(155.63 285.78)">dtc_fim</text><text class="cls-22" transform="translate(155.63 287.3)">version</text><text class="cls-22" transform="translate(157.36 296.05)">sk_loja</text><text class="cls-22" transform="translate(157.36 297.62)">nk_loja</text><text class="cls-22" transform="translate(157.36 299.19)">nm_loja</text><text class="cls-22" transform="translate(157.36 300.75)">ds_loja</text><text class="cls-22" transform="translate(157.36 302.33)">ds_endereco</text><text class="cls-22" transform="translate(157.36 303.89)">nm_cidade</text><text class="cls-22" transform="translate(157.36 305.46)">sg_uf</text><text class="cls-22" transform="translate(157.36 307.03)">dtc_ini</text><text class="cls-22" transform="translate(157.36 308.6)">dtc_fim</text><text class="cls-22" transform="translate(157.36 310.17)">version</text><text class="cls-22" transform="translate(122.88 306.74)">sk_cliente</text><text class="cls-22" transform="translate(122.88 308.31)">nk_cliente</text><text class="cls-22" transform="translate(122.88 309.88)">nm_cliente</text><text class="cls-22" transform="translate(122.88 311.45)">dt_nascimento</text><text class="cls-22" transform="translate(122.88 313.02)">ds_sexo</text><text class="cls-22" transform="translate(122.88 314.59)">nm_tipo</text><text class="cls-22" transform="translate(122.88 316.16)">ds_tipo</text><text class="cls-22" transform="translate(122.88 317.73)">dtc_ini</text><text class="cls-22" transform="translate(122.88 319.3)">dtc_fim</text><text class="cls-22" transform="translate(122.88 320.87)">version</text><text class="cls-22" transform="translate(92.75 270.24)">sk_data</text><text class="cls-22" transform="translate(92.75 271.81)">data</text><text class="cls-22" transform="translate(92.75 273.38)">data_extenso</text><text class="cls-22" transform="translate(92.75 274.95)">ano</text><text class="cls-22" transform="translate(92.75 276.52)">semestre</text><text class="cls-22" transform="translate(92.75 278.09)">trimestre</text><text class="cls-22" transform="translate(92.75 279.66)">bimestre</text><text class="cls-22" transform="translate(92.75 281.23)">mes</text><text class="cls-22" transform="translate(92.75 282.8)">feriado</text><polygon class="cls-30" points="100.82 282.8 101.74 282.8 101.28 283.58 100.82 282.8"/><polygon class="cls-31" points="141.33 295.66 142.25 295.66 141.79 296.44 141.33 295.66"/><path class="cls-4" d="M193.43,411.07s-10.06-2.23-17.61,3.64-19.19,1.67-19.19,1.67V388.71h36.8Z"/><polyline class="cls-4" points="160.02 388.71 160.02 384.81 197.41 384.81 197.41 408.21 193.43 408.21"/><polyline class="cls-4" points="164.35 385.02 164.35 381.12 200.76 381.12 200.76 404.52 197.76 404.52"/><path class="cls-4" d="M145.21,382.47s-10.06-2.24-17.61,3.63-19.19,1.68-19.19,1.68V360.1h36.8Z"/><polyline class="cls-4" points="111.8 360.1 111.8 356.2 149.19 356.2 149.19 379.61 145.21 379.61"/><polyline class="cls-4" points="116.13 356.41 116.13 352.51 152.54 352.51 152.54 375.91 149.54 375.91"/><text class="cls-6" transform="translate(162.6 402.75)">xlsx</text><text class="cls-6" transform="translate(115.45 372.77)">cvs</text><path class="cls-4" d="M425.92,290.71c0,2.75-9.26,5-20.68,5s-20.68-2.23-20.68-5V268.4h41.36Z"/><ellipse class="cls-5" cx="405.24" cy="268.4" rx="20.68" ry="4.98"/><path class="cls-4" d="M364.15,290.71c0,2.75-9.26,5-20.68,5s-20.68-2.23-20.68-5V268.4h41.36Z"/><ellipse class="cls-5" cx="343.47" cy="268.4" rx="20.68" ry="4.98"/><path class="cls-4" d="M484.71,290.71c0,2.75-9.25,5-20.67,5s-20.68-2.23-20.68-5V268.4h41.35Z"/><ellipse class="cls-5" cx="464.04" cy="268.4" rx="20.68" ry="4.98"/><line class="cls-1" x1="176.94" y1="364.21" x2="299.61" y2="300.43"/><line class="cls-32" x1="176.94" y1="364.21" x2="294.52" y2="303.08"/><polygon class="cls-33" points="295.32 307.15 299.61 300.43 291.64 300.08 295.32 307.15"/><path class="cls-32" d="M127.08,246.21s2.08-62,106-63.16c85.1-.91,98.28,43.27,100.27,59.32"/><polygon class="cls-33" points="329.24 241.49 333.7 248.1 337.2 240.93 329.24 241.49"/><path class="cls-32" d="M464,257.13s-.12-61.78,77.57-62.9c63.37-.91,75.79,41.53,78.21,57.2"/><polygon class="cls-33" points="615.67 250.72 620.41 257.13 623.6 249.82 615.67 250.72"/><path class="cls-32" d="M339.85,310.17s3.25,40.66,28.5,40.09c19.15-.43,25.34-23.43,27.2-34.4"/><polygon class="cls-33" points="399.3 317.56 396.3 310.18 391.4 316.47 399.3 317.56"/><path class="cls-32" d="M417.81,310.17s3.26,40.66,28.51,40.09c19.14-.43,25.33-23.43,27.2-34.4"/><polygon class="cls-33" points="477.26 317.56 474.26 310.18 469.36 316.47 477.26 317.56"/><rect class="cls-34" x="440.13" y="102.17" width="316.5" height="247.85"/></g></svg>