<svg xmlns="http://www.w3.org/2000/svg" viewBox="0 0 1000 520"><defs><style>.cls-1{fill:#fff;}.cls-2,.cls-3{fill:none;}.cls-2,.cls-7{stroke:#3d6480;}.cls-2,.cls-3,.cls-7{stroke-miterlimit:10;stroke-width:2px;}.cls-3{stroke:#e90419;}.cls-4{fill:#3d6480;}.cls-5{font-size:14.22px;fill:#303030;font-family:ArialMT, Arial;}.cls-6{letter-spacing:-0.11em;}.cls-7{fill:#f4e4cb;}</style></defs><title>7-vetores-fase6-Smart-City-TDS-2019</title><g id="Layer_27" data-name="Layer 27"><rect class="cls-1" width="1000" height="520"/><rect class="cls-2" x="436.72" y="226.59" width="38.71" height="38.71" rx="6" ry="6"/><rect class="cls-2" x="667.98" y="226.59" width="38.71" height="38.71" rx="6" ry="6"/><rect class="cls-2" x="841.77" y="226.59" width="38.71" height="38.71" rx="6" ry="6"/><rect class="cls-2" x="672.69" y="233.6" width="14.81" height="4.74"/><rect class="cls-2" x="672.69" y="240.41" width="28.73" height="4.74"/><rect class="cls-2" x="672.69" y="247.23" width="14.81" height="4.74"/><rect class="cls-2" x="672.69" y="254.04" width="28.73" height="4.74"/><line class="cls-3" x1="690.66" y1="233.6" x2="695.4" y2="238.34"/><line class="cls-3" x1="695.4" y1="233.6" x2="690.66" y2="238.34"/><line class="cls-3" x1="690.66" y1="247.23" x2="695.4" y2="251.97"/><line class="cls-3" x1="695.4" y1="247.23" x2="690.66" y2="251.97"/><line class="cls-2" x1="849.95" y1="234.01" x2="855.41" y2="239.83"/><path class="cls-4" d="M848.87,238.47a.4.4,0,0,1,.48-.29l5.93,1.52-1.13-6a.39.39,0,0,1,.31-.47.41.41,0,0,1,.47.32l1.26,6.63a.41.41,0,0,1-.12.37.43.43,0,0,1-.38.1L849.16,239a.43.43,0,0,1-.2-.11A.4.4,0,0,1,848.87,238.47Z"/><polyline class="cls-2" points="859.55 237.61 871.79 237.61 871.79 257.95 851.45 257.95 851.45 246.1"/><line class="cls-2" x1="853.23" y1="244.52" x2="871.79" y2="244.52"/><line class="cls-2" x1="851.45" y1="251.43" x2="871.79" y2="251.43"/><line class="cls-2" x1="858.17" y1="244.52" x2="858.17" y2="257.95"/><line class="cls-2" x1="865.67" y1="244.52" x2="865.67" y2="257.95"/><rect class="cls-2" x="134.1" y="226.59" width="38.71" height="38.71" rx="6" ry="6"/><line class="cls-2" x1="160.56" y1="254.28" x2="165.63" y2="259.7"/><path class="cls-4" d="M159.09,258.33a.41.41,0,0,1,.49-.29l5.93,1.53-1.13-6a.4.4,0,0,1,.32-.47.41.41,0,0,1,.47.32l1.24,6.64a.4.4,0,0,1-.12.36.42.42,0,0,1-.37.1l-6.54-1.68a.35.35,0,0,1-.19-.12A.4.4,0,0,1,159.09,258.33Z"/><polyline class="cls-2" points="155.42 256.06 143.17 256.06 143.17 235.72 163.51 235.72 163.51 247.56"/><line class="cls-2" x1="161.74" y1="249.15" x2="143.17" y2="249.15"/><line class="cls-2" x1="163.51" y1="242.23" x2="143.17" y2="242.23"/><line class="cls-2" x1="156.8" y1="249.15" x2="156.8" y2="235.72"/><line class="cls-2" x1="149.3" y1="249.15" x2="149.3" y2="235.72"/><line class="cls-2" x1="475.43" y1="246.93" x2="667.98" y2="246.93"/><line class="cls-2" x1="172.61" y1="246.93" x2="436.42" y2="246.93"/><line class="cls-2" x1="706.82" y1="246.93" x2="842.19" y2="246.93"/><polygon class="cls-4" points="605.37 246.83 601.03 240.41 618.21 246.93 601.03 253.25 605.37 246.83"/><polygon class="cls-4" points="382.23 246.83 377.88 240.41 395.06 246.93 377.88 253.25 382.23 246.83"/><polygon class="cls-4" points="787.05 246.83 782.71 240.41 799.89 246.93 782.71 253.25 787.05 246.83"/><text class="cls-5" transform="translate(754.76 288.79)"><tspan class="cls-6">T</tspan><tspan x="7.11" y="0">able output STG_PROMOCOES</tspan></text><text class="cls-5" transform="translate(646.03 288.79)">Select values</text><text class="cls-5" transform="translate(296.85 288.79)">Database lookup STG_ARQ_PROMOCOES_OBS</text><text class="cls-5" transform="translate(32.67 288.79)"><tspan class="cls-6">T</tspan><tspan x="7.11" y="0">able input STG_ARQ_PROMOCOES</tspan></text><path class="cls-7" d="M454.13,233.17c-4.3,0-7.8.93-7.8,2.08v15.81c0,1.15,3.5,2.08,7.8,2.08s7.81-.93,7.81-2.08V235.25C461.94,234.1,458.44,233.17,454.13,233.17Z"/><path class="cls-2" d="M446.33,235.33c0,1.15,3.5,2.08,7.8,2.08s7.81-.93,7.81-2.08"/><path class="cls-2" d="M446.33,239.83c0,1.14,3.5,2.08,7.8,2.08s7.81-.94,7.81-2.08"/><path class="cls-2" d="M446.33,245.57c0,1.15,3.5,2.08,7.8,2.08s7.81-.93,7.81-2.08"/><circle class="cls-1" cx="462.56" cy="252.47" r="6.48"/><circle class="cls-2" cx="462.45" cy="252.69" r="3.3"/><line class="cls-2" x1="464.82" y1="255.22" x2="467.74" y2="258.55"/></g></svg>