<svg xmlns="http://www.w3.org/2000/svg" viewBox="0 0 1000 806.38"><defs><style>.cls-1{fill:#fff;}.cls-2,.cls-3,.cls-9{fill:none;stroke-miterlimit:10;}.cls-2{stroke:#3d6480;}.cls-2,.cls-3{stroke-width:2px;}.cls-3{stroke:#e90419;}.cls-4{fill:#3d6480;}.cls-5{font-size:16.2px;font-family:ArialMT, Arial;}.cls-10,.cls-5{fill:#303030;}.cls-6{letter-spacing:-0.11em;}.cls-7{letter-spacing:-0.06em;}.cls-8{letter-spacing:-0.02em;}.cls-9{stroke:#fff;stroke-width:3px;}.cls-10{font-size:22px;font-family:Arial-BoldMT, Arial;font-weight:700;}.cls-11{letter-spacing:-0.04em;}</style></defs><title>7-vetores-fase6-Smart-City-TDS-2019</title><g id="Layer_24" data-name="Layer 24"><rect class="cls-1" width="1000" height="806.38"/><rect class="cls-2" x="212.95" y="127.14" width="44.1" height="44.1" rx="6" ry="6"/><rect class="cls-2" x="469.45" y="127.14" width="44.1" height="44.1" rx="6" ry="6"/><rect class="cls-2" x="742.94" y="127.14" width="44.1" height="44.1" rx="6" ry="6"/><rect class="cls-2" x="474.82" y="135.12" width="16.88" height="5.4"/><rect class="cls-2" x="474.82" y="142.89" width="32.74" height="5.4"/><rect class="cls-2" x="474.82" y="150.65" width="16.88" height="5.4"/><rect class="cls-2" x="474.82" y="158.41" width="32.74" height="5.4"/><line class="cls-3" x1="495.3" y1="135.12" x2="500.7" y2="140.52"/><line class="cls-3" x1="500.7" y1="135.12" x2="495.3" y2="140.52"/><line class="cls-3" x1="495.3" y1="150.65" x2="500.7" y2="156.05"/><line class="cls-3" x1="500.7" y1="150.65" x2="495.3" y2="156.05"/><line class="cls-2" x1="243.1" y1="158.69" x2="248.97" y2="164.96"/><path class="cls-4" d="M242.43,163.59a.41.41,0,0,1,.49-.29l5.92,1.53-1.12-6a.4.4,0,0,1,.32-.47.41.41,0,0,1,.47.32l1.24,6.64a.41.41,0,0,1-.5.46l-6.53-1.68a.35.35,0,0,1-.19-.12A.4.4,0,0,1,242.43,163.59Z"/><line class="cls-2" x1="752.26" y1="135.59" x2="758.57" y2="142.32"/><path class="cls-4" d="M752,141a.41.41,0,0,1,.49-.29l5.93,1.51-1.14-6a.4.4,0,0,1,.32-.47.41.41,0,0,1,.47.32l1.25,6.63a.4.4,0,0,1-.12.37.39.39,0,0,1-.37.09l-6.54-1.66a.35.35,0,0,1-.19-.12A.4.4,0,0,1,752,141Z"/><polyline class="cls-2" points="763.2 139.69 777.15 139.69 777.15 162.87 753.97 162.87 753.97 149.37"/><line class="cls-2" x1="756" y1="147.57" x2="777.15" y2="147.57"/><line class="cls-2" x1="753.97" y1="155.44" x2="777.15" y2="155.44"/><line class="cls-2" x1="761.62" y1="147.57" x2="761.62" y2="162.87"/><line class="cls-2" x1="770.18" y1="147.57" x2="770.18" y2="162.87"/><polyline class="cls-2" points="237.24 160.71 223.29 160.71 223.29 137.53 246.47 137.53 246.47 151.04"/><line class="cls-2" x1="244.44" y1="152.84" x2="223.29" y2="152.84"/><line class="cls-2" x1="246.47" y1="144.96" x2="223.29" y2="144.96"/><line class="cls-2" x1="238.81" y1="152.84" x2="238.81" y2="137.53"/><line class="cls-2" x1="230.26" y1="152.84" x2="230.26" y2="137.53"/><line class="cls-2" x1="257.05" y1="150.31" x2="469.45" y2="150.31"/><line class="cls-2" x1="513.71" y1="150.31" x2="743.42" y2="150.31"/><polygon class="cls-4" points="408.26 150.2 403.31 142.89 422.89 150.31 403.31 157.51 408.26 150.2"/><polygon class="cls-4" points="637.47 150.2 632.52 142.89 652.1 150.31 632.52 157.51 637.47 150.2"/><text class="cls-5" transform="translate(647.38 198.01)"><tspan class="cls-6">T</tspan><tspan x="8.1" y="0">able output SSTG_T_SV_LOJ</tspan><tspan class="cls-7" x="225.15" y="0">A</tspan></text><text class="cls-5" transform="translate(444.44 198.01)">Select values</text><text class="cls-5" transform="translate(149.14 198.01)"><tspan class="cls-6">T</tspan><tspan x="8.1" y="0">able input</tspan><tspan class="cls-8" x="78.37" y="0"> </tspan><tspan x="82.58" y="0">T_SV_LOJ</tspan><tspan class="cls-7" x="161.82" y="0">A</tspan></text><rect class="cls-2" x="212.95" y="259.42" width="44.1" height="44.1" rx="6" ry="6"/><rect class="cls-2" x="469.45" y="259.42" width="44.1" height="44.1" rx="6" ry="6"/><rect class="cls-2" x="742.94" y="259.42" width="44.1" height="44.1" rx="6" ry="6"/><rect class="cls-2" x="474.82" y="267.4" width="16.88" height="5.4"/><rect class="cls-2" x="474.82" y="275.17" width="32.74" height="5.4"/><rect class="cls-2" x="474.82" y="282.93" width="16.88" height="5.4"/><rect class="cls-2" x="474.82" y="290.69" width="32.74" height="5.4"/><line class="cls-3" x1="495.3" y1="267.4" x2="500.7" y2="272.8"/><line class="cls-3" x1="500.7" y1="267.4" x2="495.3" y2="272.8"/><line class="cls-3" x1="495.3" y1="282.93" x2="500.7" y2="288.33"/><line class="cls-3" x1="500.7" y1="282.93" x2="495.3" y2="288.33"/><line class="cls-2" x1="242.02" y1="289.89" x2="247.89" y2="296.16"/><path class="cls-4" d="M241.35,294.79a.42.42,0,0,1,.49-.29l5.93,1.53-1.13-6a.4.4,0,0,1,.32-.47.41.41,0,0,1,.47.32l1.24,6.64a.4.4,0,0,1-.12.36.39.39,0,0,1-.37.1l-6.54-1.68a.35.35,0,0,1-.19-.12A.4.4,0,0,1,241.35,294.79Z"/><line class="cls-2" x1="752.26" y1="268.95" x2="758.57" y2="275.67"/><path class="cls-4" d="M752,274.32a.4.4,0,0,1,.49-.29l5.93,1.51-1.14-6a.4.4,0,1,1,.79-.15l1.25,6.63a.4.4,0,0,1-.12.37.39.39,0,0,1-.37.09l-6.54-1.66a.35.35,0,0,1-.19-.12A.4.4,0,0,1,752,274.32Z"/><polyline class="cls-2" points="764.28 273.05 778.23 273.05 778.23 296.23 755.05 296.23 755.05 282.72"/><line class="cls-2" x1="757.08" y1="280.92" x2="778.23" y2="280.92"/><line class="cls-2" x1="755.05" y1="288.8" x2="778.23" y2="288.8"/><line class="cls-2" x1="762.7" y1="280.92" x2="762.7" y2="296.22"/><line class="cls-2" x1="771.25" y1="280.92" x2="771.25" y2="296.22"/><polyline class="cls-2" points="237.24 292.99 223.29 292.99 223.29 269.81 246.47 269.81 246.47 283.31"/><line class="cls-2" x1="244.44" y1="285.12" x2="223.29" y2="285.12"/><line class="cls-2" x1="246.47" y1="277.24" x2="223.29" y2="277.24"/><line class="cls-2" x1="238.81" y1="285.12" x2="238.81" y2="269.81"/><line class="cls-2" x1="230.26" y1="285.12" x2="230.26" y2="269.81"/><polyline class="cls-9" points="249.94 260.45 253.92 264.37 260.43 258.51"/><line class="cls-2" x1="257.05" y1="282.59" x2="469.45" y2="282.59"/><line class="cls-2" x1="513.71" y1="282.59" x2="743.42" y2="282.59"/><polygon class="cls-4" points="408.26 282.48 403.31 275.17 422.89 282.59 403.31 289.79 408.26 282.48"/><polygon class="cls-4" points="637.47 282.48 632.52 275.17 652.1 282.59 632.52 289.79 637.47 282.48"/><text class="cls-5" transform="translate(661.8 331.36)"><tspan class="cls-6">T</tspan><tspan x="8.1" y="0">able output STG_T_SV_UF</tspan></text><text class="cls-5" transform="translate(436.61 331.36)">Select values 2</text><text class="cls-5" transform="translate(157.08 331.36)"><tspan class="cls-6">T</tspan><tspan x="8.1" y="0">able input</tspan><tspan class="cls-8" x="78.37" y="0"> </tspan><tspan x="82.58" y="0">T_SV_UF</tspan></text><rect class="cls-2" x="212.95" y="392.77" width="44.1" height="44.1" rx="6" ry="6"/><rect class="cls-2" x="469.45" y="392.77" width="44.1" height="44.1" rx="6" ry="6"/><rect class="cls-2" x="742.94" y="392.77" width="44.1" height="44.1" rx="6" ry="6"/><rect class="cls-2" x="474.82" y="400.76" width="16.88" height="5.4"/><rect class="cls-2" x="474.82" y="408.52" width="32.74" height="5.4"/><rect class="cls-2" x="474.82" y="416.29" width="16.88" height="5.4"/><rect class="cls-2" x="474.82" y="424.05" width="32.74" height="5.4"/><line class="cls-3" x1="495.3" y1="400.76" x2="500.7" y2="406.16"/><line class="cls-3" x1="500.7" y1="400.76" x2="495.3" y2="406.16"/><line class="cls-3" x1="495.3" y1="416.29" x2="500.7" y2="421.69"/><line class="cls-3" x1="500.7" y1="416.29" x2="495.3" y2="421.69"/><line class="cls-2" x1="242.02" y1="423.24" x2="247.89" y2="429.52"/><path class="cls-4" d="M241.35,428.15a.41.41,0,0,1,.49-.29l5.93,1.52-1.13-6a.4.4,0,0,1,.32-.47.41.41,0,0,1,.47.32l1.24,6.63a.41.41,0,0,1-.12.37.42.42,0,0,1-.37.1l-6.54-1.68a.35.35,0,0,1-.19-.12A.4.4,0,0,1,241.35,428.15Z"/><line class="cls-2" x1="752.26" y1="402.31" x2="758.57" y2="409.03"/><path class="cls-4" d="M752,407.68a.4.4,0,0,1,.49-.29l5.93,1.51-1.14-6a.4.4,0,1,1,.79-.15l1.25,6.63a.38.38,0,0,1-.12.36.39.39,0,0,1-.37.1l-6.54-1.67a.4.4,0,0,1-.19-.11A.42.42,0,0,1,752,407.68Z"/><polyline class="cls-2" points="764.28 406.4 778.23 406.4 778.23 429.58 755.05 429.58 755.05 416.08"/><line class="cls-2" x1="757.08" y1="414.28" x2="778.23" y2="414.28"/><line class="cls-2" x1="755.05" y1="422.16" x2="778.23" y2="422.16"/><line class="cls-2" x1="762.7" y1="414.28" x2="762.7" y2="429.58"/><line class="cls-2" x1="771.25" y1="414.28" x2="771.25" y2="429.58"/><polyline class="cls-2" points="237.24 426.35 223.29 426.35 223.29 403.17 246.47 403.17 246.47 416.67"/><line class="cls-2" x1="244.44" y1="418.47" x2="223.29" y2="418.47"/><line class="cls-2" x1="246.47" y1="410.6" x2="223.29" y2="410.6"/><line class="cls-2" x1="238.81" y1="418.47" x2="238.81" y2="403.17"/><line class="cls-2" x1="230.26" y1="418.47" x2="230.26" y2="403.17"/><line class="cls-2" x1="257.05" y1="415.95" x2="469.45" y2="415.95"/><line class="cls-2" x1="513.71" y1="415.95" x2="743.42" y2="415.95"/><polygon class="cls-4" points="408.26 415.84 403.31 408.52 422.89 415.95 403.31 423.15 408.26 415.84"/><polygon class="cls-4" points="637.47 415.84 632.52 408.52 652.1 415.95 632.52 423.15 637.47 415.84"/><text class="cls-5" transform="translate(641.99 464.72)"><tspan class="cls-6">T</tspan><tspan x="8.1" y="0">able output STG_T_SV_CIDADE</tspan></text><text class="cls-5" transform="translate(436.61 464.72)">Select values 3</text><text class="cls-5" transform="translate(138.35 464.72)"><tspan class="cls-6">T</tspan><tspan x="8.1" y="0">able input</tspan><tspan class="cls-8" x="78.37" y="0"> </tspan><tspan x="82.58" y="0">T_SV_CIDADE</tspan></text><rect class="cls-2" x="212.95" y="529.27" width="44.1" height="44.1" rx="6" ry="6"/><rect class="cls-2" x="469.45" y="529.27" width="44.1" height="44.1" rx="6" ry="6"/><rect class="cls-2" x="742.94" y="529.27" width="44.1" height="44.1" rx="6" ry="6"/><rect class="cls-2" x="474.82" y="537.25" width="16.88" height="5.4"/><rect class="cls-2" x="474.82" y="545.02" width="32.74" height="5.4"/><rect class="cls-2" x="474.82" y="552.78" width="16.88" height="5.4"/><rect class="cls-2" x="474.82" y="560.54" width="32.74" height="5.4"/><line class="cls-3" x1="495.3" y1="537.25" x2="500.7" y2="542.65"/><line class="cls-3" x1="500.7" y1="537.25" x2="495.3" y2="542.65"/><line class="cls-3" x1="495.3" y1="552.78" x2="500.7" y2="558.18"/><line class="cls-3" x1="500.7" y1="552.78" x2="495.3" y2="558.18"/><line class="cls-2" x1="242.02" y1="559.74" x2="247.89" y2="566.01"/><path class="cls-4" d="M241.35,564.64a.42.42,0,0,1,.49-.29l5.93,1.53-1.13-6a.4.4,0,0,1,.79-.14l1.24,6.63a.4.4,0,0,1-.12.36.39.39,0,0,1-.37.1l-6.54-1.68a.4.4,0,0,1-.19-.11A.43.43,0,0,1,241.35,564.64Z"/><line class="cls-2" x1="752.26" y1="538.8" x2="758.57" y2="545.52"/><path class="cls-4" d="M752,544.17a.4.4,0,0,1,.49-.29l5.93,1.51-1.14-6a.4.4,0,0,1,.79-.15l1.25,6.63a.4.4,0,0,1-.12.37.39.39,0,0,1-.37.09l-6.54-1.66a.35.35,0,0,1-.19-.12A.4.4,0,0,1,752,544.17Z"/><polyline class="cls-2" points="764.28 542.9 778.23 542.9 778.23 566.08 755.05 566.08 755.05 552.57"/><line class="cls-2" x1="757.08" y1="550.77" x2="778.23" y2="550.77"/><line class="cls-2" x1="755.05" y1="558.65" x2="778.23" y2="558.65"/><line class="cls-2" x1="762.7" y1="550.77" x2="762.7" y2="566.07"/><line class="cls-2" x1="771.25" y1="550.77" x2="771.25" y2="566.07"/><polyline class="cls-2" points="237.24 562.84 223.29 562.84 223.29 539.66 246.47 539.66 246.47 553.16"/><line class="cls-2" x1="244.44" y1="554.97" x2="223.29" y2="554.97"/><line class="cls-2" x1="246.47" y1="547.09" x2="223.29" y2="547.09"/><line class="cls-2" x1="238.81" y1="554.97" x2="238.81" y2="539.66"/><line class="cls-2" x1="230.26" y1="554.97" x2="230.26" y2="539.66"/><line class="cls-2" x1="257.05" y1="552.44" x2="469.45" y2="552.44"/><line class="cls-2" x1="513.71" y1="552.44" x2="743.42" y2="552.44"/><polygon class="cls-4" points="408.26 552.33 403.31 545.02 422.89 552.44 403.31 559.64 408.26 552.33"/><polygon class="cls-4" points="637.47 552.33 632.52 545.02 652.1 552.44 632.52 559.64 637.47 552.33"/><text class="cls-5" transform="translate(614.08 601.21)"><tspan class="cls-6">T</tspan><tspan x="8.1" y="0">able output STG_T_SV_LOGRADOURO</tspan></text><text class="cls-5" transform="translate(436.61 601.21)">Select values 4</text><text class="cls-5" transform="translate(110.44 601.21)"><tspan class="cls-6">T</tspan><tspan x="8.1" y="0">able input</tspan><tspan class="cls-8" x="78.37" y="0"> </tspan><tspan x="82.58" y="0">T_SV_LOGRADOURO</tspan></text><rect class="cls-2" x="212.95" y="665.76" width="44.1" height="44.1" rx="6" ry="6"/><rect class="cls-2" x="469.45" y="665.76" width="44.1" height="44.1" rx="6" ry="6"/><rect class="cls-2" x="742.94" y="665.76" width="44.1" height="44.1" rx="6" ry="6"/><rect class="cls-2" x="474.82" y="673.75" width="16.88" height="5.4"/><rect class="cls-2" x="474.82" y="681.51" width="32.74" height="5.4"/><rect class="cls-2" x="474.82" y="689.27" width="16.88" height="5.4"/><rect class="cls-2" x="474.82" y="697.04" width="32.74" height="5.4"/><line class="cls-3" x1="495.3" y1="673.75" x2="500.7" y2="679.15"/><line class="cls-3" x1="500.7" y1="673.75" x2="495.3" y2="679.15"/><line class="cls-3" x1="495.3" y1="689.27" x2="500.7" y2="694.67"/><line class="cls-3" x1="500.7" y1="689.27" x2="495.3" y2="694.67"/><line class="cls-2" x1="242.02" y1="696.23" x2="247.89" y2="702.5"/><path class="cls-4" d="M241.35,701.13a.4.4,0,0,1,.49-.28l5.93,1.52-1.13-6a.4.4,0,1,1,.79-.15l1.24,6.63a.42.42,0,0,1-.12.37.39.39,0,0,1-.37.09l-6.54-1.68a.4.4,0,0,1-.19-.11A.43.43,0,0,1,241.35,701.13Z"/><line class="cls-2" x1="752.26" y1="675.29" x2="758.57" y2="682.02"/><path class="cls-4" d="M752,680.66a.41.41,0,0,1,.49-.29l5.93,1.51-1.14-6a.4.4,0,0,1,.32-.47.41.41,0,0,1,.47.32l1.25,6.63a.39.39,0,0,1-.49.46l-6.54-1.66a.4.4,0,0,1-.19-.11A.43.43,0,0,1,752,680.66Z"/><polyline class="cls-2" points="764.28 679.39 778.23 679.39 778.23 702.57 755.05 702.57 755.05 689.07"/><line class="cls-2" x1="757.08" y1="687.27" x2="778.23" y2="687.27"/><line class="cls-2" x1="755.05" y1="695.14" x2="778.23" y2="695.14"/><line class="cls-2" x1="762.7" y1="687.27" x2="762.7" y2="702.57"/><line class="cls-2" x1="771.25" y1="687.27" x2="771.25" y2="702.57"/><polyline class="cls-2" points="237.24 699.33 223.29 699.33 223.29 676.16 246.47 676.16 246.47 689.66"/><line class="cls-2" x1="244.44" y1="691.46" x2="223.29" y2="691.46"/><line class="cls-2" x1="246.47" y1="683.58" x2="223.29" y2="683.58"/><line class="cls-2" x1="238.81" y1="691.46" x2="238.81" y2="676.16"/><line class="cls-2" x1="230.26" y1="691.46" x2="230.26" y2="676.16"/><line class="cls-2" x1="257.05" y1="688.94" x2="469.45" y2="688.94"/><line class="cls-2" x1="513.71" y1="688.94" x2="743.42" y2="688.94"/><polygon class="cls-4" points="408.26 688.82 403.31 681.51 422.89 688.94 403.31 696.14 408.26 688.82"/><polygon class="cls-4" points="637.47 688.82 632.52 681.51 652.1 688.94 632.52 696.14 637.47 688.82"/><text class="cls-5" transform="translate(621.39 737.71)"><tspan class="cls-6">T</tspan><tspan x="8.1" y="0">able output STGG_T_SV_ENDERECO</tspan></text><text class="cls-5" transform="translate(436.61 737.71)">Select values 5</text><text class="cls-5" transform="translate(123.04 737.71)"><tspan class="cls-6">T</tspan><tspan x="8.1" y="0">able input</tspan><tspan class="cls-8" x="78.37" y="0"> </tspan><tspan x="82.58" y="0">T_SV_ENDERECO</tspan></text><text class="cls-10" transform="translate(84.26 82.28)">TRANS_EXTRACT_LOJ<tspan class="cls-11" x="246.92" y="0">A</tspan></text></g></svg>