<svg xmlns="http://www.w3.org/2000/svg" viewBox="0 0 800 520"><defs><style>.cls-1{fill:#fff;}.cls-2,.cls-3,.cls-6{fill:none;stroke-miterlimit:10;}.cls-2{stroke:#3d6480;}.cls-2,.cls-3{stroke-width:2px;}.cls-3{stroke:#e90419;}.cls-4{fill:#3d6480;}.cls-5{fill:#09b10c;}.cls-6{stroke:#fff;stroke-width:3px;}.cls-7{font-size:15.03px;fill:#303030;font-family:ArialMT, Arial;}.cls-8{letter-spacing:-0.11em;}.cls-9{letter-spacing:-0.02em;}</style></defs><title>7-vetores-fase6-Smart-City-TDS-2019</title><g id="Layer_20" data-name="Layer 20"><rect class="cls-1" width="800" height="520"/><rect class="cls-2" x="158.07" y="167.59" width="40.92" height="40.92" rx="6" ry="6"/><rect class="cls-2" x="366.02" y="167.59" width="40.92" height="40.92" rx="6" ry="6"/><rect class="cls-2" x="579.73" y="167.59" width="40.92" height="40.92" rx="6" ry="6"/><rect class="cls-2" x="371" y="175" width="15.66" height="5.01"/><rect class="cls-2" x="371" y="182.2" width="30.37" height="5.01"/><rect class="cls-2" x="371" y="189.4" width="15.66" height="5.01"/><rect class="cls-2" x="371" y="196.6" width="30.37" height="5.01"/><line class="cls-3" x1="390" y1="175" x2="395.01" y2="180.01"/><line class="cls-3" x1="395.01" y1="175" x2="390" y2="180.01"/><line class="cls-3" x1="390" y1="189.4" x2="395.01" y2="194.41"/><line class="cls-3" x1="395.01" y1="189.4" x2="390" y2="194.41"/><line class="cls-2" x1="185.04" y1="195.86" x2="190.43" y2="201.62"/><path class="cls-4" d="M183.89,200.25a.4.4,0,0,1,.49-.28l5.93,1.52-1.13-6a.41.41,0,0,1,.32-.47.4.4,0,0,1,.47.32l1.24,6.63a.4.4,0,0,1-.12.37.39.39,0,0,1-.37.09l-6.54-1.68a.45.45,0,0,1-.19-.11A.43.43,0,0,1,183.89,200.25Z"/><line class="cls-2" x1="587.38" y1="175.43" x2="593.19" y2="181.62"/><path class="cls-4" d="M586.65,180.26a.4.4,0,0,1,.48-.29l5.93,1.52-1.13-6a.4.4,0,0,1,.31-.47.41.41,0,0,1,.47.32L594,182a.41.41,0,0,1-.12.37.43.43,0,0,1-.38.1l-6.53-1.67a.43.43,0,0,1-.2-.11A.4.4,0,0,1,586.65,180.26Z"/><polyline class="cls-2" points="598.53 178.23 611.47 178.23 611.47 199.73 589.97 199.73 589.97 187.21"/><line class="cls-2" x1="591.85" y1="185.54" x2="611.47" y2="185.54"/><line class="cls-2" x1="589.97" y1="192.85" x2="611.47" y2="192.85"/><line class="cls-2" x1="597.07" y1="185.54" x2="597.07" y2="199.73"/><line class="cls-2" x1="605" y1="185.54" x2="605" y2="199.73"/><polyline class="cls-2" points="179.6 198.73 166.66 198.73 166.66 177.23 188.16 177.23 188.16 189.76"/><line class="cls-2" x1="186.28" y1="191.43" x2="166.66" y2="191.43"/><line class="cls-2" x1="188.16" y1="184.12" x2="166.66" y2="184.12"/><line class="cls-2" x1="181.06" y1="191.43" x2="181.06" y2="177.23"/><line class="cls-2" x1="173.13" y1="191.43" x2="173.13" y2="177.23"/><circle class="cls-5" cx="618.82" cy="169.52" r="9.45"/><polyline class="cls-6" points="614.1 168.54 617.79 172.18 623.83 166.75"/><circle class="cls-5" cx="406.93" cy="169.52" r="9.45"/><polyline class="cls-6" points="402.22 168.54 405.9 172.18 411.94 166.75"/><circle class="cls-5" cx="197.1" cy="169.52" r="9.45"/><polyline class="cls-6" points="192.39 168.54 196.07 172.18 202.11 166.75"/><line class="cls-2" x1="198.98" y1="189.09" x2="366.02" y2="189.09"/><line class="cls-2" x1="407.08" y1="189.09" x2="580.18" y2="189.09"/><polygon class="cls-4" points="309.26 188.98 304.67 182.2 322.83 189.09 304.67 195.77 309.26 188.98"/><polygon class="cls-4" points="521.89 188.98 517.3 182.2 535.46 189.09 517.3 195.77 521.89 188.98"/><text class="cls-7" transform="translate(482.74 232.33)"><tspan class="cls-8">T</tspan><tspan x="7.51" y="0">able output STG_T_SV_CLIENTE</tspan></text><text class="cls-7" transform="translate(340.82 232.33)">Select values</text><text class="cls-7" transform="translate(84.51 232.33)"><tspan class="cls-8">T</tspan><tspan x="7.51" y="0">able input</tspan><tspan class="cls-9" x="72.7" y="0"> </tspan><tspan x="76.6" y="0">T_SV_CLIENTE</tspan></text><rect class="cls-2" x="158.07" y="290.3" width="40.92" height="40.92" rx="6" ry="6"/><rect class="cls-2" x="366.02" y="290.3" width="40.92" height="40.92" rx="6" ry="6"/><rect class="cls-2" x="579.73" y="290.3" width="40.92" height="40.92" rx="6" ry="6"/><rect class="cls-2" x="371" y="297.71" width="15.66" height="5.01"/><rect class="cls-2" x="371" y="304.91" width="30.37" height="5.01"/><rect class="cls-2" x="371" y="312.11" width="15.66" height="5.01"/><rect class="cls-2" x="371" y="319.32" width="30.37" height="5.01"/><line class="cls-3" x1="390" y1="297.71" x2="395.01" y2="302.72"/><line class="cls-3" x1="395.01" y1="297.71" x2="390" y2="302.72"/><line class="cls-3" x1="390" y1="312.11" x2="395.01" y2="317.12"/><line class="cls-3" x1="395.01" y1="312.11" x2="390" y2="317.12"/><line class="cls-2" x1="185.04" y1="317.57" x2="190.43" y2="323.34"/><path class="cls-4" d="M183.89,322a.41.41,0,0,1,.49-.29l5.93,1.52-1.13-6A.4.4,0,0,1,190,317l1.24,6.63a.39.39,0,0,1-.12.37.42.42,0,0,1-.37.1l-6.54-1.68a.39.39,0,0,1-.19-.12A.4.4,0,0,1,183.89,322Z"/><line class="cls-2" x1="588.38" y1="299.15" x2="594.19" y2="305.33"/><path class="cls-4" d="M587.65,304a.39.39,0,0,1,.48-.29l5.93,1.51-1.13-6a.39.39,0,0,1,.31-.47.4.4,0,0,1,.47.32l1.26,6.63a.41.41,0,0,1-.5.46l-6.53-1.67a.43.43,0,0,1-.2-.11A.39.39,0,0,1,587.65,304Z"/><polyline class="cls-2" points="598.53 301.95 611.47 301.95 611.47 323.45 589.97 323.45 589.97 310.92"/><line class="cls-2" x1="591.85" y1="309.25" x2="611.47" y2="309.25"/><line class="cls-2" x1="589.97" y1="316.56" x2="611.47" y2="316.56"/><line class="cls-2" x1="597.07" y1="309.25" x2="597.07" y2="323.45"/><line class="cls-2" x1="605" y1="309.25" x2="605" y2="323.45"/><polyline class="cls-2" points="179.6 320.45 166.66 320.45 166.66 298.95 188.16 298.95 188.16 311.47"/><line class="cls-2" x1="186.28" y1="313.14" x2="166.66" y2="313.14"/><line class="cls-2" x1="188.16" y1="305.84" x2="166.66" y2="305.84"/><line class="cls-2" x1="181.06" y1="313.14" x2="181.06" y2="298.95"/><line class="cls-2" x1="173.13" y1="313.14" x2="173.13" y2="298.95"/><polyline class="cls-6" points="192.39 291.26 196.07 294.89 202.11 289.46"/><line class="cls-2" x1="198.98" y1="311.8" x2="366.02" y2="311.8"/><line class="cls-2" x1="407.08" y1="311.8" x2="580.18" y2="311.8"/><polygon class="cls-4" points="309.26 311.7 304.67 304.91 322.83 311.8 304.67 318.48 309.26 311.7"/><polygon class="cls-4" points="521.89 311.7 517.3 304.91 535.46 311.8 517.3 318.48 521.89 311.7"/><text class="cls-7" transform="translate(462.02 355.05)"><tspan class="cls-8">T</tspan><tspan x="7.51" y="0">able output STG_T_SV_TIPO_CLIENTE</tspan></text><text class="cls-7" transform="translate(335.55 355.05)">Select values 2</text><text class="cls-7" transform="translate(62.8 355.05)"><tspan class="cls-8">T</tspan><tspan x="7.51" y="0">able input</tspan><tspan class="cls-9" x="72.7" y="0"> </tspan><tspan x="76.6" y="0">T_SV_TIPO_CLIENTE</tspan></text></g></svg>