<svg xmlns="http://www.w3.org/2000/svg" viewBox="0 0 800 520"><defs><style>.cls-1{fill:#fff;}.cls-2{fill:#e2ecf4;}.cls-3,.cls-4,.cls-6{fill:none;}.cls-10,.cls-3{stroke:#3d6480;}.cls-10,.cls-3,.cls-4,.cls-6{stroke-miterlimit:10;}.cls-10,.cls-3,.cls-4{stroke-width:2px;}.cls-4{stroke:#e90419;}.cls-5{fill:#3d6480;}.cls-6{stroke:#0053a0;stroke-width:3px;}.cls-7{font-size:15.96px;fill:#303030;font-family:ArialMT, Arial;}.cls-8{letter-spacing:-0.11em;}.cls-9{letter-spacing:-0.11em;}.cls-10{fill:#f4e4cb;}</style></defs><title>7-vetores-fase6-Smart-City-TDS-2019</title><g id="Layer_25" data-name="Layer 25"><rect class="cls-1" x="2.16" width="797.84" height="520"/><rect class="cls-2" x="56.12" y="265.81" width="102.79" height="34.76" rx="16.37" ry="16.37"/><rect class="cls-3" x="284.06" y="219.44" width="43.45" height="43.45" rx="6" ry="6"/><rect class="cls-3" x="483.66" y="219.44" width="43.45" height="43.45" rx="6" ry="6"/><rect class="cls-3" x="678.75" y="219.44" width="43.45" height="43.45" rx="6" ry="6"/><rect class="cls-3" x="488.94" y="227.31" width="16.63" height="5.32"/><rect class="cls-3" x="488.94" y="234.95" width="32.26" height="5.32"/><rect class="cls-3" x="488.94" y="242.6" width="16.63" height="5.32"/><rect class="cls-3" x="488.94" y="250.25" width="32.26" height="5.32"/><line class="cls-4" x1="509.12" y1="227.31" x2="514.44" y2="232.63"/><line class="cls-4" x1="514.44" y1="227.31" x2="509.12" y2="232.63"/><line class="cls-4" x1="509.12" y1="242.6" x2="514.44" y2="247.92"/><line class="cls-4" x1="514.44" y1="242.6" x2="509.12" y2="247.92"/><line class="cls-3" x1="687.93" y1="227.77" x2="694.14" y2="234.38"/><path class="cls-5" d="M687.6,233a.4.4,0,0,1,.49-.28l5.93,1.51-1.14-6a.4.4,0,0,1,.32-.46.4.4,0,0,1,.47.32l1.25,6.63a.38.38,0,0,1-.12.36.39.39,0,0,1-.37.1l-6.54-1.67a.4.4,0,0,1-.19-.11A.43.43,0,0,1,687.6,233Z"/><polyline class="cls-3" points="698.71 231.8 712.46 231.8 712.46 254.64 689.62 254.64 689.62 241.34"/><line class="cls-3" x1="691.62" y1="239.56" x2="712.45" y2="239.56"/><line class="cls-3" x1="689.62" y1="247.32" x2="712.45" y2="247.32"/><line class="cls-3" x1="697.16" y1="239.56" x2="697.16" y2="254.64"/><line class="cls-3" x1="705.58" y1="239.56" x2="705.58" y2="254.64"/><rect class="cls-6" x="84.34" y="219.44" width="43.45" height="43.45" rx="6" ry="6"/><line class="cls-3" x1="114.04" y1="250.52" x2="119.82" y2="256.69"/><path class="cls-5" d="M113.28,255.32a.39.39,0,0,1,.48-.29l5.93,1.52-1.12-6a.4.4,0,1,1,.78-.15l1.24,6.63a.39.39,0,0,1-.12.37.42.42,0,0,1-.37.1l-6.53-1.68a.45.45,0,0,1-.2-.12A.38.38,0,0,1,113.28,255.32Z"/><polyline class="cls-3" points="108.27 252.51 94.53 252.51 94.53 229.68 117.36 229.68 117.36 242.98"/><line class="cls-3" x1="115.36" y1="244.75" x2="94.53" y2="244.75"/><line class="cls-3" x1="117.36" y1="236.99" x2="94.53" y2="236.99"/><line class="cls-3" x1="109.82" y1="244.75" x2="109.82" y2="229.68"/><line class="cls-3" x1="101.4" y1="244.75" x2="101.4" y2="229.68"/><line class="cls-3" x1="327.51" y1="242.27" x2="483.66" y2="242.27"/><line class="cls-3" x1="127.57" y1="242.27" x2="283.72" y2="242.27"/><line class="cls-3" x1="527.26" y1="242.27" x2="679.22" y2="242.27"/><polygon class="cls-5" points="423.38 242.16 418.5 234.95 437.79 242.27 418.5 249.36 423.38 242.16"/><polygon class="cls-5" points="222.88 242.16 218 234.95 237.29 242.27 218 249.36 222.88 242.16"/><polygon class="cls-5" points="617.33 242.16 612.45 234.95 631.74 242.27 612.45 249.36 617.33 242.16"/><text class="cls-7" transform="translate(656.91 289.26)"><tspan class="cls-8">T</tspan><tspan x="7.98" y="0">able output</tspan></text><text class="cls-7" transform="translate(459.02 289.26)">Select values</text><text class="cls-7" transform="translate(245.89 289.26)">Database lookup</text><text class="cls-7" transform="translate(68.03 289.26)"><tspan class="cls-9">T</tspan><tspan x="7.98" y="0">able input</tspan></text><path class="cls-10" d="M303.6,226.82c-4.83,0-8.76,1-8.76,2.33v17.76c0,1.29,3.93,2.33,8.76,2.33s8.76-1,8.76-2.33V229.15C312.36,227.86,308.44,226.82,303.6,226.82Z"/><path class="cls-3" d="M294.84,229.25c0,1.29,3.93,2.33,8.76,2.33s8.76-1,8.76-2.33"/><path class="cls-3" d="M294.84,234.29c0,1.29,3.93,2.34,8.76,2.34s8.76-1,8.76-2.34"/><path class="cls-3" d="M294.84,240.74c0,1.29,3.93,2.33,8.76,2.33s8.76-1,8.76-2.33"/><circle class="cls-1" cx="313.06" cy="248.48" r="7.28"/><circle class="cls-3" cx="312.94" cy="248.74" r="3.7"/><line class="cls-3" x1="315.6" y1="251.57" x2="318.88" y2="255.31"/></g></svg>