<?xml version="1.0" encoding="utf-8"?>
<!-- Generator: Adobe Illustrator 21.0.0, SVG Export Plug-In . SVG Version: 6.00 Build 0)  -->
<svg version="1.1" id="Layer_1" xmlns="http://www.w3.org/2000/svg" xmlns:xlink="http://www.w3.org/1999/xlink" x="0px" y="0px"
	 width="1000px" height="650px" viewBox="0 0 1000 650" style="enable-background:new 0 0 1000 650;" xml:space="preserve">
<style type="text/css">
	.st0{fill:#FFFFFF;}
	.st1{fill:none;stroke:#3D6480;stroke-width:2;stroke-miterlimit:10;}
	.st2{fill:none;stroke:#E90419;stroke-width:2;stroke-miterlimit:10;}
	.st3{fill:#3D6480;}
	.st4{fill:#303030;}
	.st5{font-family:'Arial';}
	.st6{font-size:17.63px;}
	.st7{letter-spacing:-1;}
</style>
<title>7-vetores-fase6-Smart-City-TDS-2019</title>
<g id="Layer_31">
	<rect y="1" class="st0" width="1000" height="648"/>
	<path class="st1" d="M731.5,283.6h36c3.3,0,6,2.7,6,6v36c0,3.3-2.7,6-6,6h-36c-3.3,0-6-2.7-6-6v-36
		C725.5,286.3,728.2,283.6,731.5,283.6z"/>
	<path class="st1" d="M443.6,283.6h36c3.3,0,6,2.7,6,6v36c0,3.3-2.7,6-6,6h-36c-3.3,0-6-2.7-6-6v-36
		C437.6,286.3,440.3,283.6,443.6,283.6z"/>
	<rect x="443.5" y="292.3" class="st1" width="18.4" height="5.9"/>
	<rect x="443.5" y="300.7" class="st1" width="35.6" height="5.9"/>
	<rect x="443.5" y="309.2" class="st1" width="18.4" height="5.9"/>
	<rect x="443.5" y="317.6" class="st1" width="35.6" height="5.9"/>
	<line class="st2" x1="465.7" y1="292.3" x2="471.6" y2="298.1"/>
	<line class="st2" x1="471.6" y1="292.3" x2="465.7" y2="298.1"/>
	<line class="st2" x1="465.7" y1="309.2" x2="471.6" y2="315"/>
	<line class="st2" x1="471.6" y1="309.2" x2="465.7" y2="315"/>
	<path class="st1" d="M149.9,283.6h36c3.3,0,6,2.7,6,6v36c0,3.3-2.7,6-6,6h-36c-3.3,0-6-2.7-6-6v-36
		C143.9,286.3,146.6,283.6,149.9,283.6z"/>
	<line class="st1" x1="176.7" y1="317.9" x2="183.2" y2="324.8"/>
	<path class="st3" d="M176.6,323.4c0-0.2,0.3-0.3,0.5-0.3c0,0,0,0,0,0l5.9,1.5l-1.1-6c0-0.2,0.1-0.4,0.3-0.5c0.2,0,0.4,0.1,0.5,0.3
		l1.2,6.6c0,0.2-0.1,0.4-0.3,0.5c-0.1,0-0.1,0-0.2,0l-6.5-1.7c-0.1,0-0.1-0.1-0.2-0.1C176.6,323.7,176.6,323.6,176.6,323.4z"/>
	<polyline class="st1" points="170.4,320.1 155.2,320.1 155.2,294.9 180.4,294.9 180.4,309.6 	"/>
	<line class="st1" x1="178.2" y1="311.5" x2="155.2" y2="311.5"/>
	<line class="st1" x1="180.4" y1="303" x2="155.2" y2="303"/>
	<line class="st1" x1="172.1" y1="311.5" x2="172.1" y2="294.9"/>
	<line class="st1" x1="162.8" y1="311.5" x2="162.8" y2="294.9"/>
	<line class="st1" x1="485.6" y1="308.8" x2="724.3" y2="308.8"/>
	<line class="st1" x1="191.7" y1="308.8" x2="437.2" y2="308.8"/>
	<polygon class="st3" points="646.7,308.7 641.3,300.7 662.6,308.8 641.3,316.6 	"/>
	<polygon class="st3" points="370,308.7 364.7,300.7 386,308.8 364.7,316.6 	"/>
	<text transform="matrix(1 0 0 1 538.89 360.69)" class="st4 st5 st6">Dimension lookup/update DIM_VENDA_PROMOCAO</text>
	<text transform="matrix(1 0 0 1 409.18 360.69)" class="st4 st5 st6">Select values</text>
	<text transform="matrix(1 0 0 1 39.85 360.69)" class="st4 st5 st6 st7">T</text>
	<text transform="matrix(1 0 0 1 48.66 360.69)" class="st4 st5 st6">able input STG_PROMOCOES</text>
	<polyline class="st1" points="736.6,295.8 736.6,321.1 751.8,321.1 	"/>
	<polygon class="st3" points="733.6,296.6 736.6,291.4 739.6,296.6 	"/>
	<line class="st1" x1="736.6" y1="321.1" x2="752.6" y2="305.1"/>
	<polygon class="st3" points="754.1,307.8 755.6,302 749.8,303.6 	"/>
	<circle class="st1" cx="759" cy="318.1" r="4.3"/>
	<line class="st1" x1="762.1" y1="321.1" x2="765.8" y2="325.4"/>
</g>
</svg>
