<svg xmlns="http://www.w3.org/2000/svg" viewBox="0 0 800 520"><defs><style>.cls-1{fill:#fff;}.cls-2,.cls-3{fill:none;}.cls-2,.cls-5{stroke:#3d6480;}.cls-2,.cls-3,.cls-5{stroke-miterlimit:10;stroke-width:2px;}.cls-3{stroke:#e90419;}.cls-4{fill:#3d6480;}.cls-5{fill:#dbf3db;}.cls-6{font-size:17.25px;fill:#303030;font-family:ArialMT, Arial;}.cls-7{letter-spacing:-0.11em;}</style></defs><title>7-vetores-fase6-Smart-City-TDS-2019</title><g id="Layer_19" data-name="Layer 19"><rect class="cls-1" width="800" height="520"/><rect class="cls-2" x="126.92" y="219.83" width="46.96" height="46.96" rx="6" ry="6"/><rect class="cls-2" x="392.66" y="219.83" width="46.96" height="46.96" rx="6" ry="6"/><rect class="cls-2" x="659.71" y="219.83" width="46.96" height="46.96" rx="6" ry="6"/><rect class="cls-2" x="398.37" y="228.34" width="17.97" height="5.75"/><rect class="cls-2" x="398.37" y="236.61" width="34.86" height="5.75"/><rect class="cls-2" x="398.37" y="244.87" width="17.97" height="5.75"/><rect class="cls-2" x="398.37" y="253.14" width="34.86" height="5.75"/><line class="cls-3" x1="420.18" y1="228.34" x2="425.93" y2="234.09"/><line class="cls-3" x1="425.93" y1="228.34" x2="420.18" y2="234.09"/><line class="cls-3" x1="420.18" y1="244.87" x2="425.93" y2="250.62"/><line class="cls-3" x1="425.93" y1="244.87" x2="420.18" y2="250.62"/><line class="cls-2" x1="157.02" y1="252.58" x2="163.32" y2="259.3"/><path class="cls-4" d="M156.78,257.93a.39.39,0,0,1,.48-.28l5.93,1.52-1.12-6a.4.4,0,1,1,.78-.14l1.24,6.63a.4.4,0,0,1-.12.37.41.41,0,0,1-.37.09l-6.53-1.68a.43.43,0,0,1-.2-.11A.4.4,0,0,1,156.78,257.93Z"/><polyline class="cls-5" points="150.4 255.45 137.94 255.45 137.94 228.38 153.27 228.38 153.39 233.77 158.07 233.65 158.07 247.31"/><line class="cls-2" x1="144.29" y1="236.79" x2="151.54" y2="248.04"/><line class="cls-2" x1="151.54" y1="236.79" x2="144.29" y2="248.04"/><line class="cls-2" x1="669.04" y1="228.54" x2="675.81" y2="235.75"/><path class="cls-4" d="M669.27,234.39a.39.39,0,0,1,.48-.28l5.93,1.51-1.13-6a.4.4,0,0,1,.78-.15l1.26,6.63a.41.41,0,0,1-.12.37.42.42,0,0,1-.37.1l-6.54-1.67a.43.43,0,0,1-.2-.11A.4.4,0,0,1,669.27,234.39Z"/><polyline class="cls-2" points="682.14 233.05 696.99 233.05 696.99 257.73 672.31 257.73 672.31 243.36"/><line class="cls-2" x1="674.47" y1="241.44" x2="696.99" y2="241.44"/><line class="cls-2" x1="672.31" y1="249.83" x2="696.99" y2="249.83"/><line class="cls-2" x1="680.46" y1="241.44" x2="680.46" y2="257.73"/><line class="cls-2" x1="689.56" y1="241.44" x2="689.56" y2="257.73"/><line class="cls-2" x1="173.88" y1="244.51" x2="392.66" y2="244.51"/><line class="cls-2" x1="439.79" y1="244.51" x2="660.22" y2="244.51"/><polygon class="cls-4" points="315.54 244.39 310.27 236.61 331.11 244.51 310.27 252.18 315.54 244.39"/><polygon class="cls-4" points="582.5 244.39 577.23 236.61 598.08 244.51 577.23 252.18 582.5 244.39"/><text class="cls-6" transform="translate(635.66 294.56)"><tspan class="cls-7">T</tspan><tspan x="8.63" y="0">able output</tspan></text><text class="cls-6" transform="translate(365.61 294.56)">Select values</text><text class="cls-6" transform="translate(70.34 294.56)">Microsoft Excel Input</text></g></svg>