<svg xmlns="http://www.w3.org/2000/svg" viewBox="0 0 800 343.94"><defs><style>.cls-1,.cls-11{fill:#fff;}.cls-12,.cls-2,.cls-3,.cls-6{fill:none;}.cls-2,.cls-5,.cls-6{stroke:#3d6480;}.cls-12,.cls-2,.cls-3,.cls-5,.cls-6{stroke-miterlimit:10;}.cls-12,.cls-2,.cls-3,.cls-5{stroke-width:3px;}.cls-3{stroke:#e90419;}.cls-4{fill:#3d6480;}.cls-5{fill:#f4fdff;}.cls-6{stroke-width:2px;}.cls-11,.cls-7{font-size:21.24px;}.cls-7,.cls-9{fill:#303030;}.cls-11,.cls-7,.cls-9{font-family:Arial;}.cls-8{letter-spacing:-0.11em;}.cls-9{font-size:36.03px;}.cls-10{fill:#3d6380;}.cls-12{stroke:#f0265d;}.cls-13{fill:#f0265d;}</style></defs><title>7-vetores-fase6-Smart-City-TDS</title><g id="Layer_9" data-name="Layer 9"><rect class="cls-1" width="800" height="343.94"/><rect class="cls-2" x="132.72" y="85.42" width="66.27" height="66.27" rx="6" ry="6"/><rect class="cls-2" x="375.34" y="85.42" width="66.27" height="66.27" rx="6" ry="6"/><rect class="cls-2" x="612.47" y="85.42" width="66.27" height="66.27" rx="6" ry="6"/><rect class="cls-2" x="383.41" y="97.42" width="25.36" height="8.11"/><rect class="cls-2" x="383.41" y="109.08" width="49.19" height="8.11"/><rect class="cls-2" x="383.41" y="120.75" width="25.36" height="8.11"/><rect class="cls-2" x="383.41" y="132.41" width="49.19" height="8.11"/><line class="cls-3" x1="414.18" y1="97.42" x2="422.29" y2="105.53"/><line class="cls-3" x1="422.29" y1="97.42" x2="414.18" y2="105.53"/><line class="cls-3" x1="414.18" y1="120.75" x2="422.29" y2="128.86"/><line class="cls-3" x1="422.29" y1="120.75" x2="414.18" y2="128.86"/><line class="cls-2" x1="178.02" y1="132.44" x2="186.84" y2="141.87"/><path class="cls-4" d="M177,139.82a.6.6,0,0,1,.73-.43l8.89,2.29-1.69-9a.6.6,0,1,1,1.18-.22l1.86,9.95a.6.6,0,0,1-.74.69l-9.8-2.52a.6.6,0,0,1-.43-.73Z"/><polyline class="cls-5" points="165.85 136.5 148.27 136.5 148.27 98.29 169.91 98.29 170.08 105.9 176.67 105.73 176.67 125"/><line class="cls-2" x1="155.37" y1="113" x2="170.75" y2="113"/><line class="cls-2" x1="155.37" y1="118.24" x2="170.75" y2="118.24"/><line class="cls-2" x1="155.37" y1="123.48" x2="159.09" y2="123.48"/><line class="cls-2" x1="624" y1="96.88" x2="633.49" y2="106.99"/><path class="cls-4" d="M623.67,105a.6.6,0,0,1,.73-.43l8.9,2.27-1.71-9a.6.6,0,1,1,1.18-.22l1.88,9.95a.6.6,0,0,1-.74.69l-9.81-2.5a.6.6,0,0,1-.43-.73Z"/><polyline class="cls-2" points="645.3 104.66 666.26 104.66 666.26 139.49 631.43 139.49 631.43 119.2"/><line class="cls-2" x1="634.48" y1="116.49" x2="666.26" y2="116.49"/><line class="cls-2" x1="631.43" y1="128.33" x2="666.26" y2="128.33"/><line class="cls-2" x1="642.93" y1="116.49" x2="642.93" y2="139.49"/><line class="cls-2" x1="655.78" y1="116.49" x2="655.78" y2="139.49"/><line class="cls-6" x1="198.98" y1="120.24" x2="375.34" y2="120.24"/><line class="cls-6" x1="441.85" y1="120.24" x2="613.19" y2="120.24"/><polygon class="cls-4" points="318.56 120.07 311.13 109.08 340.54 120.24 311.13 131.06 318.56 120.07"/><polygon class="cls-4" points="556.85 120.07 549.41 109.08 578.83 120.24 549.41 131.06 556.85 120.07"/><text class="cls-7" transform="translate(582.76 183.81)"><tspan class="cls-8">T</tspan><tspan x="10.62" y="0">able output</tspan></text><text class="cls-7" transform="translate(101.51 183.81)">CSV file input</text><text class="cls-9" transform="translate(149.61 234.39)">Entrada</text><text class="cls-9" transform="translate(549.24 234.39)">Saída</text><rect class="cls-6" x="300.9" y="164.55" width="215.62" height="93.97" rx="4" ry="4"/><path class="cls-10" d="M304.9,164.55H512.52a4,4,0,0,1,4,4v37.78a0,0,0,0,1,0,0H300.9a0,0,0,0,1,0,0V168.55A4,4,0,0,1,304.9,164.55Z"/><text class="cls-11" transform="translate(345.31 192.88)">Select values</text><polygon class="cls-10" points="422.29 164.55 408.77 149.11 396.09 164.55 422.29 164.55"/><polyline class="cls-2" points="321.25 224.98 321.25 218.7 347.08 218.7 347.08 245.25 321.25 245.25 321.25 239.94"/><line class="cls-2" x1="321.25" y1="231.98" x2="325.56" y2="231.98"/><polygon class="cls-4" points="323.81 237.96 334.17 231.98 323.81 225.99 323.81 237.96"/><polyline class="cls-2" points="464.63 224.98 464.63 218.7 438.8 218.7 438.8 245.25 464.63 245.25 464.63 239.94"/><line class="cls-2" x1="451.83" y1="231.98" x2="456.14" y2="231.98"/><polygon class="cls-4" points="454.39 237.96 464.75 231.98 454.39 225.99 454.39 237.96"/><polygon class="cls-2" points="365.13 244.96 386.13 225.41 380.87 220.15 359.87 239.7 359.87 244.96 365.13 244.96"/><line class="cls-2" x1="375.8" y1="224.25" x2="381.06" y2="229.51"/><polygon class="cls-2" points="502.04 230.29 498.9 230.29 486.59 242.11 480.56 242.11 480.56 236.08 492.87 224.25 492.87 220.15 502.04 230.29"/><line class="cls-2" x1="480.56" y1="242.11" x2="475.97" y2="246.7"/><polygon class="cls-2" points="498.89 224.25 498.89 217.25 505.66 224.25 498.89 224.25"/><path class="cls-10" d="M427.16,232.34v-1.22a1.63,1.63,0,0,0-1.63-1.63h-.23a1.61,1.61,0,0,1-1.55-1.13,11.57,11.57,0,0,0-.87-2.11,1.61,1.61,0,0,1,.29-1.9l.16-.16a1.63,1.63,0,0,0,0-2.31l-.87-.87a1.63,1.63,0,0,0-2.31,0l-.16.16a1.61,1.61,0,0,1-1.9.29,11.57,11.57,0,0,0-2.11-.87,1.61,1.61,0,0,1-1.13-1.55v-.23a1.63,1.63,0,0,0-1.63-1.63H412a1.63,1.63,0,0,0-1.63,1.63V219a1.61,1.61,0,0,1-1.13,1.55,11.57,11.57,0,0,0-2.11.87,1.61,1.61,0,0,1-1.9-.29l-.16-.16a1.63,1.63,0,0,0-2.31,0l-.87.87a1.63,1.63,0,0,0,0,2.31l.16.16a1.61,1.61,0,0,1,.29,1.9,11.57,11.57,0,0,0-.87,2.11,1.61,1.61,0,0,1-1.55,1.13h-.23a1.63,1.63,0,0,0-1.63,1.63v1.22A1.63,1.63,0,0,0,399.7,234h.23a1.61,1.61,0,0,1,1.55,1.13,11.57,11.57,0,0,0,.87,2.11,1.61,1.61,0,0,1-.29,1.9l-.16.16a1.63,1.63,0,0,0,0,2.31l.87.87a1.63,1.63,0,0,0,2.31,0l.16-.16a1.61,1.61,0,0,1,1.9-.29,11.57,11.57,0,0,0,2.11.87,1.61,1.61,0,0,1,1.13,1.55v.23a1.63,1.63,0,0,0,1.63,1.63h1.22a1.63,1.63,0,0,0,1.63-1.63v-.23a1.61,1.61,0,0,1,1.13-1.55,11.57,11.57,0,0,0,2.11-.87,1.61,1.61,0,0,1,1.9.29l.16.16a1.63,1.63,0,0,0,2.31,0l.87-.87a1.63,1.63,0,0,0,0-2.31l-.16-.16a1.61,1.61,0,0,1-.29-1.9,11.57,11.57,0,0,0,.87-2.11A1.61,1.61,0,0,1,425.3,234h.23A1.63,1.63,0,0,0,427.16,232.34Zm-9.62,4.32c-7.18,5.51-15.37-2.68-9.86-9.86C414.86,221.27,423.07,229.47,417.54,236.66Z"/><line class="cls-12" x1="272.94" y1="145.12" x2="334.17" y2="218.7"/><polygon class="cls-13" points="269.46 150.29 267.43 138.5 278.66 142.64 269.46 150.29"/><line class="cls-12" x1="460.76" y1="218.7" x2="530.52" y2="145.9"/><polygon class="cls-13" points="533.63 151.3 536.47 139.68 524.99 143.03 533.63 151.3"/></g></svg>