<svg xmlns="http://www.w3.org/2000/svg" viewBox="0 0 800 858"><defs><style>.cls-1,.cls-4{fill:#fff;}.cls-2,.cls-29{fill:#f2f2f2;}.cls-19,.cls-21,.cls-23,.cls-24,.cls-26,.cls-3,.cls-5{fill:none;}.cls-29,.cls-3,.cls-4{stroke:#666;}.cls-19,.cls-21,.cls-23,.cls-24,.cls-26,.cls-29,.cls-3,.cls-4,.cls-5{stroke-miterlimit:10;}.cls-19,.cls-21,.cls-24,.cls-26,.cls-29,.cls-3,.cls-4{stroke-width:2px;}.cls-5{stroke:#b3b3b3;stroke-width:3px;}.cls-6{fill:#b3b3b3;}.cls-10,.cls-17,.cls-7{font-size:19.51px;}.cls-10,.cls-17,.cls-25,.cls-7{fill:#303030;}.cls-10,.cls-12,.cls-7{font-family:Arial-BoldMT, Arial;}.cls-10,.cls-12,.cls-8{font-weight:700;}.cls-14,.cls-17,.cls-9{font-family:ArialMT, Arial;}.cls-11{letter-spacing:-0.07em;}.cls-12,.cls-14{font-size:13.66px;}.cls-13{letter-spacing:-0.07em;}.cls-15{letter-spacing:-0.04em;}.cls-16{letter-spacing:-0.06em;}.cls-18{letter-spacing:-0.04em;}.cls-19{stroke:#6d0c8f;}.cls-20{fill:#6d0c8f;}.cls-21,.cls-23{stroke:#006cbf;}.cls-22{fill:#006cbf;}.cls-24{stroke:#303030;}.cls-26{stroke:#30908f;}.cls-27{fill:#30908f;}.cls-28{fill:#666;}</style></defs><title>7-vetores-fase6-Smart-City-TDS-2019</title><g id="Layer_5" data-name="Layer 5"><rect class="cls-1" width="800" height="858"/><rect class="cls-2" x="119.04" y="433.92" width="561.92" height="200.32" rx="5" ry="5"/><rect class="cls-2" x="119.04" y="41.56" width="561.92" height="180.15" rx="5" ry="5"/><rect class="cls-2" x="421.21" y="255.54" width="259.75" height="154.97" rx="5" ry="5"/><rect class="cls-2" x="119.04" y="255.54" width="280.96" height="154.97" rx="5" ry="5"/><path class="cls-3" d="M329.76,793c0,12.93-34.94,23.42-78,23.42s-78-10.49-78-23.42V707.08H329.76Z"/><ellipse class="cls-4" cx="251.71" cy="707.08" rx="78.04" ry="23.41"/><rect class="cls-1" x="132.7" y="89.69" width="204.87" height="96.58" rx="5" ry="5"/><rect class="cls-1" x="459.25" y="89.69" width="204.87" height="96.58" rx="5" ry="5"/><rect class="cls-1" x="132.7" y="486.6" width="252.67" height="73.17" rx="5" ry="5"/><rect class="cls-1" x="132.7" y="574.4" width="534.12" height="45.85" rx="5" ry="5"/><rect class="cls-1" x="414.15" y="486.6" width="252.67" height="73.17" rx="5" ry="5"/><polygon class="cls-3" points="540.48 810.49 468.94 810.49 468.94 740.24 493.65 714.23 540.48 714.23 540.48 810.49"/><polyline class="cls-3" points="468.94 740.24 493.65 740.24 493.65 714.23"/><polygon class="cls-3" points="644.54 810.49 573 810.49 573 740.24 597.71 714.23 644.54 714.23 644.54 810.49"/><polyline class="cls-3" points="573 740.24 597.71 740.24 597.71 714.23"/><line class="cls-5" x1="493.65" y1="642.69" x2="493.65" y2="693.26"/><polygon class="cls-6" points="487.67 691.51 493.65 701.87 499.64 691.51 487.67 691.51"/><line class="cls-5" x1="515.77" y1="651.3" x2="515.77" y2="701.87"/><polygon class="cls-6" points="509.78 653.05 515.77 642.69 521.75 653.05 509.78 653.05"/><line class="cls-5" x1="551.08" y1="410.5" x2="551.08" y2="486.6"/><line class="cls-5" x1="551.08" y1="196.18" x2="551.08" y2="255.54"/><polygon class="cls-6" points="545.1 197.93 551.08 187.57 557.07 197.93 545.1 197.93"/><line class="cls-5" x1="259.03" y1="196.18" x2="259.03" y2="255.54"/><polygon class="cls-6" points="253.05 197.93 259.03 187.57 265.01 197.93 253.05 197.93"/><line class="cls-5" x1="259.03" y1="410.5" x2="259.03" y2="486.6"/><line class="cls-5" x1="240.66" y1="642.69" x2="240.66" y2="693.26"/><polygon class="cls-6" points="234.68 691.51 240.66 701.87 246.64 691.51 234.68 691.51"/><line class="cls-5" x1="262.77" y1="651.3" x2="262.77" y2="701.87"/><polygon class="cls-6" points="256.79 653.05 262.77 642.69 268.75 653.05 256.79 653.05"/><line class="cls-5" x1="597.71" y1="642.69" x2="597.71" y2="693.26"/><polygon class="cls-6" points="591.73 691.51 597.71 701.87 603.7 691.51 591.73 691.51"/><line class="cls-5" x1="619.83" y1="651.3" x2="619.83" y2="701.87"/><polygon class="cls-6" points="613.84 653.05 619.83 642.69 625.81 653.05 613.84 653.05"/><text class="cls-7" transform="translate(516.2 518.79)"><tspan class="cls-8">Launch:</tspan><tspan class="cls-9"><tspan x="20.58" y="23.41">Pan</tspan></tspan></text><text class="cls-7" transform="translate(331.15 602.69)"><tspan class="cls-8">Launch: </tspan><tspan class="cls-9" x="81.29" y="0">Spoon</tspan></text><text class="cls-10" transform="translate(316.71 466.11)"><tspan class="cls-11">T</tspan><tspan x="10.47" y="0">ools and Utilities</tspan></text><text class="cls-10" transform="translate(290.51 70.18)">Data Integration Engine</text><text class="cls-10" transform="translate(241.69 291.23)">Job</text><text class="cls-12" transform="translate(143.37 378.87)">S<tspan class="cls-13" x="9.11" y="0">T</tspan><tspan x="16.44" y="0">ART</tspan></text><text class="cls-14" transform="translate(214.88 378.87)"><tspan class="cls-15">T</tspan><tspan x="7.84" y="0">ransformation</tspan></text><text class="cls-14" transform="translate(353.84 378.87)">Job</text><text class="cls-14" transform="translate(440.43 378.87)">Extract</text><text class="cls-14" transform="translate(525.82 378.87)"><tspan class="cls-15">T</tspan><tspan x="7.84" y="0">ransform</tspan></text><text class="cls-14" transform="translate(632.58 378.87)">Load</text><text class="cls-10" transform="translate(480.08 291.23)"><tspan class="cls-16">T</tspan><tspan x="10.84" y="0">ransformation</tspan></text><text class="cls-7" transform="translate(200.76 762.36)"><tspan class="cls-8">Repository</tspan><tspan class="cls-9"><tspan x="9.23" y="23.41">(RDBMS)</tspan></tspan></text><text class="cls-17" transform="translate(500.59 803.33)">.kjb</text><text class="cls-17" transform="translate(584.17 803.33)">.ktr</text><text class="cls-7" transform="translate(221.58 515.89)"><tspan class="cls-8">Launch:</tspan><tspan class="cls-9"><tspan x="-23.88" y="23.41">Kitchen, Carte</tspan></tspan></text><text class="cls-17" transform="translate(383.2 128.71)">Call</text><text class="cls-17" transform="translate(517.45 129.96)"><tspan class="cls-18">T</tspan><tspan x="11.19" y="0">ransformation</tspan><tspan x="34.86" y="23.41">Engine</tspan></text><text class="cls-17" transform="translate(220.4 131.64)">Job<tspan x="-14.65" y="23.41">Engine</tspan></text><line class="cls-5" x1="337.56" y1="137.98" x2="450.64" y2="137.98"/><polygon class="cls-6" points="448.89 143.96 459.25 137.98 448.89 132 448.89 143.96"/><line class="cls-19" x1="594.87" y1="749.76" x2="603.27" y2="758.27"/><polygon class="cls-20" points="599.62 760.24 607.31 762.36 605.29 754.64 599.62 760.24"/><line class="cls-19" x1="625.58" y1="749.76" x2="617.17" y2="758.27"/><polygon class="cls-20" points="615.15 754.64 613.14 762.36 620.83 760.24 615.15 754.64"/><line class="cls-19" x1="617.17" y1="772.11" x2="625.58" y2="780.63"/><polygon class="cls-20" points="615.15 775.75 613.14 768.03 620.83 770.14 615.15 775.75"/><line class="cls-19" x1="603.27" y1="772.11" x2="594.87" y2="780.63"/><polygon class="cls-20" points="599.62 770.14 607.31 768.03 605.29 775.75 599.62 770.14"/><line class="cls-19" x1="435.02" y1="507.69" x2="442.13" y2="514.89"/><polygon class="cls-20" points="438.47 516.86 446.16 518.98 444.15 511.26 438.47 516.86"/><line class="cls-19" x1="462.53" y1="507.69" x2="455.42" y2="514.89"/><polygon class="cls-20" points="453.4 511.26 451.39 518.98 459.08 516.86 453.4 511.26"/><line class="cls-19" x1="455.42" y1="528.14" x2="462.53" y2="535.34"/><polygon class="cls-20" points="453.4 531.77 451.39 524.05 459.08 526.17 453.4 531.77"/><line class="cls-19" x1="442.13" y1="528.14" x2="435.02" y2="535.34"/><polygon class="cls-20" points="438.47 526.17 446.16 524.05 444.15 531.77 438.47 526.17"/><line class="cls-19" x1="247.84" y1="324.72" x2="254.94" y2="331.92"/><polygon class="cls-20" points="251.28 333.89 258.97 336.01 256.96 328.29 251.28 333.89"/><line class="cls-19" x1="275.34" y1="324.72" x2="268.23" y2="331.92"/><polygon class="cls-20" points="266.21 328.29 264.2 336.01 271.89 333.89 266.21 328.29"/><line class="cls-19" x1="268.23" y1="345.17" x2="275.34" y2="352.37"/><polygon class="cls-20" points="266.21 348.81 264.2 341.09 271.89 343.2 266.21 348.81"/><line class="cls-19" x1="254.94" y1="345.17" x2="247.84" y2="352.37"/><polygon class="cls-20" points="251.28 343.2 258.97 341.09 256.96 348.81 251.28 343.2"/><line class="cls-19" x1="435.02" y1="269.03" x2="442.13" y2="276.23"/><polygon class="cls-20" points="438.47 278.2 446.16 280.31 444.15 272.59 438.47 278.2"/><line class="cls-19" x1="462.53" y1="269.03" x2="455.42" y2="276.23"/><polygon class="cls-20" points="453.4 272.59 451.39 280.31 459.08 278.2 453.4 272.59"/><line class="cls-19" x1="455.42" y1="289.48" x2="462.53" y2="296.68"/><polygon class="cls-20" points="453.4 293.11 451.39 285.39 459.08 287.5 453.4 293.11"/><line class="cls-19" x1="442.13" y1="289.48" x2="435.02" y2="296.68"/><polygon class="cls-20" points="438.47 287.5 446.16 285.39 444.15 293.11 438.47 287.5"/><line class="cls-19" x1="477.05" y1="123.95" x2="484.15" y2="131.15"/><polygon class="cls-20" points="480.5 133.12 488.19 135.24 486.17 127.52 480.5 133.12"/><line class="cls-19" x1="504.55" y1="123.95" x2="497.44" y2="131.15"/><polygon class="cls-20" points="495.43 127.52 493.41 135.24 501.1 133.12 495.43 127.52"/><line class="cls-19" x1="497.44" y1="144.4" x2="504.55" y2="151.6"/><polygon class="cls-20" points="495.43 148.03 493.41 140.32 501.1 142.43 495.43 148.03"/><line class="cls-19" x1="484.15" y1="144.4" x2="477.05" y2="151.6"/><polygon class="cls-20" points="480.5 142.43 488.19 140.31 486.17 148.03 480.5 142.43"/><line class="cls-21" x1="488.53" y1="761.22" x2="497.37" y2="753.53"/><polygon class="cls-22" points="499.11 757.3 501.7 749.76 493.87 751.28 499.11 757.3"/><line class="cls-21" x1="511.33" y1="775.92" x2="520.17" y2="768.23"/><polygon class="cls-22" points="514.83 778.16 507 779.69 509.6 772.15 514.83 778.16"/><line class="cls-21" x1="501.55" y1="779.93" x2="492.71" y2="772.24"/><polygon class="cls-22" points="496.21 770 488.38 768.47 490.98 776.01 496.21 770"/><line class="cls-21" x1="515.89" y1="757.5" x2="507.05" y2="749.8"/><polygon class="cls-22" points="517.63 753.72 520.22 761.26 512.39 759.74 517.63 753.72"/><line class="cls-21" x1="151.62" y1="519.94" x2="159.09" y2="513.44"/><polygon class="cls-22" points="160.82 517.21 163.42 509.67 155.59 511.2 160.82 517.21"/><line class="cls-21" x1="172.49" y1="532.71" x2="179.96" y2="526.21"/><polygon class="cls-22" points="175.99 534.95 168.16 536.48 170.76 528.93 175.99 534.95"/><line class="cls-21" x1="163.28" y1="536.69" x2="155.82" y2="530.2"/><polygon class="cls-22" points="159.32 527.96 151.49 526.43 154.08 533.97 159.32 527.96"/><line class="cls-21" x1="175.67" y1="516.21" x2="168.2" y2="509.71"/><polygon class="cls-22" points="177.41 512.43 180 519.98 172.17 518.45 177.41 512.43"/><line class="cls-21" x1="151.62" y1="279.6" x2="159.09" y2="273.11"/><polygon class="cls-22" points="160.82 276.88 163.42 269.34 155.59 270.87 160.82 276.88"/><line class="cls-21" x1="172.49" y1="292.38" x2="179.96" y2="285.88"/><polygon class="cls-22" points="175.99 294.62 168.16 296.15 170.76 288.6 175.99 294.62"/><line class="cls-21" x1="163.28" y1="296.36" x2="155.82" y2="289.87"/><polygon class="cls-22" points="159.32 287.62 151.49 286.1 154.08 293.64 159.32 287.62"/><line class="cls-21" x1="175.67" y1="275.88" x2="168.2" y2="269.38"/><polygon class="cls-22" points="177.41 272.1 180 279.65 172.17 278.12 177.41 272.1"/><line class="cls-21" x1="351.19" y1="335.3" x2="358.65" y2="328.81"/><polygon class="cls-22" points="360.39 332.58 362.98 325.04 355.15 326.56 360.39 332.58"/><line class="cls-21" x1="372.06" y1="348.08" x2="379.52" y2="341.58"/><polygon class="cls-22" points="375.56 350.32 367.73 351.85 370.32 344.3 375.56 350.32"/><line class="cls-21" x1="362.85" y1="352.06" x2="355.38" y2="345.56"/><polygon class="cls-22" points="358.88 343.32 351.05 341.79 353.65 349.34 358.88 343.32"/><line class="cls-21" x1="375.24" y1="331.57" x2="367.77" y2="325.08"/><polygon class="cls-22" points="376.97 327.8 379.57 335.34 371.74 333.82 376.97 327.8"/><line class="cls-21" x1="153.77" y1="133.68" x2="161.23" y2="127.19"/><polygon class="cls-22" points="162.97 130.96 165.56 123.42 157.73 124.94 162.97 130.96"/><line class="cls-21" x1="174.64" y1="146.46" x2="182.11" y2="139.96"/><polygon class="cls-22" points="178.14 148.7 170.31 150.23 172.9 142.68 178.14 148.7"/><line class="cls-21" x1="165.43" y1="150.44" x2="157.96" y2="143.95"/><polygon class="cls-22" points="161.46 141.7 153.63 140.18 156.23 147.72 161.46 141.7"/><line class="cls-21" x1="177.82" y1="129.96" x2="170.35" y2="123.46"/><polygon class="cls-22" points="179.55 126.18 182.15 133.72 174.32 132.2 179.55 126.18"/><line class="cls-23" x1="146.4" y1="582.77" x2="155.52" y2="592.01"/><polygon class="cls-22" points="153.69 593 157.53 594.05 156.53 590.19 153.69 593"/><line class="cls-23" x1="173.9" y1="582.77" x2="164.78" y2="592.01"/><polygon class="cls-22" points="163.77 590.19 162.76 594.05 166.6 593 163.77 590.19"/><line class="cls-23" x1="164.78" y1="601.17" x2="173.9" y2="610.42"/><polygon class="cls-22" points="163.77 602.99 162.76 599.13 166.6 600.19 163.77 602.99"/><line class="cls-23" x1="155.52" y1="601.17" x2="146.4" y2="610.42"/><polygon class="cls-22" points="153.69 600.19 157.53 599.13 156.53 602.99 153.69 600.19"/><circle class="cls-23" cx="160.15" cy="596.59" r="15.12"/><polygon class="cls-3" points="154.01 323.92 154.01 353.18 182.16 338.55 154.01 323.92"/><line class="cls-24" x1="190.6" y1="341.09" x2="235.39" y2="341.09"/><polygon class="cls-25" points="234.22 345.08 241.13 341.09 234.22 337.1 234.22 345.08"/><line class="cls-26" x1="287.93" y1="341.09" x2="332.72" y2="341.09"/><polygon class="cls-27" points="331.56 345.08 338.46 341.09 331.56 337.1 331.56 345.08"/><line class="cls-26" x1="490.16" y1="341.09" x2="522.9" y2="341.09"/><polygon class="cls-27" points="521.74 345.08 528.64 341.09 521.74 337.1 521.74 345.08"/><line class="cls-26" x1="583.97" y1="341.09" x2="616.71" y2="341.09"/><polygon class="cls-27" points="615.55 345.08 622.46 341.09 615.55 337.1 615.55 345.08"/><polygon class="cls-3" points="475.53 354 446.66 354 446.66 321.31 466.9 321.31 475.53 330.17 475.53 354"/><polyline class="cls-3" points="466.9 321.31 466.9 330.17 475.53 330.17"/><line class="cls-3" x1="464.1" y1="341" x2="469.05" y2="347.11"/><polygon class="cls-28" points="465.22 348.71 472.67 351.57 471.42 343.69 465.22 348.71"/><path class="cls-3" d="M661.85,348.11c0,3.14-6.33,5.69-14.15,5.69s-14.14-2.55-14.14-5.69V324.73h28.29Z"/><ellipse class="cls-29" cx="647.7" cy="324.73" rx="14.15" ry="5.69"/><line class="cls-3" x1="630.63" y1="353.8" x2="642.38" y2="340.85"/><polygon class="cls-28" points="644.55 344.39 646.24 336.6 638.64 339.03 644.55 344.39"/><line class="cls-3" x1="539.38" y1="332.37" x2="551.41" y2="332.37"/><line class="cls-3" x1="539.38" y1="337.25" x2="547.51" y2="337.25"/><line class="cls-3" x1="539.38" y1="342.14" x2="543.44" y2="342.14"/><line class="cls-3" x1="556.67" y1="337.25" x2="573.19" y2="337.25"/><path class="cls-3" d="M539.38,352.06h18.38a7.19,7.19,0,0,0,7-5.45"/><path class="cls-28" d="M567.65,347a3,3,0,1,0-3.27,2.72A3,3,0,0,0,567.65,347Z"/><path class="cls-3" d="M539.38,323h18.38a7.2,7.2,0,0,1,7,5.46"/><path class="cls-28" d="M561.66,328.6a3,3,0,1,0,2.72-3.27A3,3,0,0,0,561.66,328.6Z"/></g></svg>